<?xml version="1.0" encoding="utf-8" ?>
<svg baseProfile="full" height="300mm" version="1.1" viewBox="0,0,200,300" width="200mm" xmlns="http://www.w3.org/2000/svg" xmlns:ev="http://www.w3.org/2001/xml-events" xmlns:xlink="http://www.w3.org/1999/xlink"><defs /><rect fill="#222222" height="300" width="200" x="0" y="0" /><text fill="#FFFFFF" style="font-size:12px; font-family:Arial; font-weight:bold;" x="10" y="20">Ali Running</text><text fill="#FFFFFF" style="font-size:4px; font-family:Arial" x="10" y="280">ATHLETE</text><text fill="#FFFFFF" style="font-size:9px; font-family:Arial" x="10" y="290">Ali</text><text fill="#FFFFFF" style="font-size:4px; font-family:Arial" x="120" y="280">STATISTICS</text><text fill="#FFFFFF" style="font-size:3px; font-family:Arial" x="120" y="285">Number: 52</text><text fill="#FFFFFF" style="font-size:3px; font-family:Arial" x="120" y="290">Weekly: 1.5</text><text fill="#FFFFFF" style="font-size:3px; font-family:Arial" x="141" y="285">Total: 210.3 km</text><text fill="#FFFFFF" style="font-size:3px; font-family:Arial" x="141" y="290">Avg: 4.0 km</text><text fill="#FFFFFF" style="font-size:3px; font-family:Arial" x="167" y="285">Min: 1.2 km</text><text fill="#FFFFFF" style="font-size:3px; font-family:Arial" x="167" y="290">Max: 25.8 km</text><polyline fill="none" points="16.395102949347347,41.85708619575598 13.109627156285569,43.82577828533249 11.33333333331393,45.56284331824281 14.178074568684679,50.28179321868811 14.351697273144964,51.12134923337726 14.298274902568664,53.42287250717345 14.578742348297965,53.75579504770576 20.014468558714725,53.23469865025254 20.80244852526812,51.917476655886276 19.94769059540704,50.28179321868811 19.94769059540704,49.60146073930082 20.281580411770847,48.58819527577725 20.80244852526812,48.05261001193139 21.390094602131285,47.8499557513278 21.87089593760902,48.096035897993715 22.391764051106293,48.950076392429764 23.193099610391073,49.00797730985505 23.47356705617858,48.64609629876213 23.23316638841061,47.589399969307124 23.393433500255924,46.76430440231343 23.86087924311869,46.28661592687422 24.67557039501844,46.1418616163719 25.20979410118889,46.12738617951982 25.570395102957264,46.33004219944996 27.0127991096233,48.240788782874006 27.440178074524738,49.23958081059391 27.68057874229271,51.49770077664289 28.201446855906397,52.192501750498195 28.882582081248984,52.87282534703263 30.351697273203172,52.597801195210195 33.07623817474814,46.720878224790795 31.48692264885176,42.088698043779004 30.40511964383768,41.451764811063185 30.311630495241843,41.20567642347305 31.16638842516113,39.396193610853516 35.27991096273763,37.61564641194127 35.33333333331393,33.489926846465096 32.32832498603966,32.910871618951205 31.794101279927418,33.779453826267854 30.511964385048486,34.69146105032996 30.511964385048486,35.342892214408494 29.430161380034406,35.97984506172361 28.49526989425067,36.24041609157575 28.535336672211997,37.03660322861106 20.80244852526812,42.05974657756451 20.77573733997997,42.7545806006965 20.588759042788297,42.87038603461406 19.226488592044916,43.44941219032626 18.85253199771978,43.20332628063625 18.451864218106493,43.36255837471981" stroke="red" stroke-linecap="round" stroke-linejoin="round" stroke-width="0.5"><title>2022-07-10 6.8km</title><desc>1657448715000</desc></polyline><polyline fill="none" points="44.522875816968735,44.176632567468914 43.76470588229131,44.58749994082609 42.0,46.35847005066171 44.7712418299634,50.87791258422658 44.941176470543724,52.138804122194415 44.862745098012965,54.07971105580509 45.03267973853508,54.306385053510894 50.35294117644662,53.81053534001694 51.08496732026106,52.49298566604557 50.24836601305287,50.86374521708058 50.70588235289324,49.05031369088101 51.215686274459586,48.59695316397119 51.67320261429995,48.540283023699885 52.183006535924505,48.78113100564224 52.81045751628699,49.659515232619015 53.43790849670768,49.74451994705305 53.69934640522115,49.31949600309599 53.45098039211007,48.32776985040982 53.529411764699034,47.71856413173373 53.856209150282666,47.12352414318593 54.36601307184901,46.911009419782204 55.581699346366804,46.95351238302828 56.95424836600432,48.65362328769697 57.68627450981876,49.801189735968364 57.869281045743264,52.18130594154354 58.928104575083125,53.47052337639616 60.45751633978216,53.18717961880611 60.915032679680735,52.337145866287756 61.09803921566345,52.365480384614784 61.64705882349517,50.424556322948774 64.82352941174759,43.17071222550294 64.70588235295145,42.87318549209158 62.862745098012965,42.15061867031909 61.01960784307448,40.8471579963807 62.27450980391586,37.88600286273868 64.62745098036248,37.87183454782644 64.7973856208846,37.41844792422489 65.86928104574326,37.177585849844036 66.0,35.49154296296183 65.84313725488028,32.88452345847327 63.00653594767209,32.360281613175175 62.522875816968735,33.12539085869503 61.176470588194206,34.10302606236655 61.228758169920184,34.69810594995215 60.16993464046391,35.37819501674676 59.30718954245094,35.576553879189305 59.25490196078317,36.27080830174964 59.568627450906206,37.177585849844036 59.55555555556202,37.81516127778741 58.11764705879614,39.13281052808452 57.47712418291485,40.875494191015605 57.176470588194206,41.116351678501815 55.568627450964414,40.69130885195045 55.12418300652644,41.00300701575179 55.228758169861976,41.5272255265445 47.908496731950436,42.56149033010297" stroke="red" stroke-linecap="round" stroke-linejoin="round" stroke-width="0.5"><title>2022-05-28 7.2km</title><desc>1653736202000</desc></polyline><polyline fill="none" points="77.79463424044661,41.30774719605688 77.65566492959624,41.54874213619041 77.15537541016238,41.62405299728562 74.01466898288345,43.40138134484005 72.66666666668607,44.81720823259093 75.0430418838514,50.390049543828354 75.22370198799763,51.24855497130193 75.16811426362256,53.58306922658812 75.45994981663534,53.869233674471616 81.11600077198818,53.19147512903146 81.86643505113898,51.85101278939692 80.96313453000039,50.11894182518881 81.2688670140924,48.44710302888416 81.82474425790133,47.84463528006745 82.50569388148142,47.66389461266226 83.00598340091528,47.90488213406934 83.64524223119952,48.85376776565681 84.36788264813367,48.86882940719079 84.57633661455475,48.53747303959972 84.34008878597524,47.52833900830592 84.50685195910046,46.65475631211302 84.90986296080519,46.1577162319154 85.71588496433105,45.916726671450306 86.99440262495773,46.30833456439723 88.24512642348418,48.05549919209443 88.6481374251889,48.808582834433764 89.03725149587262,51.504599758729455 89.91275815479457,52.55889847985236 90.26018143224064,52.78481893413118 91.7471530592884,52.51371435933106 96.66666666668607,41.684301666376996 93.56765103264479,40.193141938667395 93.33140320400707,39.83164704934461 92.45589654508512,39.364715213814634 92.52538120053941,39.063468307838775 95.40204593713861,38.08441282744752 96.24975873378571,38.02416310778062 96.55549121793592,37.66266442037886 96.49990349356085,33.29450523968262 93.55375410156557,32.7974329921999 92.94228913338156,33.625886072957655 91.58038988616318,34.665213417451014 91.55259602394653,35.343032779273926 89.48195329087321,36.487789314371184 89.80158270604443,38.64172190098907 88.68982821848476,39.54546314640902 81.5051148426719,42.09097972289601 81.53290870488854,42.76877470368345 80.56012352829566,43.37125726303202 79.93476162903244,43.56706371628388 79.57344142056536,43.295947039252496 78.58675931283506,43.702621921285754 78.18374831113033,43.431505422253394 77.6278710673796,43.62731181837444" stroke="red" stroke-linecap="round" stroke-linejoin="round" stroke-width="0.5"><title>2022-05-21 7.1km</title><desc>1653128068000</desc></polyline><polyline fill="none" points="117.00874865695368,40.30717666413693 117.46948787092697,40.23151350373519 118.54454603692284,40.655226846341975 119.25659754947992,40.56443120293261 120.02449623955181,38.5820497477398 120.6248533971957,37.87080903448805 121.32294311531587,37.52275417957571 121.72783515189076,36.93257287322194 121.28105773229618,34.79882644499594 122.35611589829205,34.526431703721755 123.33344150375342,33.87570948454959 123.50098303612322,33.60331353072252 123.36136509245262,33.13418632699177 124.77150632324629,32.089996160168084 125.26016912597697,31.333333333328483 127.31255289743422,31.696531834822963 123.12401458830573,40.458502902067266 126.83785188908223,42.24414417195658 127.17293495382182,42.71325076938956 127.10312598192832,43.16722388578637 126.13976217084564,45.66405826629489 125.12055118230637,47.389126283320365 124.0175694276113,50.29447157154209 122.45384845882654,53.562936388654634 120.97389825625578,53.85043777457031 119.96864906209521,50.415526742246584 119.39621549320873,49.38655553973513 117.94418887927895,47.55557945588953 116.6178184148157,47.49505104494165 116.1151938176481,47.72203249494487 115.71030178113142,48.342447191054816 115.59860742616002,49.09904796798946 115.86388151912251,50.12802059651585 115.64049280929612,50.47605430110707 114.91447950241854,50.40039484978479 114.31412234471645,49.553007109687314 113.64395621523727,49.25036779225047 113.11340802948689,49.40168750616431 112.5270126661635,50.08262485284649 112.12212062964682,51.23264729700168 112.16400601272471,51.88331506671966 112.5688980492414,52.44319035152148 112.20589139580261,54.849123703927035 106.55136467848206,55.33333333332848 106.35589955741307,54.69780796302075 106.35589955741307,51.95897397727822 103.35411376919365,46.99569098078064 105.33668856881559,44.99823870345426 109.34372355125379,42.75864812574582" stroke="red" stroke-linecap="round" stroke-linejoin="round" stroke-width="0.5"><title>2022-04-09 6.5km</title><desc>1649491818000</desc></polyline><polyline fill="none" points="150.4840941671282,55.33333333325572 154.68793245125562,32.85232477867976 139.27385874651372,31.333333333255723 136.47129989229143,35.890306007582694 136.47129989229143,49.86499108211137 149.92358239740133,54.72574010514654 152.16562948096544,39.232082795817405 155.808955992572,36.80169994221069 153.0063971374184,31.94092997838743 137.87257931940258,32.24472826742567 135.63053223583847,48.953600007807836 151.885373596102,53.51055338187143 151.32486182451248,41.96626180806197 155.808955992572,36.194104007678106 152.44588536582887,32.54852653411217 137.59232343453914,32.24472826742567 136.19104400556535,48.953600007807836 150.4840941671282,54.42194345686585 151.32486182451248,39.83967828657478 155.808955992572,36.49790198588744 151.32486182451248,31.94092997838743 137.87257931940258,31.94092997838743 135.9107881197706,48.953600007807836 138.71334697585553,52.90295988647267 151.32486182451248,54.1181467869319 153.56690890807658,32.85232477867976 136.47129989229143,34.97891187178902 137.87257931940258,51.080178869655356 151.32486182451248,54.72574010514654 156.08921187836677,34.97891187178902 140.39488228969276,31.94092997838743 135.9107881197706,34.67511378135532 137.03181166294962,51.68777263117954 149.64332651067525,54.42194345686585 155.808955992572,37.713093678699806 153.28665302414447,32.85232477867976 137.31206754781306,32.54852653411217 135.9107881197706,48.34600584744476 150.7643500538543,54.42194345686585 153.84716479480267,32.85232477867976 136.19104400556535,34.67511378135532 136.75155577622354,50.47258502081968 151.32486182451248,54.42194345686585 151.60511771030724,40.44727368908934 156.36946776416153,35.890306007582694 153.0063971374184,32.85232477867976 137.03181166294962,33.45992120192386 136.19104400556535,50.168788061942905 146.84076765645295,53.81435009534471 151.885373596102,45.915628319140524 148.52230296935886,38.32068939204328" stroke="#49eeff" stroke-linecap="round" stroke-linejoin="round" stroke-width="0.5"><title>2021-04-16 2.4km</title><desc>1618583993000</desc></polyline><polyline fill="none" points="187.20245707914,53.1391144432564 186.99405682925135,53.1892683289916 186.25307816284476,52.574882225279 184.85216537176166,52.411881463747704 184.60903174686246,52.44949703774182 184.4006314969156,52.73788283302565 183.0460298724356,52.73788283302565 182.37451795610832,53.15165291602898 181.2862055398873,52.37426588156086 180.9851829566178,52.349188822248834 180.44102674844908,53.15165291602898 180.7304715400678,54.00426693256304 180.53364908177173,54.83180004329188 180.16315974859754,55.182873499172274 179.48007004050305,55.33333333332848 179.06326954072574,55.182873499172274 178.70435799920233,54.60610958792677 177.76655687449966,55.00733686037711 177.1992450830876,54.41803398326738 177.0140004165005,53.76603696908569 175.6709765837295,54.12965099196299 175.43942075048108,53.866344362148084 175.84464345866581,53.31465297975228 175.7288655420416,53.051345108120586 174.67528650077293,53.51526823169843 174.0153523760382,52.77549833606463 173.57539629284292,52.67519030976109 173.13544020970585,52.93849875459273 173.4711961678695,53.452575990449986 173.45961837627692,54.05442056723405 172.38288375164848,54.78164663424832 172.8691510015051,54.267573352190084 173.06597345980117,53.75349854087108 173.03124008479062,53.56542200826516 172.46392829332035,53.15165291602898 172.89230658480665,51.60941393447865 173.4133072096156,51.346103464384214 173.9574634177261,51.60941393447865 175.16155375057133,51.75987688009627 175.82148787530605,50.995022213464836 176.55088875000365,50.794404035506886 177.15293391648447,50.067161187762395 176.81717795826262,49.916696768123074 176.55088875000365,50.53109232345014 176.24986616685055,50.70663350938412 175.62466541706817,50.68155620803009 175.1847093339311,50.98248358417186 174.24690820928663,51.00756084184104 173.6564408345148,50.543630985484924 173.2280625430285,49.77877093506686 171.9545054602204,49.65338371851249 171.50297158537433,50.02954509515257 170.7851485023275,51.245794608359574 170.44939254410565,51.23325599725649 170.68094837735407,50.76932674690033 171.10932666884037,50.51855366048403 171.37561587709934,49.277221522977925 171.2714157521259,48.7129766940634 171.53770496032666,48.58758870407473 170.98197096056538,48.31173480578582 171.00512654386694,49.076601350461715 170.79672629397828,49.22706650168402 171.03985991887748,49.139295179382316 170.93565979390405,48.29919598174456 173.37857383460505,48.81328702055907 173.62170745956246,48.675360306631774 173.44804058456793,48.39950654846325 172.71863970987033,48.43712299596518 172.19763908506138,48.26157950423658 171.5724383353372,47.94810853962554 171.42192704370245,47.647175878533744 171.584016126988,47.02023115105112 172.1281723350985,46.10488776328566 172.1165945433895,45.76633487074287 171.49139379372355,45.164461423570174 171.78083858522587,44.512429489492206 171.9545054602204,42.531240436394 172.7417952932301,41.139378841617145 172.35972816834692,40.52494988468243 172.26710583508248,39.59703262322 171.87346091854852,39.14561161249003 171.6419050853001,38.004514352520346 171.7113718353212,37.139281734314864 170.9009264188935,36.299124174474855 169.95154750265647,35.98563150064729 169.83576958609046,35.45896252748207 169.89365854434436,35.17054788538371 170.49570371076697,34.568637515592854 171.25983796047512,34.73165511456318 171.59559391863877,34.38054009480402 170.83145966893062,34.20498231718375 169.85892516933382,32.98861281322024 169.70841387775727,32.4117747957207 169.84734737768304,31.48381394171156 169.61579154443461,31.333333333328483 168.8863906696788,32.248755006789 169.0716353363241,32.97607287680148 168.9558574196999,33.47766962304013 167.3118110036594,34.24260185597814 166.13087625417393,33.991804775898345" stroke="red" stroke-linecap="round" stroke-linejoin="round" stroke-width="0.5"><title>2021-01-17 6.8km</title><desc>1610870272000</desc></polyline><polyline fill="none" points="11.33333333331393,60.10901233420009 11.72777075425256,62.03142298605235 12.531816266302485,62.820099555305205 12.349768225802109,63.707357410676195 12.546986936300527,64.54531996928563 12.24357353564119,64.89036247400509 12.42562157602515,66.3198186759546 11.788453434419353,67.69997471883835 12.683522966690361,69.17870399786625 12.683522966690361,69.68804184620967 12.061525495140813,70.27952952215855 11.75811209436506,71.05174721757066 12.076696165197063,71.54465075218468 12.486304256191943,71.56108085150481 12.653181626577862,71.26533888099948 13.396544458460994,71.34748946710897 13.866835229622666,71.97183294736897 14.989464812446386,72.36615425828495 15.050147492613178,72.66189479069726 15.930046354827937,72.67832480890502 16.15760640532244,73.1383648358169 16.20311841549119,72.82619491954392 17.644332069088705,73.48339424245933 18.069110830139834,73.36838449868083 18.933839022298343,73.5984039278701 19.08554572268622,74.14059165761864 19.449641803570557,73.86128298929543 20.284028655732982,73.94343263340124 20.101980615232605,74.89636632651673 19.32827644329518,75.63570867004455 19.510324483795557,76.62149470557051 19.11588706279872,77.29511269465729 19.28276443318464,78.34660993996658 20.799831437005196,79.48024993715808 21.194268858002033,79.5623975424678 21.967973029939458,78.93807499448303 22.514117151207756,79.03665235334483 24.243573535582982,78.52733553719008 25.942688579845708,78.82306802154926 26.8984407922253,79.46382041250763 28.036241045047063,79.5623975424678 28.68857985670911,79.89098766581446 28.309313105710316,79.39810230203148 31.464812473626807,78.23160266660852 31.434471133572515,77.88658049599326 32.572271386452485,77.16367519563937 32.997050147503614,75.84929600864416 33.51285292877583,75.78357684898947 35.01474926248193,74.61705859063659 34.999578592483886,74.28846081309894 35.33333333331393,73.99272240555729 34.80235988198547,73.63126382723567 34.78718921192922,72.79333490326826 34.45343447109917,72.54688462949707" stroke="#47fffc" stroke-linecap="round" stroke-linejoin="round" stroke-width="0.5"><title>2021-01-17 3.2km</title><desc>1610855403000</desc></polyline><polyline fill="none" points="46.59989171632333,69.26091707886371 43.702219815924764,70.93685534210817 42.0,72.72544567481964 44.37791012454545,76.80956620856887 44.80671358964173,77.87987316552608 44.61180292366771,78.9924227927695 44.884677855996415,80.66827658707916 46.1321061180206,80.82318670768291 48.43205197621137,80.3584559730225 50.18624796968652,80.30212489889527 50.9399025447201,79.00650565835531 50.71900378999999,78.0207025866257 50.82295614510076,76.37299193050421 51.004872766672634,76.02091518075031 51.537628586927895,75.76741952341399 51.537628586927895,75.4294247959333 51.90146183001343,75.4153416694171 52.330265295051504,75.72517021482054 52.73308067134349,76.42932415087125 53.42176502442453,76.51382245063724 53.68164591235109,76.23216130763467 53.49972929072101,75.00693055450392 53.78559826751007,74.16193929807923 54.21440173254814,73.86619148467435 55.331889550667256,73.7676087795262 55.95560368162114,74.07743996905629 57.46291283163009,76.40115804271773 57.761775852763094,78.8515940803627 58.07363291824004,79.30224559849012 58.853275582019705,80.1331315778807 60.373578776430804,79.907806919844 61.55603681644425,77.4573842859827 61.10124526260188,76.37299193050421 61.19220357341692,75.09142947671353 61.776935571222566,74.38727066140564 61.73795343801612,74.13377285920433 63.02436383324675,73.97885737176694 64.60963724961039,70.95093879530032 64.98646453709807,69.8101757595723 64.81754195992835,69.41583635217103 63.46616134274518,68.99332895035332 61.28316188417375,67.75396857023588 61.15322144021047,67.59904796326009 61.28316188417375,67.16245285641344 62.36166756908642,64.8104557756742 64.75257173797581,64.57102931595 64.90850027074339,64.14851130952593 65.7271250676713,64.13442736005527 65.98700595559785,63.796412264346145 66.0,59.75426921095641 63.16729832161218,59.17681329230254 62.4396318353829,60.02187014836818 61.19220357341692,60.86692330418737 61.29615592851769,61.31761680764612 61.15322144021047,61.47254245636577 59.295073091518134,62.444345961819636 59.632918245799374,64.45835793799779 59.34704926912673,64.86679137009196 58.64537087175995,65.23297233309131 58.099621007044334,65.95124835807655 58.0086626962875,66.50051645607164 57.38494856527541,67.6835501279711 56.90416892262874,67.76805225564749 55.799675148911774,67.40187610182329 55.474824038974475,67.45821093991981 55.18895506230183,67.85255434633291 55.2929074174026,68.85249294425012 54.78613968600985,69.34541851605172 54.045479155436624,69.1200812679599 53.47374120197492,67.82438698690385 53.057931781280786,67.72580119641498 51.82349756365875,68.07789307400526 51.79750947491266,68.66940598269866 50.9139144559158,69.23274992492225 50.329182458051946,69.41583635217103 49.92636708175996,69.23274992492225 49.05576610728167,69.55667194728449 48.71792095294222,69.34541851605172 48.146182999480516,69.55667194728449 48.00324851111509,69.14824843838869 48.276123443502,69.3031678020925 48.87384948565159,69.10599768125394 49.120736329234205,69.38766922081413 49.52355170546798,69.33133494577487 49.120736329234205,69.5285048364749 48.834867352445144,69.34541851605172 48.263129399041645,69.5144212795276" stroke="red" stroke-linecap="round" stroke-linejoin="round" stroke-width="0.5"><title>2021-01-10 7.9km</title><desc>1610256363000</desc></polyline><polyline fill="none" points="76.05358538706787,58.41482684353832 77.39339803054463,61.25934237067122 77.2019962243503,61.05193045269698 77.74885852786247,61.288972636073595 77.91291721886955,60.874148724542465 77.4754273762228,59.03706631527166 78.04963279468939,58.0 80.3737975845579,58.444457316130865 81.71361022803467,59.6296744509018 82.12375695561059,59.36300089675933 81.8503258038545,58.65187056409195 82.23312941624317,58.94817502051592 84.09246124816127,67.18535248117405 85.54164635227062,68.69647124197218 86.00647931010462,70.26684361274238 87.04551768687088,70.88906495028641 87.07286080194172,72.16313424278633 88.71344771236181,74.56311439545243 88.95953574881423,75.6890261300141 90.68215200479608,76.87419300997863 91.63916103588417,77.0223386270809 93.03365990973543,78.41490479101776 93.27974794630427,79.48154798994074 92.76022875797935,81.91111372390878 91.8305628420785,82.0" stroke="#4dd2ff" stroke-linecap="round" stroke-linejoin="round" stroke-width="0.5"><title>2020-12-06 1.6km</title><desc>1607221641000</desc></polyline><polyline fill="none" points="118.60181654326152,58.81523835469852 120.3490241576219,59.43481851828983 121.58411919546779,61.293553899246035 123.45182388683315,62.27183260023594 124.71704319387209,65.36970114742871 126.04251103941351,66.5762336634507 124.68691892467905,73.13058361728326 122.78908996412065,75.70664532482624 122.24685311829671,79.26093414981733 121.2226279649185,80.14134998770896 117.72821273596492,79.8804862149118 115.40864400635473,81.60870589726255 113.78193346876651,82.0 110.31764250900596,81.05437200373854 108.41981354844756,81.21741145491251 107.0642214337131,80.56525329645956 104.62415562721435,77.0435829408525 104.62415562721435,73.81536095050978 105.88937493425328,72.25015408915351 108.29931647144258,70.91320225870004 109.20304454804864,69.77189877873752 110.04652408603579,67.32623873508419 110.10677262442186,64.52186555566732 111.79373170051258,59.50003743334673 113.84218200715259,58.16304778883932 115.01702850649599,58.0 120.10803000396118,59.23916171648307 121.0117580803344,59.989178995369 121.58411919546779,61.423991182033205 123.45182388683315,62.30444185365923 124.98816161684226,65.72840034088586 123.90368792519439,62.56531579649891 123.06020838709082,61.81530280399602" stroke="#47fbff" stroke-linecap="round" stroke-linejoin="round" stroke-width="0.5"><title>2020-11-19 3.0km</title><desc>1605780477000</desc></polyline><polyline fill="none" points="146.42002771480475,58.162385907489806 146.39002573513426,58.48715754630393 150.11027120880317,59.23413142398931 151.19034247554373,60.1434892496618 151.8203840474598,61.63743025038275 153.86051866225898,62.61173692040029 154.88058596965857,65.63207416038495 156.05066317494493,66.63884872521157 154.85058398987167,73.36144682494341 152.87045333452988,75.95952540487633 152.42042364005465,79.36948072852101 151.88038800680079,80.0189930924098 150.5903028829489,80.31127334962366 148.04013461456634,79.9215662976494 145.78998614265583,81.67524536809651 144.55990497791208,82.0 141.04967336147092,81.25306399553665 138.46950311365072,81.38296599860769 137.14941601012833,80.63602896791417 134.80926159920637,77.12865586142289 135.109281395562,73.71868352108868 135.85933088616002,72.61449645107496 139.18955062469468,70.30868528431165 140.1196119930828,68.13276811258402 139.99960407463368,66.0217936145782 141.289689198602,60.630644470016705 142.90979609859642,58.81192895019194 145.09994061116595,58.0 150.26028110692278,59.29908561546472 151.25034643465187,60.2084433096461 151.7003761291271,61.53999946708791 153.53049688634928,62.41687575553078 155.1206018065568,65.79445730740554 157.19073840079363,66.86618460479076" stroke="#47fcff" stroke-linecap="round" stroke-linejoin="round" stroke-width="0.5"><title>2020-06-17 3.0km</title><desc>1592389526000</desc></polyline><polyline fill="none" points="177.05722096271347,58.13008475402603 180.30182588275056,59.040676978678675 181.80395779001992,60.04883050447097 182.43485319125466,61.414712320052786 184.35758203279693,62.48790226370329 185.28890381543897,64.8944400967448 186.82107836101204,66.61803360059275 185.5592875587754,73.28470098486287 183.7266866316786,75.65866111317882 183.15587650681846,79.30087694371468 182.19451208610553,80.17890670383349 178.7095660608029,79.85371069624671 176.45636819978245,81.57724685638095 174.74393782531843,82.0 171.73967401043046,81.1219737957872 169.1860497678863,81.15449331546552 167.50366203149315,80.27646546025062 165.37063472287264,76.82937656180002 165.5508905517636,74.1302224676474 166.6023828870384,72.27657713889494 169.21609240584075,70.94324858050095 169.90707308333367,70.06520078526228 170.9585654186085,67.10584188310895 170.68818167515565,65.8700598727155 172.04010039195418,60.40656185732223 174.4435114436783,58.357732983189635 175.43491850269493,58.0 177.2975620678626,58.22764829490916 181.35331821802538,59.626056720502675 182.34472527680919,61.21958660046221 184.65800841420423,62.71554828603985 185.5592875587754,65.25216759383329 187.96269861061592,66.81315697706304" stroke="#47fcff" stroke-linecap="round" stroke-linejoin="round" stroke-width="0.5"><title>2020-06-10 3.0km</title><desc>1591782487000</desc></polyline><polyline fill="none" points="24.217195675475523,84.66666666665697 24.48684859345667,85.15316590972361 27.932413656031713,85.9315636002575 29.01102532783989,86.67752678561374 29.700138340471312,88.13701638451312 31.767477377899922,89.33703760663047 32.63635900232475,91.83436877169879 34.0745078981854,93.32627425927785 32.84608904982451,100.03978752417606 31.04840293014422,101.98571460836683 30.179521305602975,106.33158794150222 29.19079393974971,106.85049537554733 25.9549589244416,106.62347344704904 22.359586685081013,108.66666666665697 18.73425301059615,107.79101356954197 16.816721149603836,107.92074006216717 14.6594978061039,106.75320027748239 13.041580298449844,104.35324784048134 12.562197333201766,102.56949108702247 13.01161886297632,100.10465189637034 14.56961350014899,98.67763354079216 16.577029666863382,97.60736679370166 17.356026985449716,96.53709749219706 18.224908609990962,93.84519674346666 18.045139997964725,92.48302394145867 18.61440726928413,89.92083055333933 19.962671859073453,86.32076193881221 21.91016515530646,85.12073264311766 23.438198357005604,84.73153326296597 28.052259397343732,86.06129641726147 29.01102532783989,86.77482623996912 29.700138340471312,88.20188247866463 31.49782446003519,89.01270786332316 32.78616617922671,92.02896542122471 34.13443076889962,93.22897622661549 32.87605048506521,99.84519435133552 30.958518624072894,102.3748990118911 29.969791258336045,106.55861001781886 28.56160379794892,106.85049537554733 25.865074618486688,106.55861001781886 23.228468309622258,108.50450881468714 20.831553483614698,108.50450881468714 18.674330139998347,107.79101356954197 17.266142679494806,107.98560329448082 15.138880771235563,107.23967555712443 13.461040392983705,105.19647583601181 12.532235897844657,102.31003496810445 13.820577616803348,99.2614143260871 16.577029666863382,97.57493442823761 17.625679903430864,96.05061060146545 18.25487004534807,93.74789882346522 18.045139997964725,92.35329298264696 19.393404587637633,87.0342913485656 21.610550801968202,85.08829937438713 23.49812122748699,84.86126642723684" stroke="#41ffd1" stroke-linecap="round" stroke-linejoin="round" stroke-width="0.5"><title>2020-06-03 5.0km</title><desc>1591179886000</desc></polyline><polyline fill="none" points="54.8423352742102,84.95975443764473 58.45234359265305,85.77388613397488 59.38492907490581,86.39262523839716 60.287431154283695,88.15114226017613 62.33310253487434,89.22578816956957 63.08518760127481,91.50533160642954 64.79994155245367,93.32895804522559 63.355938225169666,100.10236300335964 61.64118427375797,101.99108275541221 60.91918261011597,105.86618985707173 60.13701414107345,106.77797491656383 56.58717262814753,106.51746508802171 54.21058381837793,108.24333989425213 52.52591326995753,108.66666666665697 49.4574061994208,107.82001272396883 47.0808173896512,107.8851400068379 45.54656385432463,107.1361756848928 42.95939122629352,103.22851553847431 43.320392057998106,100.39544072563876 44.67414517735597,98.73466444382211 47.0808173896512,97.49721930976375 47.74265224812552,96.6505443637725 48.61507092497777,94.07794533541892 48.524820717051625,92.35201622880413 49.72815682319924,87.33701486329664 50.871326123946346,85.70875565244933 52.52591326995753,84.76436261154595 53.578832362778485,84.66666666665697 58.69301081378944,85.80645137117244 59.685763101209886,86.58801635773852 60.25734775187448,87.95575181924505 62.09243531350512,88.86757315148134 63.29577141965274,91.79841492514242 65.04060877359007,93.23126395896543" stroke="#47fcff" stroke-linecap="round" stroke-linejoin="round" stroke-width="0.5"><title>2020-05-27 3.0km</title><desc>1590574932000</desc></polyline><polyline fill="none" points="89.98610404925421,102.86672450555488 90.35508236452006,92.86673765769228 89.37114018993452,91.4000637048739 89.92460766341537,88.93337946786778 88.94066548836417,84.93333680130308 84.6974148596637,86.06668400374474 78.91675458289683,93.73340752173681 81.62259556353092,100.93340226012515 83.40599075541832,102.00006331584882 84.6974148596637,107.60001340322196 89.8631112773437,107.33334989269497 90.72406068001874,105.33337107894477 89.43263657577336,98.26674416591413 90.17059320677072,92.80007071094587 88.694679944776,84.73333420761628 84.8204076315742,85.80001420044573 82.48354496667162,90.06672170211095 79.83920037164353,91.53339779790258 78.42478349548765,93.93340814270778 80.02368952939287,96.00007865898078 81.68409194960259,101.06673496030271 83.59047991316766,102.40006089030067 84.6974148596637,108.06667435937561 86.48081005131826,108.66666666668607 89.92460766341537,107.26668400276685 90.90854983800091,104.86670872505056 89.37114018993452,99.20007538533537 90.04760043509305,92.93340459960746 88.5716871728655,84.66666666668607 85.00489678955637,85.53334431903204 82.72953051025979,89.80005306767998 78.85525819705799,93.73340752173681 82.29905580868945,100.66673680127133 83.89796184259467,102.00006331584882 85.18938594730571,107.66667926870286 87.03427752479911,108.13334019086324 89.92460766341537,107.26668400276685 90.6625642941799,104.33338002843084 88.94066548836417,97.80007819831371 89.7401185054332,93.26673923566705 88.63318355870433,84.93333680130308 84.88190401741304,86.13335144240409 82.60653773834929,90.06672170211095 78.60927265323699,93.73340752173681 80.51566061703488,95.73341175861424 82.60653773834929,101.26673397392733 83.83646545675583,102.00006331584882 84.8204076315742,107.40001577750081 87.09577391087078,108.40000346768647 89.4941329616122,107.26668400276685 90.5395715222694,104.86670872505056 88.94066548836417,97.93341135617811 89.67862211936153,93.13340539572528 88.694679944776,85.20000685780542 85.18938594730571,85.93334911187412 82.91401966800913,90.20005598996067 79.47022205637768,92.46673590422142 78.54777626739815,94.40007608773885 80.39266784512438,95.66674502124079 82.1145666509401,100.80006954038981 84.08245100057684,102.40006089030067 84.38993293000385,106.40002699167235 85.43537149066105,107.93334268208127 88.44869440095499,107.80001098517096 90.17059320677072,106.00003117049346 89.30964380386285,98.26674416591413" stroke="#41ffd2" stroke-linecap="round" stroke-linejoin="round" stroke-width="0.5"><title>2020-05-12 4.9km</title><desc>1589275443000</desc></polyline><polyline fill="none" points="108.0930656727869,86.36291882429214 106.43608899426181,84.66666666667152 109.51590434240643,85.34906824379868 109.46187249419745,86.167947855065 110.27235021733213,86.20694206017652 113.22609125298914,87.41575962027127 113.20808063691948,88.72205637095612 112.73980461899191,90.51576696468692 113.83845219935756,90.47677338308131 113.98253712791484,91.02268301209551 114.50484499405138,90.76922510757868 118.03492574393749,91.91953214458772 117.83680896717124,93.06983427148953 118.43115929747,93.84969732745958 118.44916991353966,94.47358614737459 120.79055000271183,95.0584806043189 121.384900333127,95.64337379189965 121.58301710989326,96.28675483209372 122.84376023476943,96.9496306610672 123.38407871697564,98.4313472071517 124.23057767224964,99.36716398657882 123.36606810090598,103.63678681355668 122.46553729730658,104.78703893323836 122.19537805626169,106.75610320288979 121.8351657348685,107.39945771811472 121.02468801173382,107.6528999843722 119.40373256523162,107.4189532855089 118.03492574393749,108.45221634021436 117.22444802080281,108.66666666667152 113.94651589577552,108.25726135005243 112.88388954754919,107.80886433745036 111.55110395839438,106.0932514903543 111.3169659494888,104.20216558749962 112.1634649047628,102.85695207610843 114.09060082444921,101.66769975767238 114.61290869046934,100.2444892663625 114.73898300295696,98.45084342318296 115.49542887788266,95.60438095219433 117.58466034207959,94.2591245284566 118.03492574393749,91.9975188846729 117.74675588682294,91.72456519576372 116.34192783327308,91.56859153516416" stroke="#44ffeb" stroke-linecap="round" stroke-linejoin="round" stroke-width="0.5"><title>2020-01-17 4.0km</title><desc>1579254321000</desc></polyline><polyline fill="none" points="155.05174129339866,100.13432167549036 153.75606460729614,100.25120402692119 154.0080017405562,99.70575283630751 153.50412747380324,100.36808635306079 155.84354371274821,101.84859362136922 155.3756604648661,104.887516841467 156.38340899860486,105.39400237755035 156.45539103681222,106.67969429140794 155.77156167454086,108.51082596089691 155.2676874077879,108.62770649441518 155.77156167454086,108.54978614160791 155.19570536958054,108.66666666665697 155.84354371274821,108.54978614160791 155.3396694457624,108.66666666665697 155.77156167454086,108.54978614160791 155.3756604648661,108.66666666665697 155.77156167454086,108.54978614160791 155.3756604648661,108.58874631943763 155.7355706554372,108.51082596089691 155.12372333160602,107.41993975863443 156.05948982713744,107.2640986921906 155.84354371274821,106.25113066117046 156.38340899860486,105.8225666899234 155.30367842689157,104.26414937380468 155.69957963656634,101.73171161668142 154.07998377876356,100.52392941512517 149.61709741526283,99.3940661936067 147.9615105385892,99.35510535055073 147.38565423362888,100.64081168203847 145.98200449021533,100.09536088607274 145.19020207086578,98.45900518295821 146.59385181427933,96.82264450768707 146.5578607954085,94.95251193252625 147.45763627183624,93.23821803298779 142.95875888923183,91.09534298357903 138.2799264115747,89.84857539425138 139.10771985002793,86.53683496636222 136.15645628701895,85.75759896423551 135.54460896318778,84.66666666665697" stroke="#4dd2ff" stroke-linecap="round" stroke-linejoin="round" stroke-width="0.5"><title>2020-01-14 1.8km</title><desc>1578998916000</desc></polyline><polyline fill="none" points="164.66666666668607,88.26688095864665 165.26989826449426,87.8351984514884 166.13165768998442,87.60185607279709 166.41172950324835,87.33351191837573 166.4440454817377,86.98349713037896 167.80131657689344,87.43851620607893 168.7277079593041,87.48518475639867 169.37402752839262,87.95186951372307 170.0526630759705,89.51525357435457 170.56971873127623,90.00526634290873 170.96828246559016,90.04026719776448 170.49431478156475,91.72029926534742 170.61280670255655,92.85197763233737 171.16217833629344,93.50531409191899 171.26989826449426,94.64864650501113 171.07600239373278,94.95197822895716 171.19449431472458,95.89696954500687 170.75284260918852,96.8302888477192 171.39916217839345,98.03192946904164 170.65589467383688,99.38522271388501 170.92519449430984,99.70021174830617 171.19449431472458,99.71187799698964 171.3668461998459,99.51355165426503 171.93776181928115,99.52521791649633 172.42250149609754,100.12019616736507 172.82106523035327,100.14352860291547 173.25194494309835,100.55184567681863 173.61819269892294,100.50518092086713 173.87672052666312,100.87849858916888 174.05984440457541,100.61017660271318 175.0831837223377,101.04182479642623 175.5140634350828,100.97182787077327 176.6451226810459,101.24014925355732 177.20526630757377,101.0768232478149 177.66846199875,101.22848311581765 177.61460203467868,101.98678030945302 176.98982645123033,102.72174186818302 177.1298623578623,103.28171032431419 176.94673847995,103.91167250597209 177.02214242966147,104.77495000495401 178.2609216038254,105.69655194877123 178.83183722320246,105.29991378507111 179.6505086774705,105.34657714923378 180.80311190901557,105.0082674521691 181.90185517654754,105.19492116618494 182.8282465589,105.7548810080043 183.22681029321393,105.78987843333744 183.51765409938525,105.49823298925185 183.4314781567664,105.77821262572252 184.09934171155328,105.7548810080043 184.31478156795492,105.89487066368747 184.22860562539427,106.34983620297862 184.97187312989263,105.40490633541776 186.35068821063032,104.87994289811468 186.29682824655902,104.55329811644333 187.23399162181886,103.81834493110364 187.42788749252213,103.04839037131751 187.84799521247623,102.93173026783916 188.1172950329492,102.5350852827396 188.66666666668607,102.27843212381413" stroke="#45ffef" stroke-linecap="round" stroke-linejoin="round" stroke-width="0.5"><title>2020-01-12 3.8km</title><desc>1578801197000</desc></polyline><polyline fill="none" points="31.069979296065867,124.07565572022577 23.258799171773717,123.23651789722499 22.54327122156974,122.78467380013899 21.887370600365102,123.1719687685254 20.33706004137639,122.75239920424065 15.59668737067841,122.68785000548814 12.973084886092693,121.17094114507199 12.019047619076446,121.2354905634129 12.317184264888056,123.88200867047999 11.959420289844275,126.04439595426084 11.959420289844275,125.68937786575407 11.333333333372138,125.88302413080237 14.195445134537295,123.20424333401024 14.910973084857687,123.13969420071226 29.2513457556488,125.14071299138595 30.235196687397547,124.78569418357802 30.265010351897217,123.97883220590302 31.994202898582444,124.14020471816184 33.33581780537497,125.26981066956068 34.647619047551416,124.68887082327274 35.33333333337214,121.94553354821983 35.06501035194378,120.81591917743208 33.81283643876668,120.62227071236703" stroke="#4dd2ff" stroke-linecap="round" stroke-linejoin="round" stroke-width="0.5"><title>2020-01-07 2.0km</title><desc>1578390268000</desc></polyline><polyline fill="none" points="66.0,127.64033437072067 63.91603053442668,126.62255558610195 62.67938931309618,126.89561848592712 54.48091603058856,124.41322042210959 52.48854961828329,126.15090096995118 48.66412213735748,128.01269170141313 47.175572519074194,128.43469618316158 45.43511450383812,128.310577272292 44.015267175622284,123.3954319767654 43.55725190846715,122.94859706261195 43.21374045801349,121.5584402406239 42.80152671749238,121.28537305409554 42.916030534310266,120.49099453684175 42.0,118.80293402448297 42.57251908397302,118.23197048349539 42.984732824377716,118.38091758661903 43.07633587787859,118.97670534660574" stroke="#4dd2ff" stroke-linecap="round" stroke-linejoin="round" stroke-width="0.5"><title>2020-01-03 1.6km</title><desc>1578051310000</desc></polyline><polyline fill="none" points="92.22849107051297,135.33333333333303 92.24378174048616,135.30022789055147 92.29553477730951,135.29768131544915 92.31905888496112,135.26457580559054 92.363754689497,135.27985527941837 92.34493540338008,135.3167806197289 92.41315531556029,135.3065943266929 92.44373665550665,135.18690494182647 92.40374567250547,135.17289868400348 77.23892967641586,111.91983717722633 77.16953355885198,111.9058123152272 77.14718565658404,111.88286251674799 77.14718565658404,111.60491256245768 77.06720369056711,111.51821167136222 77.08014194978023,111.49398634542558 77.06014645827963,111.45318572049473 77.07426092286914,111.3409835102866 77.06014645827963,111.33333333333303 77.06367507442337,111.36010893800812 77.00486480530526,111.45318572049473 76.9989837783869,111.5143866221315 76.9542879738583,111.54881203502737 76.92017801776092,111.61001260147077 76.92370663391193,111.67376296339626 76.97193105459155,111.76046308208424 76.94252592003613,111.76046308208424 76.9154731962335,111.79998799332407 76.88959667782183,111.79233801748433 76.90841596393875,111.80508797535458 76.89312529396557,111.8191129182569" stroke="red" stroke-linecap="round" stroke-linejoin="round" stroke-width="0.5"><title>2020-01-02 25.8km</title><desc>1577967091000</desc></polyline><polyline fill="none" points="107.58294009976089,111.33333333332848 107.20394776551984,111.49744279532752 107.37449431593996,112.1538796932291 107.99983166740276,111.88720238678798 108.81466518575326,112.87185580990626 111.78975500899833,113.87701931860647 111.86555347568356,114.71807176082802 111.1265184241347,117.13864779300638 111.41076267475728,116.85146188661747 112.62353814404923,116.87197517527966 115.80707375099882,118.34892805952404 117.00089960370678,118.57457296158827 116.73560496978462,119.60022934398148 117.32304308773018,120.50280389151885 117.360942321131,121.1797329167166 120.31708252767567,122.20537987571151 120.82872217870317,123.21051029617956 122.19309458171483,124.03102228381613 122.59103653265629,125.42588721403445 123.46271890110802,126.4310062192526 122.6289357659407,130.6565695978352 121.41616029664874,132.19498723295692 121.22666412964463,133.95902918414504 120.84767179540358,134.53336605643563 119.72964440961368,134.53336605643563 118.72531472402625,133.79493272132822 118.02417890587822,133.6308361635165 117.2093453874113,134.02056533323776 116.50820956926327,135.04616585250187 115.06803869944997,135.33333333332848 113.38152281241491,134.90258200309472 112.33929389342666,135.1897496292804 111.71395654208027,134.6154140861181 111.03177034063265,134.73848608612025 110.06533988844603,133.3641790545953 110.02744065504521,131.02579059131676 110.74752609001007,130.1027372062381 112.86988316127099,128.64635797808296 114.40480211458635,125.13870970105927 115.21963563305326,122.14384116277506 116.79245381988585,120.8310121055838 117.32304308773018,120.74896008767246 117.0387988371076,120.1130561439204" stroke="#46fff5" stroke-linecap="round" stroke-linejoin="round" stroke-width="0.5"><title>2019-12-27 3.5km</title><desc>1577439449000</desc></polyline><polyline fill="none" points="138.68483139539603,111.33333333332848 138.68483139539603,112.05590313837456 137.76479785947595,112.60271143459249 138.55855228251312,112.7589421728917 138.97346936736722,113.22763384510472 139.3523067056667,113.07140337812598 139.3883864522213,113.65726716295467 140.0558617626084,113.65726716295467 140.4888187206816,114.08689979687915 142.04024782055058,114.20407221472124 145.23330538650043,115.53202272822091 144.67406931566074,116.2350527079252 144.43955096334685,117.0943090851506 144.25915223080665,117.87544887253898 144.54779020289425,118.42224537863513 145.14310602028854,118.83234203126631 146.33373765507713,118.65658639928733 148.0655654874863,119.37913659893093 147.86712688172702,120.86328769905958 148.2459642200265,121.19526774933911 148.3902832060121,121.87875480260118 150.69938698259648,122.50365573687304 151.38490216620266,122.9528023898165 151.78177937783767,123.85109345379169 152.84613189974334,124.43693384162907 153.38732809748035,125.86247347461176 154.23520214040764,126.87792177293159 153.53164708346594,130.82251161897148 152.57553380099125,131.87699617167527 152.08845722314436,134.14217128547898 151.78177937783767,134.49366227233259 149.2020775025012,134.27886227917043 147.8851667549461,135.11853400815744 146.65845537360292,135.05995234433794 145.81058133067563,135.33333333332848 144.67406931566074,135.0013706678874 143.69991615996696,135.15758844360244 143.03244084957987,134.68893484513683 142.52732439851388,134.80609832101618 141.7155301020248,133.73209788907843 141.26453327061608,132.73620276224392 141.5892509892583,130.93967677262845 144.02463387860917,129.0650282122515 145.14310602028854,126.29208668231149 145.82862120401114,125.17899650773325 145.90078069700394,125.47191541970824 146.04509968298953,125.31569203957042 146.24353828874882,124.14401380666823 146.67649524693843,123.46053248894168" stroke="#46fff7" stroke-linecap="round" stroke-linejoin="round" stroke-width="0.5"><title>2019-12-24 3.5km</title><desc>1577181063000</desc></polyline><polyline fill="none" points="165.44216917571612,111.63447114106384 165.55344052624423,111.36344712393475 166.13761511689518,112.17651864583604 168.83594536874443,113.29072518859175 171.47863994527142,113.89299775354448 173.39807074307464,115.54924281308195 176.87530044896994,117.47650149441324 177.45947503950447,118.92193964894977 177.15347882534843,120.42759905537241 178.26619233132806,120.99974820174975 177.98801395494957,122.80652981635649 178.82254908431787,123.64969188597752 178.79473124665674,124.49285224758205 181.8546933879843,125.45646199805196 183.1343139198143,126.35984411326353 183.9688490490662,127.6848010023532 185.8882798468694,128.9194161260384 186.58372578804847,131.05739950863062 187.75207496923395,132.2016677938518 187.16790037869941,135.33333333334303 187.8911641575396,132.05110635707388 186.63936146337073,130.90683765796712 185.72137282090262,128.49784064179403 183.8575776986545,127.41378743632231 183.49594580905978,126.1189424075128 181.91032906319015,124.91443178788177 181.88251122552902,121.57189656162518 180.35253015498165,120.90940891514765 177.96019611717202,120.7287302830664 176.87530044896994,119.70488321999437 175.51222640427295,119.97590180535917 174.0935166842537,118.86171315933461 172.03499669826124,119.3134116185538 169.8930231994018,118.31967436129344 171.005736705265,112.50776955118636 169.19757725810632,111.78503996317158 166.02634376625065,111.33333333334303" stroke="#48f9ff" stroke-linecap="round" stroke-linejoin="round" stroke-width="0.5"><title>2019-12-18 2.9km</title><desc>1576665843000</desc></polyline><polyline fill="none" points="11.333333333372138,143.86043925001286 12.550956831430085,143.06263092544395 14.601691143820062,143.3748169495957 15.819314641878009,144.2419992836658 19.984868714003824,144.55418453976745 20.529595015686937,145.42136474041035 22.83667111711111,146.32323048493708 26.137071651173756,148.50851352213067 25.976858032983728,152.0118830028514 28.79661771247629,153.5380953650747 28.476190476329066,155.2724216975912 29.14908767247107,156.6598782465735 33.53894080989994,156.93736907458515 34.9167779260315,156.00083688646555 35.33333333337214,152.70561649708543 34.43613707169425,152.39343654894037 33.12238540279213,154.1971401104238 28.95683133066632,153.7809014293889 28.380062305368483,155.16836229455657 28.95683133066632,156.45176002019434 33.57098353363108,156.86799638261436 34.72452158422675,156.1395825111831 35.20516243879683,155.2030487646989 35.17311971518211,152.56686987853027 34.211838006274775,152.49749655419146 33.18647085002158,154.1971401104238 31.840676457504742,153.98902081506094" stroke="#4dd2ff" stroke-linecap="round" stroke-linejoin="round" stroke-width="0.5"><title>2019-12-13 1.9km</title><desc>1576234111000</desc></polyline><polyline fill="none" points="54.45896697323769,139.73253883887082 63.426475527114235,148.57344991568243 50.92845179454889,161.15926330452203 50.50478997314349,162.0 60.62560015206691,148.93013907733257 60.460842777159996,149.9747266873892 59.09571024135221,151.70720662627718 58.71912195556797,154.5097296643071 58.342533669783734,154.993799567339 57.21276881266385,155.37595954732387 55.094459705404006,155.0957089358999 53.32920211611781,156.49695976360817 52.31712109816726,156.75173204258317 49.68100309802685,156.19123278564075 47.63330429443158,156.24218730037683 46.38585559790954,155.4778688052902 44.573524472885765,152.57344340044074 44.73828184790909,150.56071350263664 45.39731134788599,149.31230563553981 47.56269399088342,148.06389334387495 48.55123824090697,146.68808691811864 49.04551036597695,144.95558229336166 48.88075299083721,143.88550165030756 50.245885526645,139.1465340090217 52.505415241001174,138.0 55.165070009068586,138.53504966868786" stroke="#44ffea" stroke-linecap="round" stroke-linejoin="round" stroke-width="0.5"><title>2019-12-10 4.0km</title><desc>1575971978000</desc></polyline><polyline fill="none" points="86.63501067087054,138.8522936574591 89.46942603681237,139.46594413628918 90.94962072803173,140.5227847545175 91.5165038012201,141.8182635694975 93.46910105342977,142.87509891248192 94.63436070387252,145.67058742669178 96.1460488991579,147.20468993045506 94.82332172826864,153.6478659180575 92.6187764435308,156.71601400250802 92.17786738672294,159.75005191308446 91.17007525661029,160.6023062398599 90.2882571426453,160.67048651943333 88.17819237022195,159.47733020302258 86.32007563009392,159.3409692888672 84.46195889019873,161.42046894386294 81.81650454853661,162.0 79.20254371105693,161.38637885960634 77.40741397917736,161.79545970860636 76.33663484093267,160.77275692025432 75.36033621488605,160.97729765542317 73.56520648289006,158.65916412632214 73.18728443421423,156.95464690530207 73.4392324667424,155.0455802998913 74.63598562113475,155.35239509725943 75.1713751902571,154.70467473525787 77.18695945071522,154.09104409764404 77.78533602785319,153.23877799784532 79.23403721500654,147.85242059934535 80.43079036963172,145.26149258232908 81.47007600381039,139.8409523689188 84.68241341866087,138.0" stroke="#49edff" stroke-linecap="round" stroke-linejoin="round" stroke-width="0.5"><title>2019-12-03 2.4km</title><desc>1575366158000</desc></polyline><polyline fill="none" points="117.13833710097242,138.3582183609251 121.19959557778202,139.9864800455107 121.86143029248342,141.45191052599694 123.93718462518882,142.6242514757032 124.74943632062059,145.06661864870694 126.0430223539006,146.40177376830252 124.99010348960292,152.8169760745368 123.18509972211905,155.29185202231747 122.49318161117844,159.4600333958806 120.98901180492248,160.24156310773105 118.2514227576321,159.915925892652 115.69433408684563,161.83718205764308 113.52832956588827,162.0 110.88099070696626,161.12078241223935 108.17348505568225,161.18590969979414 106.90998241840862,160.30669052244048 104.8943948779488,157.47363927264814 104.62364431284368,155.51980043860385 105.07489525468554,153.33800372038968 106.2782310997136,152.1331263742759 108.56456920527853,150.8956814194098 109.52723788120784,149.5605396271567 111.6631590060424,140.116740725789 112.92666164343245,138.8141322262527 114.88208239164669,138.0 117.198503893218,138.45591422810685" stroke="#49f0ff" stroke-linecap="round" stroke-linejoin="round" stroke-width="0.5"><title>2019-12-02 2.5km</title><desc>1575284482000</desc></polyline><polyline fill="none" points="147.04782983008772,138.03287757912767 150.78357096307445,139.05208135346766 151.75547109532636,139.77538587123854 152.36290867789648,141.2548687994131 154.48894021683373,142.40557441380224 155.4912122283131,145.16725600187783 156.82757490989752,146.74535223230487 155.4912122283131,153.35357068796293 154.24596518394537,154.37274010767578 153.45629632647615,156.0494332133385 152.78811498568393,159.7973130872124 151.81621485343203,160.22470093463198 148.74865506135393,159.86306508991402 146.07592969783582,161.8027448907087 143.28171681787353,162.0 141.52014782838523,161.27673084737035 138.756306827534,161.1781031465216 137.02510971715674,160.1260730055219 135.17242509010248,157.06859658882604 135.26354072755203,153.71521171135828 136.3569283762481,152.26864589136676 138.84742246498354,151.01933534207637 139.84969447623007,149.8028980868985 140.70010709180497,147.2385061806708 140.63936333358288,145.13437893879018 142.24907292751595,139.61099858192028 144.5573357414687,138.09863273025258 146.5922516430728,138.0" stroke="#49f0ff" stroke-linecap="round" stroke-linejoin="round" stroke-width="0.5"><title>2019-11-28 2.5km</title><desc>1574935151000</desc></polyline><polyline fill="none" points="177.48002205323428,138.0 182.26978155144025,139.7935224341927 183.11326121131424,141.45660049674916 185.19183608796448,142.5979250286182 185.91481865383685,144.84795635647606 187.51140515308362,146.73927835020004 186.2763099365402,152.8371072988375 184.22785933350679,155.80447016266407 183.68562240921892,159.55440628671204 182.72164565499406,160.206565907225 179.25735419394914,159.91309419472236 176.48592102527618,161.83696083177347 175.1002044409979,162.0 172.2383984514745,161.1521956814977 168.77410699042957,160.9565483047627 166.7557806611294,158.41312468092656 165.82192818040494,156.42402697744546 166.42441365192644,153.16319208516506 169.88870511262212,150.84798499467433 171.06355178216472,149.3153765775496 171.60578870645259,147.00014972666395 171.3949187914841,145.72840034068213 172.840883922996,139.89135072537465 175.4918199973181,138.16304778881022 177.0884064967977,138.09782868032926" stroke="#49f0ff" stroke-linecap="round" stroke-linejoin="round" stroke-width="0.5"><title>2019-11-26 2.5km</title><desc>1574762192000</desc></polyline><polyline fill="none" points="24.506586036644876,164.8946238384524 28.928846226772293,166.49032080869074 29.71101469581481,168.02088197562261 31.907103089382872,169.32348312507384 32.839688571635634,171.96123890866875 34.16335828846786,173.23126395896543 32.86977197427768,179.97210617669043 30.97451760713011,182.2190311551676 30.463099762098864,185.83362607081654 29.590681085013784,186.81053863459965 25.9505893640453,186.5174650880217 23.814667775528505,188.1456490441633 22.06983042182401,188.66666666665697 18.880989740602672,187.78744907892542 15.932816280517727,187.7223217819119 14.518896355875768,186.6477200211666 12.77405900193844,184.01005028071813 12.50330837816,182.9028756621119 12.864309209864587,180.2977481727139 14.03756191348657,178.89748591874377 17.316652802517638,176.4551576116064 18.098821271560155,174.24076849455014 18.489905506023206,169.97478228632826 20.355076470645145,165.80645137117244 22.16008062986657,164.66666666665697 24.235835412866436,164.79692792176502" stroke="#49f0ff" stroke-linecap="round" stroke-linejoin="round" stroke-width="0.5"><title>2019-11-21 2.5km</title><desc>1574331730000</desc></polyline><polyline fill="none" points="54.93767469318118,164.79763874193304 59.172334598144516,165.84541397957946 60.019266579067335,166.63124381602393 60.472980140242726,168.0064427468169 62.46931980969384,168.98872513935203 63.558232356910594,171.87007452643593 64.88912546972279,173.04880308022257 63.5279847860802,179.99014230506145 61.713130541029386,182.28207056198153 61.07793155522086,186.01461460185237 60.04951414978132,186.80040942580672 56.41980565979611,186.60396084777312 54.39321841974743,188.30651235961705 52.82034474075772,188.66666666665697 49.40236924611963,187.78265103788 46.95231601537671,187.84813373631914 45.68191804399248,187.12782353328657 43.44359780848026,184.0828631951881 43.110874530277215,183.00238847490982 43.3528550962219,180.80868944321992 44.29052978940308,179.1715936869732 47.103553869063035,177.59997619109345 47.920238279388286,176.65045464318246 48.857912972569466,173.70365095045418 48.67642754805274,172.36121179693146 49.64434981206432,167.35158663414768 50.76350992976222,165.91089985135477 53.546286438708194,164.66666666665697 58.90010646136943,165.68169925856637 59.958771437522955,166.5330151610251 60.44273256964516,167.74450041545788 62.46931980969384,169.05421055629267 63.28600422013551,171.31345164243248 64.76813518675044,172.95057581795845 64.6471449037781,173.6709085793991" stroke="#47fcff" stroke-linecap="round" stroke-linejoin="round" stroke-width="0.5"><title>2019-11-20 3.0km</title><desc>1574243958000</desc></polyline><polyline fill="none" points="85.57822519133333,165.3351194007555 89.22445928968955,166.25821912602987 90.0183973594103,166.86300755117554 90.75352520192973,168.3908903961128 92.8118831604952,169.56862980150618 93.69403657142539,172.11508260469418 95.13488714245614,173.80209947156254 93.75284679885954,180.16814260656247 92.01794509077445,182.07793758975458 91.45924793044105,185.8975026939006 90.95936099765822,186.50226412899792 89.90077690465841,186.82055928735645 87.16610133100767,186.5340936551802 84.69607178051956,188.28471405099845 83.19641098205466,188.66666666665697 80.05006381648127,187.7436139448837 77.81527517561335,187.8072728155239 76.10977858130354,186.8842182913504 74.198446190916,184.2105321934214 74.28666153200902,180.67742207914125 75.34524562512524,179.18141195143107 78.13873142621014,177.49441570660565 78.99147972348146,176.0938856091525 79.40315131517127,172.46521871269215 81.60853484238032,166.7356837412226 83.3728416642407,165.49427466405905 85.78406098717824,165.39878151295125 89.31267463078257,166.3537120905239 91.22400702093728,168.613706201053 89.87137179088313,166.7356837412226 87.43074735405389,165.20779514874448 85.63703541876748,164.66666666665697" stroke="#48fbff" stroke-linecap="round" stroke-linejoin="round" stroke-width="0.5"><title>2019-11-14 3.0km</title><desc>1573726346000</desc></polyline><polyline fill="none" points="116.54488916753326,164.66666666665697 120.08868998242542,165.65029819734627 121.08822354546282,166.37162662987248 121.66371256683487,167.74870499479584 123.87480196414981,169.0602043097606 124.60173546464648,171.51925529693835 126.29791363235563,173.19140234793304 124.81375773553737,179.84714221363538 123.02671288023703,181.91269678456592 122.29977937974036,186.01099148389767 120.87620127468836,186.79785982647445 117.63528941827826,186.6011428689235 114.57611093716696,188.6338806481217 110.54768778861035,187.7486572516791 108.7606429331936,187.91258764074882 106.54955353599507,186.89621827332303 104.36875303438865,182.9618637560052 104.70193088881206,180.47008823417127 105.48944218095858,179.25698203608044 108.6697762456024,177.3553495707456 109.45728753774893,176.10944811272202 110.18422103836201,173.74878332746448 109.97219876735471,172.24057438923046 110.7294211636763,171.12580803554738 112.30444374808576,166.10932551446604 114.45495535363443,164.8633931435761 116.66604475094937,164.76502991575398 119.78580102394335,165.55193514036364 120.96706796227954,166.37162662987248 121.78486815013457,167.87985509709688 123.69306858896744,168.8634796544502 124.5108687770553,171.42089351359755 126.11618025728967,173.12582806998398 124.78346883971244,179.9782888153859 123.14786846365314,181.78155074245296 122.1180460046744,186.2404948915646 121.36082360823639,186.765073672781 118.2410673352424,186.53557053068653 114.06119970767759,188.66666666665697 110.24479883001186,187.7814433342428 108.5486206621863,188.01094584565726 105.97406451473944,186.0437776921026 104.39904193032999,182.99465018467163 105.18655322259292,179.78156889855745 106.24666457739659,178.63403434838983 108.39717618282884,177.55207054057973 109.76017649634741,175.42092215368757 110.21450993418694,173.5520607070357 109.97219876735471,172.1749999737658 110.7294211636763,170.86350967150065 111.85011031024624,166.50277713060495 113.6674440613715,165.12569498002995 116.54488916753326,164.79781766067026" stroke="#41ffd1" stroke-linecap="round" stroke-linejoin="round" stroke-width="0.5"><title>2019-11-12 5.0km</title><desc>1573552434000</desc></polyline><polyline fill="none" points="147.11688257928472,169.70860170616652 150.30118610325735,171.0462459413684 151.10914371383842,172.43533270581975 152.60624163923785,173.23276895220624 153.53301654569805,175.49644919877755 154.60237220663112,176.4996665181243 153.6043069229927,181.30992562969914 152.08344553841744,183.496385536273 151.53688597830478,186.60885233496083 150.75269182678312,187.30336600285955 149.68333616585005,187.5605929431622 149.08924968738575,187.09758431679802 147.97236710821744,187.09758431679802 146.40397880529054,188.3579952759028 145.35838660330046,188.66666666665697 142.53053496638313,188.02360096690245 140.7958024495747,188.02360096690245 139.56010257464368,187.53487025751383 138.32440269959625,186.2230108223448 137.39762779336888,184.39668864980922 137.84913351689465,181.7472186863597 141.03343704086728,179.6121945490013 142.88698685343843,175.34210782157606 144.28903094225097,170.91762652204488 145.14451547106728,170.1716329724586 146.33268842787948,170.09446113661397 146.07129037741106,169.7600496544619 146.80795761058107,169.8372215628624 146.78419415140525,169.11694976635044 146.04752691823523,167.77929827338085 146.26139805046842,166.51881437681732 143.8137617596658,165.36122318860725 142.31666383414995,165.46412033576053 139.8452640841715,164.66666666665697" stroke="#48faff" stroke-linecap="round" stroke-linejoin="round" stroke-width="0.5"><title>2019-11-11 2.9km</title><desc>1573466455000</desc></polyline><polyline fill="none" points="176.68162716785446,164.66666666665697 181.7382766113151,165.99463550906512 182.96503771899734,168.03516532244976 184.99966589733958,169.23356738619623 185.9571379814297,171.72752896518796 187.45318811247125,173.28219928441104 186.1366639971966,180.05143004783895 184.40124584489968,182.0595075317833 183.80282579245977,185.7841435408045 183.14456373464782,186.8205584861862 179.22491239092778,186.56145497472608 176.29265413386747,188.60189106993494 174.2281049528392,188.50472765712766 172.25331877963617,187.79219531928538 169.68011255410966,187.85697103326675 168.0344574098708,186.8205584861862 165.76046121038962,182.90160186137655 166.119513241807,180.89352815356688 166.8974593100138,179.50082658408792 169.65019155154005,177.81662355104345 170.60766363551375,176.6506331252749 171.5052937141154,173.89758812784567 171.41553070617374,172.24575300473953 172.34308178746141,170.88541362175602 173.36039587669075,166.5776449761761 175.63439207628835,165.18489887868054 178.11783529398963,164.9905618694902 181.31938257464208,165.80029885133263 182.36661766655743,166.61003436869942 183.054800726939,168.09994389445637 185.05950790259521,169.23356738619623 186.16658499964979,171.92186305031646 187.57287212309893,173.37936600015382 186.22642700490542,180.01904162749997 184.52092985541094,181.89756613300415 183.71306278451812,186.1404114488396 182.66582769260276,186.88533434073906 179.31467539886944,186.59384292183677 176.7713901757961,188.47233984817285 175.15565603412688,188.66666666665697 172.4926868006587,187.92174673778936 169.50058653834276,187.727419596049 168.0344574098708,186.78817055549007 166.119513241807,184.16474038671004 165.82030321564525,182.15667234294233 166.2990392575739,180.2781489243498 166.98722231795546,179.27410731400596 170.60766363551375,176.87735372356838 171.38560970360413,174.3186431650538 171.41553070617374,172.24575300473953 172.22339777706657,170.91780270278105 173.27063286898192,166.73959191553877 175.75407608656678,165.15250938310055" stroke="#41ffd1" stroke-linecap="round" stroke-linejoin="round" stroke-width="0.5"><title>2019-11-06 5.0km</title><desc>1573034903000</desc></polyline><polyline fill="none" points="23.963333333376795,191.36660017381655 30.02333333331626,192.34085030850838 30.863333333283663,194.1269700639532 33.263333333306946,195.4259617861244 33.47333333338611,197.6667136728065 35.33333333337214,199.35538886365248 32.603333333390765,204.06416113502928 31.823333333362825,206.59713544594706 29.783333333325572,208.7404102400469 29.27333333331626,212.3449856856605 28.703333333367482,213.22176993225003 25.073333333362825,213.1568230096891 22.433333333348855,214.94285995600512 20.69333333335817,215.26759318311815 17.63333333330229,214.32586617773632 14.723333333269693,214.29339279752458 11.54333333321847,210.72130663404823 11.363333333283663,208.188355589431 12.353333333390765,206.04507816009573 15.263333333306946,204.32395402964903 16.163333333213814,203.0899364411307 16.97333333338611,200.39457043938455 16.763333333306946,199.09559309386532 17.873333333292976,196.75742440047907 18.683333333348855,193.12024889391614 21.563333333353512,191.65887543626013 26.753333333414048,192.5357000817603 27.923333333455957,193.57489744381746 28.46333333326038,194.74399160064058 30.35333333327435,195.71823440564913 31.19333333335817,198.12135761827813 32.87333333340939,200.06982645537937 31.493333333404735,206.62960938276956 29.813333333353512,208.48061990080168 29.003333333297633,212.86456174217165 28.04333333321847,213.5140309673152 24.77333333331626,213.22176993225003 21.923333333339542,215.17017323963228 20.123333333292976,215.30006649286952 14.423333333223127,214.22844602999976 12.533333333325572,212.24756510814768 11.333333333372138,209.64967524367967 11.723333333269693,206.82445295451907 15.173333333339542,204.35642813096638 16.403333333320916,202.70024597161682 17.09333333338145,200.32962166145444 16.85333333327435,198.83579717378598 17.813333333353512,196.95227225671988 18.683333333348855,193.21767362192622 19.5533333333442,192.47075016671442" stroke="#41ffd1" stroke-linecap="round" stroke-linejoin="round" stroke-width="0.5"><title>2019-11-04 5.0km</title><desc>1572862173000</desc></polyline><polyline fill="none" points="54.30288880527951,191.33333333334303 58.99766528548207,192.5136909141729 59.96690946200397,193.3661694773764 60.572687072330154,194.77603435172932 62.783775350195356,196.12032003124477 63.41984184097964,198.38264546674327 65.02515250851866,200.02200466845534 63.48041960212868,206.84167531409184 62.117419978720136,208.34985785302706 60.90586475795135,213.16945102487807 59.93662058142945,213.59567108436022 56.544265963486396,213.43174033958348 53.575955672655255,215.33333333334303 46.76095755631104,214.64482644639793 45.24651353049558,213.69402950259973 43.429180699400604,211.16949000992463 42.97484749148134,209.39902535552392 43.217158535611816,207.49740746931639 44.45900263695512,205.9892220943002 47.821068374440074,203.75972147873836 48.82060143142007,200.71053376517375 48.97204583405983,197.66132553954958 50.00186777173076,196.05474521260476 50.637934262515046,193.46453228540486 52.18266716902144,192.18581411676132 54.21202216367237,191.6284230167803" stroke="#49f0ff" stroke-linecap="round" stroke-linejoin="round" stroke-width="0.5"><title>2019-10-29 2.5km</title><desc>1572345074000</desc></polyline><polyline fill="none" points="85.69508384889923,191.33333333334303 89.74825744982809,192.51208064626553 90.74642706790473,193.4943677286501 91.13964540243614,194.6403666304832 93.13598463858943,195.6553918061254 94.1644018208608,198.4057711645146 95.61628490185831,199.84643939690432 94.2853920776397,206.65680897195125 92.44029066234361,208.8505119700858 91.98657719953917,212.41934935748577 91.38162591587752,213.33611038324307 87.23770962236449,213.2706275144301 84.27344833209645,215.33333333334303 77.31650856940541,214.4165763517667 75.9553681811085,213.49981751403539 74.59422779281158,211.60081115871435 73.71704843139742,209.6690551416541 74.20100945828017,207.2134211868397 75.47140715399291,205.64180846518138 77.61898421135265,204.52857948612655 78.64740139362402,203.34986346552614 79.55482831923291,200.5340294368507 79.37334293406457,198.79868113721022 81.21844434947707,193.134196045954 82.97280307218898,191.9227073735383 85.60434115631506,191.5625344401633" stroke="#49f0ff" stroke-linecap="round" stroke-linejoin="round" stroke-width="0.5"><title>2019-10-23 2.5km</title><desc>1571825161000</desc></polyline><polyline fill="none" points="118.02862959285267,191.56410858174786 120.34323429036885,192.19049795286264 121.71372391399927,194.30043476316496 123.93696263653692,195.61914030907792 124.69834576069843,198.02576809417224 126.312477984,199.90490698127542 124.91153303545434,206.53128227966954 123.08421353751328,208.77301927900407 122.17055378842633,213.0256959378894 120.83051948994398,213.4542580517882 117.9068082930753,213.1245949229924 115.50083762058057,215.0036715634924 113.88670539739542,215.33333333334303 110.44525367615279,214.34434730856447 108.43520222837105,214.44324600763503 106.91243597993162,213.68502210004954 104.75010790722445,210.75101335797808 104.35418868274428,208.4763194268744 105.54194635641761,205.7730452111282 109.1661300273845,203.26755723185488 109.92751315166242,201.42139938139007 109.98842380160931,198.8499527705426 111.11527082545217,196.27849165114458 111.78528797463514,192.84985425547347 114.37399059685413,191.33333333334303 117.66316569328774,191.53114069628646" stroke="#49efff" stroke-linecap="round" stroke-linejoin="round" stroke-width="0.5"><title>2019-10-22 2.5km</title><desc>1571739811000</desc></polyline><polyline fill="none" points="149.95376054011285,192.18932217510883 151.5656782987062,192.91361916830647 152.3564304067986,194.4938995159464 154.4245513046626,195.61326144216582 155.42819821077865,198.31288770245737 156.85763471387327,199.7285389752942 155.54985238134395,206.54335674195318 153.72503982437775,208.7161757373251 152.9951148016844,212.7654925530078 152.05229498050176,213.42391464678803 148.25060215359554,213.35807248030324 146.18248125573155,215.00412378634792 144.99635309365112,215.33333333334303 141.49879569292534,214.44446701012203 138.54868205916137,214.37862499125185 137.18007264158223,213.3909935647971 135.44650071242359,210.72437801005435 135.14236528612673,207.4980815173476 136.29807990568224,205.72031653524027 139.15695291152224,203.97546637506457 140.09977273258846,202.82320316837286 141.3163144371938,196.40339761495125 142.68492385500576,192.88069660277688 143.74939784652088,191.8600958880561 145.30048851983156,191.33333333334303 150.5316178498324,192.48562562980806" stroke="#49f0ff" stroke-linecap="round" stroke-linejoin="round" stroke-width="0.5"><title>2019-10-17 2.5km</title><desc>1571307242000</desc></polyline><polyline fill="none" points="168.13284778618254,191.67736137118482 169.08624266658444,191.67736137118482 169.34795890829992,191.33333333332848 170.41351789224427,191.65712443951634 170.56307003030088,192.16304729240073 172.97459825722035,192.7499166551861 177.66679659020156,195.52235182256845 178.09675898728892,196.5341826297954 178.1154530046042,197.58648278645705 178.63888548791874,197.95073961059097 178.41455728071742,199.26610752630222 178.95668378134724,199.81248930376023 179.01276583317667,200.480287804603 179.48011626466177,200.60170554257638 179.72313848906197,200.50052409790806 181.51776414632332,201.20879344183777 182.11597269878257,201.73493522214994 182.43377099232748,202.54438218251744 183.5180239934707,203.05028534335725 184.2470906667877,204.7298772763752 185.2004855471896,205.7416747785319 184.35925477033015,209.97094872160233 183.23761373455636,211.2457890923979 182.7141812511254,213.87639372008562 182.11597269878257,214.2203940351028 179.96616071357857,214.05851158658334 177.92851283191703,215.33333333332848 175.72261879500002,214.74651134599117 173.94668715493754,214.72627608304902 172.9372102227062,213.9775703272171 171.96512132510543,212.50038823059003 171.72209910070524,211.79214747314109 171.85295722144656,210.57801628932066 172.638105946593,209.32340853086498 174.41403758642264,208.23068106044957 175.0122461388819,207.17842094408115 175.1617982769385,205.19530458188092 176.37690939905588,201.41115578215977 177.90981881460175,200.62194182707753 179.7044444718631,200.70288695058844" stroke="#46fff8" stroke-linecap="round" stroke-linejoin="round" stroke-width="0.5"><title>2019-10-15 3.4km</title><desc>1571132883000</desc></polyline><polyline fill="none" points="19.292586768977344,218.0 21.767808486474678,219.30539030235377 22.275546274730004,221.36652192409383 23.35448907467071,222.32837875460973 23.079464439419098,223.56504752777983 23.777603898197412,224.45819419273175 23.84107112174388,225.30553613509983 27.225989709724672,226.33608408944565 27.712571756797843,227.4353315429762 29.151162156602368,228.19106195317 29.785834391834214,229.88572358718375 30.928244415204972,231.35136957690702 29.933924580109306,235.8627685541578 28.74920307425782,237.30548664121307 28.304932509665377,239.8932026135153 27.90297342732083,240.48860329590389 25.491218933369964,240.4657032903051 22.529415168915875,242.0 20.01188196905423,241.24430254971958 18.255955451517366,241.33590233672294 17.30394709855318,240.8321031802625 16.81736505148001,240.16800306760706 15.738422251539305,238.31309537458583 15.886512439930812,236.18337314159726 16.986610980937257,234.99255446600728 18.509824345470406,234.1910393741564 19.18680806318298,233.25211911441875 19.694545851438306,231.48877354050637 19.546455663163215,230.43534162844298 21.00620180426631,226.19867788939155 22.592882392345928,225.30553613509983 24.243030203972012,225.46584381503635" stroke="#48fbff" stroke-linecap="round" stroke-linejoin="round" stroke-width="0.5"><title>2019-10-09 3.0km</title><desc>1570615998000</desc></polyline><polyline fill="none" points="55.163077568402514,242.0 54.4285022621043,241.2037171414122 54.591741219046526,239.8986934852146 55.02024348103441,239.34571566359955 56.18332104943693,239.01392848603427 56.162916179862805,238.59366420606966 54.81619478482753,238.63790257877554 54.06121460883878,238.26187620460405 52.75530295306817,238.74849848230951 50.490362424985506,238.63790257877554 50.4087429465726,236.49233405856648 50.08226503257174,235.89511125074932 50.22509911993984,233.9043600523146 50.87805494782515,231.58180044792243 50.81684033898637,230.2988551245362 51.204532861709595,229.30346276707132 50.81684033898637,227.46750828038785 51.12291338329669,227.1135880634247 50.95967442623805,226.11818523553666 51.510605906136334,225.41034123377176 50.93926955666393,221.78261475311592 51.469796166871674,221.3180856621766 53.7959513036767,220.98627873230726 57.75449601036962,223.99464826617623 57.4484229660593,222.7559114898031 57.69328140153084,220.85355585851357 57.346398617955856,220.36690482369158 56.44858435459901,219.76965021176147 55.75481878744904,219.76965021176147 54.306073044310324,220.411145859136 53.81635617336724,221.05264014733257 54.81619478482753,223.41952110742568 55.46915061271284,223.88404697435908 55.87724800524302,225.72002318812883 56.468989224289544,226.09606513549807 57.61166192300152,225.69790305907372 57.89733009773772,224.39281258231495 57.387208357220516,222.7780318338191 57.67287653195672,220.83143537389697 57.346398617955856,220.23418167835916 57.53004244458862,219.32723862852436 57.244374269736,218.17696548666572 56.87708661670331,218.0 55.9384626140818,218.37605153542245 55.14267269882839,219.7254090824863 53.83676104294136,221.03051967732608 54.81619478482753,223.55224285641452 55.38753113418352,223.8619267111062 55.9384626140818,225.8748640465201 57.570852183853276,225.52094196813414 57.89733009773772,224.72461577915237 57.325993748381734,222.46834687047522 57.61166192300152,220.89779682291555 57.305588878691196,220.36690482369158 57.509637575014494,219.52632392095984 57.305588878691196,218.11060344128055 55.795628526597284,218.39817219949327 55.02024348103441,219.8138913345174 53.7959513036767,221.05264014733257 54.857004523975775,223.57436314225197 55.448745743138716,223.99464826617623 55.85684313555248,225.83062380936462 57.53004244458862,225.54306211019866 57.91773496742826,224.79097637490486 57.46882783563342,222.822272517049 57.63206679269206,220.63235093967523 56.387369745760225,219.79177077391068 55.28550678619649,219.8360118934943 54.53052661009133,220.3226637816988" stroke="#42ffd7" stroke-linecap="round" stroke-linejoin="round" stroke-width="0.5"><title>2019-10-07 4.7km</title><desc>1570440244000</desc></polyline><polyline fill="none" points="73.81154299178161,222.632708542631 72.66666666674428,223.13763760746224 72.96348645468242,224.23929962684633 74.447585394606,223.13763760746224 76.14369846880436,223.68846885632956 76.4829210836906,225.11144736863207 84.49705535941757,227.77378569019493 91.70553592476062,232.08858613914344 92.42638398124836,237.18368505325634 93.91048292117193,237.3672914574272 94.63133097765967,235.57712674950017 94.46171967033297,233.7410551351495 96.66666666674428,234.2000735369511 85.17550058895722,227.40656727558235" stroke="#4dd2ff" stroke-linecap="round" stroke-linejoin="round" stroke-width="0.5"><title>2019-09-29 1.2km</title><desc>1569751752000</desc></polyline><polyline fill="none" points="107.31630487419898,218.0 107.81293495569844,218.46082043655042 107.24535771977389,219.2096519390616 107.52914633776527,219.93928060110193 108.46919613494538,220.28489347765571 108.89487906196155,220.13128781031992 109.1254573140759,220.40009766980074 109.5334034524858,220.28489347765571 109.69303455011686,220.74570994607348 111.3602926810272,221.57133745079045 113.16944512084592,221.9937505296257 116.43301422818331,224.16340711062367 116.92964430968277,225.27702926311758 116.94738109828904,226.1986440622568 118.75653353822418,226.98585416874266 119.60789939225651,228.02266391676676 120.03358231927268,229.52027084659494 120.92042175057577,230.691470377511 122.07331301126396,231.2866681585001 122.78278455632972,232.97625458713446 123.42130894691218,233.60984672505583 122.71183740184642,237.68016015124158 121.62989329564152,238.7745262280223 121.32836788898567,240.71365503898414 120.90268496191129,241.15523684759683 119.85621443297714,241.19363523098582 118.54369207465788,240.42566650723165 117.46174796839477,240.88644800805196 116.92964430968277,241.750411166533 115.58164837403456,242.0 114.25138922710903,241.69281371016405 113.1871819095104,241.86560604191618 112.45997357578017,241.3472287091572 111.82144918531412,241.38562706483935 111.37802946969168,239.2929085844662 111.50218698999379,238.1217470058764 112.81470934831304,237.315370456432 114.76575609733118,232.5154593550542 114.9431239835103,231.13306885889324 115.24464939022437,231.3634677749069 114.85444004042074,231.3634677749069 115.40428048779722,229.5586709131603 116.73453963483917,228.80986861293786 117.42627439118223,227.23545688568265 117.28438008221565,226.1986440622568 114.14496849535499,225.08502577710897 112.83244613697752,225.18102753748826 112.53092073037988,224.85462141055905" stroke="#45ffec" stroke-linecap="round" stroke-linejoin="round" stroke-width="0.5"><title>2019-08-22 3.9km</title><desc>1566467457000</desc></polyline><polyline fill="none" points="139.81321664206916,223.05717823568557 140.37565149279544,224.81975122763833 140.67967033101013,225.05036723791272 140.77087598253274,224.63855276881077 140.99889011122286,224.93505926216312 141.2877080074977,226.03871890304436 141.8957456839271,226.911759279712 142.09335792879574,226.5164206588961 141.81974097440252,225.6269062343781 142.32137205742765,224.852696386326 143.59825117804576,225.2315653666592 144.38870015740395,225.9563564293203 144.52550863462966,225.5939611884678 144.84472841472598,225.42923588694248 145.14874725299887,225.57748866375186 145.5591726845596,225.03389467355737 146.0456028257031,224.852696386326 146.3496216639178,224.52324458297517 146.10640659340424,224.45735416468233 146.95765934040537,224.32557327048562 147.61129984259605,223.30426873570832 148.4625525896554,223.83139423305693 148.7817723697517,225.41276335020666 148.5993610668229,226.05519139417447 148.21933751902543,226.41758589567326 148.67536577646388,227.47182114238967 148.53855729923816,227.86715809245652 148.2041365771438,227.94951987004606 148.40174882201245,227.9824645726476 148.40174882201245,228.87196972909442 148.84257613745285,229.3331932472356 149.75463265209692,229.5308601811994 150.3170675028232,230.4697757577669 150.68189010868082,230.55213658727007 150.86430141160963,231.39221533412638 151.36593249469297,231.9193219738081 151.50274097186048,232.4958434539003 152.04997488070512,233.22061122895684 151.9131664034794,233.30297105642967 152.50600313802715,233.94537668090197 152.58200784760993,234.60425234853756 153.69167660712264,235.27959791543253 154.20850863208761,235.34548517980147 155.09016326302662,236.28437661130738 154.84694819233846,238.3433354006993 154.71013971511275,238.57393761769345 154.5125274703023,238.32686380475934 154.19330769014778,238.35980699543143 151.6851522747893,239.2163282680558 150.1042543160729,240.43521833202976 149.72423076821724,239.85871709350613 149.34420722047798,240.41874688844837 147.83931397128617,240.92936108104186 147.04886499186978,240.92936108104186 145.650378336024,242.0 145.27035478828475,241.4893882246979 144.47990580886835,241.29173174408788 143.978274725785,240.13873216432694 143.46144270082004,240.18814655259484 142.67099372140365,239.7598881622107 142.3365729994257,240.41874688844837 142.26056828984292,240.13873216432694 141.83494191634236,240.2046180129546 142.0781569869141,239.67753068645834 141.74373626487795,239.26574285782408 141.5917268457124,239.3645720051136 141.91094662592513,239.29868591170816 142.26056828984292,238.3433354006993 143.0814191530808,238.26097740908153 144.35829827364068,237.04207562589727 146.0912056514644,237.7009422704723 146.38002354785567,237.50328247869038 146.38002354785567,237.04207562589727 145.9087943485356,236.3996787990909 145.9999999999418,235.69139300288225 145.3311585559277,234.4230617313442 145.2551538463449,232.94058759126347 144.96633595001185,233.154723345433 144.6319152279757,234.24187096892274 144.05427943530958,234.0277362443885 143.46144270082004,234.39011796713748 141.8957456839271,232.00168227522227 141.88054474204546,230.9804124168586 141.36371271702228,230.6839138519863 141.150899530272,229.28377648668538 140.49725902813952,228.6907745180797 139.6004034553771,228.36132830788847 138.4603328120429,227.1259007439803 139.05316954659065,226.7140900556842 139.37238932668697,227.09295591649425 139.76761381636607,226.86234198989405 140.90768445975846,226.94470413356612 140.1324364222819,226.89528685096593 140.49725902813952,226.368168497851 140.23884301562794,226.5164206588961 140.2236420737463,225.5115985526936 139.81321664206916,225.11625748334336 139.4331930943299,223.73255829593109 138.58194034727057,222.16765019926243 139.0835714303539,222.29943235142855 139.37238932668697,222.03586797021853 138.93156201124657,221.73935767398507 139.06837048841408,221.2616458231205 138.70354788261466,220.3556378155481 138.70354788261466,219.53199102095095 138.00430455466267,218.5930300140899 137.5786781812203,218.6424491116777 136.90983673703158,218.0" stroke="red" stroke-linecap="round" stroke-linejoin="round" stroke-width="0.5"><title>2019-07-21 5.8km</title><desc>1563683200000</desc></polyline><polyline fill="none" points="171.25899219105486,225.77249799054698 172.5207829021383,220.2764777620905 173.27184880152345,219.365888040571 175.64521704346407,218.195127117011 181.50353105866816,219.30084584702854 182.43485277402215,220.1789146658266 182.94557758560404,221.4797542078304 185.04856210376602,222.4879022638488 185.85971327521838,224.66679517782177 187.48201561777387,226.91071863370598 186.19018227083143,232.92697987903375 184.32753884035628,235.3334618365625 183.78677139279898,239.26835728998412 183.21596130926628,240.01630872944952 178.79969382088166,240.01630872944952 177.387689930154,241.54472736737807 175.43491859175265,242.0 172.4907402661629,241.05693474953296 169.3062208527699,240.99189569376176 167.0830657905899,239.10575898640673 165.85131771559827,236.73181705755997 166.33199989120476,233.3497411555145 166.99293788266368,232.43917791219428 170.2675852039829,230.52048504143022 170.71822474361397,229.67495677035186 171.64954645873513,224.34158795065014 173.091592985671,219.7561410042108 174.35338369652163,218.65042339410866 175.97568603919353,218.0 180.5722093434306,218.9431136143976" stroke="#47fcff" stroke-linecap="round" stroke-linejoin="round" stroke-width="0.5"><title>2019-07-16 3.0km</title><desc>1563273542000</desc></polyline><polyline fill="none" points="18.832573741558008,254.85370172272087 20.162343621021137,250.20313240552787 20.98066354682669,249.2065744844149 23.07760835660156,248.37610756751383 27.501650455174968,249.4280320244725 28.44783286936581,250.25849665843998 28.780275339260697,251.1996877314523 30.57035017677117,252.2792864057701 31.184090121183544,254.16165629663737 32.56500499590766,255.8779266567144 31.388670102576725,261.5249554516631 29.752030250965618,263.21351160504855 29.419587781303562,266.42451586859534 29.036000316031277,266.92277273652144 28.013100408832543,267.1995818273281 25.481423138524406,266.8950918164628 22.898600872722454,268.66666666665697 17.5283763599582,268.05768873673514 15.789446517708711,267.1442200252786 14.178379163844511,264.2100330524263 14.459676638245583,261.3588675587671 17.579521355219185,259.4211701491731 18.244406294892542,258.36927316116635 19.037153723067604,255.90560837369412 18.832573741558008,254.71529273764463 20.366923602414317,249.8155824112764 22.003563454025425,248.65293007329456 23.35890583100263,248.45915434023482 27.32264297141228,249.4280320244725 31.97683754924219,257.8433235830453 31.235235116560943,261.2481422567507 29.777602748712525,262.68756868390483 29.368442785809748,265.37263812849415 28.268825385719538,266.4798777748947 27.476077957544476,266.4798777748947 25.992873092065565,265.5110432593792 24.76539320347365,265.3172760620655 23.691348300897516,265.815534371417 23.07760835660156,267.03349639693624 20.469213593169115,267.6424759562651 19.088298718445003,267.1995818273281 17.170361392432824,267.31030540767824 16.582193945767358,266.7013253197947 15.815019015339203,266.8120490441506 14.792119108256884,265.6771293505153 14.101661670720205,264.0993085753289 14.638684122124687,261.19277959378087 18.142116304370575,258.53536235151114 18.832573741558008,257.0405570438015 18.755856248550117,254.54920188945835 19.599748672102578,250.70141039291047 22.770738384337164,247.51795652651344 23.384478328749537,245.9123784422991 23.43562332401052,244.91580934621743 22.975318365730345,244.66666666665697" stroke="red" stroke-linecap="round" stroke-linejoin="round" stroke-width="0.5"><title>2019-07-11 5.0km</title><desc>1562839476000</desc></polyline><polyline fill="none" points="48.781410385039635,252.24231468120706 50.07851647422649,246.69120573988766 53.57768638944253,244.66666666665697 59.49007693561725,246.23405254932004 60.39503467211034,247.86674038958154 62.44627220870461,249.1728864098841 63.68304778204765,252.14435452691396 64.829327581916,253.22191505529918 63.65288252418395,259.45865425490774 61.75247127725743,262.07087543874513 61.02850508794654,266.3483549891971 59.88222528807819,266.9034447845479 56.684707952081226,266.4463120615401 53.81900845258497,268.53605787444394 52.25041504227556,268.66666666665697 49.59587234817445,267.7524043281155 46.79050336452201,267.7524043281155 44.82976160175167,266.3483549891971 43.17067241796758,263.5075906473794 43.200837675714865,261.35251611992135 43.864473349414766,259.8178355639393 47.24298223271035,257.4668254457356 48.117774711572565,256.25866270589177 48.81157564301975,253.90763405233156 48.690914611448534,252.17700791408424 50.19917750591412,251.65455343638314 50.651656374218874,251.88312734474312" stroke="#49f2ff" stroke-linecap="round" stroke-linejoin="round" stroke-width="0.5"><title>2019-07-08 2.6km</title><desc>1562581618000</desc></polyline><polyline fill="none" points="79.45697808708064,252.04385111454758 80.78968911920674,246.79786561857327 83.69742227974348,244.69945441870368 89.36144416569732,245.84702424739953 90.482132988167,246.73229041567538 90.99704406864475,247.97821764904074 92.9355328422971,249.06020430999342 95.47979935794137,253.68320913039497 94.20766610023566,259.8471422138682 92.66293285856955,261.42089893113007 91.81484401994385,265.7159155033296 91.17877739109099,266.6339290344331 87.12006652110722,266.6995013584383 83.84886671532877,268.66666666665697 80.15362249023747,267.84701549221063 77.76080041017849,267.8798015676148 75.51942276547197,266.1749225013191 73.85353397543076,263.0602230352233 74.15642284648493,260.240581905382 75.70115608803462,258.7323945668468 77.82137818424962,257.55207054078346 79.0632225550944,255.48649609994027 79.57813363557216,251.25695716089103 80.9411335545592,246.50277713069227 84.06088892486878,244.66666666665697 88.18017756927293,245.48635975722573" stroke="#48faff" stroke-linecap="round" stroke-linejoin="round" stroke-width="0.5"><title>2019-06-20 2.9km</title><desc>1561025358000</desc></polyline><polyline fill="none" points="110.15999160532374,251.85047393641435 111.57775872619823,246.72385952144396 112.51288172078785,245.6789373382926 114.47362348344177,244.66666666665697 119.99386567703914,245.80955274347798 121.10998021892738,246.5932443808706 121.74345063476358,247.9973551617295 123.79468817112502,249.10757919872412 124.57898487627972,251.58924658418982 126.17774354422,253.38518157764338 124.82030693930574,260.0464053390897 122.9198956922628,262.36474937608 122.28642527665943,266.25039789563743 121.35130228206981,266.9034447845479 117.49014927225653,266.838140138163 115.49924225162249,268.43810125553864 113.68932677828707,268.66666666665697 111.00461882643867,267.8503610957123 108.25958035839722,267.91566559576313 106.50999540090561,266.60957380142645 104.57941889599897,263.47493807968567 104.48892312240787,261.1239470060391 105.6352029221598,259.3280427989084 109.19470335310325,256.87907100326265 110.28065263701137,253.6790611690667 110.03933057386894,252.47088829203858 111.06494934216607,250.90352406547754" stroke="#49f1ff" stroke-linecap="round" stroke-linejoin="round" stroke-width="0.5"><title>2019-06-19 2.5km</title><desc>1560939322000</desc></polyline></svg>