<?xml version="1.0" encoding="utf-8" ?>
<svg baseProfile="full" height="300mm" version="1.1" viewBox="0,0,200,300" width="200mm" xmlns="http://www.w3.org/2000/svg" xmlns:ev="http://www.w3.org/2001/xml-events" xmlns:xlink="http://www.w3.org/1999/xlink"><defs /><rect fill="#222222" height="300" width="200" x="0" y="0" /><text fill="#FFFFFF" style="font-size:12px; font-family:Arial; font-weight:bold;" x="10" y="20">Ali Running</text><text fill="#FFFFFF" style="font-size:4px; font-family:Arial" x="10" y="280">ATHLETE</text><text fill="#FFFFFF" style="font-size:9px; font-family:Arial" x="10" y="290">Ali</text><text fill="#FFFFFF" style="font-size:4px; font-family:Arial" x="120" y="280">STATISTICS</text><text fill="#FFFFFF" style="font-size:3px; font-family:Arial" x="120" y="285">Number: 55</text><text fill="#FFFFFF" style="font-size:3px; font-family:Arial" x="120" y="290">Weekly: 1.5</text><text fill="#FFFFFF" style="font-size:3px; font-family:Arial" x="141" y="285">Total: 234.3 km</text><text fill="#FFFFFF" style="font-size:3px; font-family:Arial" x="141" y="290">Avg: 4.3 km</text><text fill="#FFFFFF" style="font-size:3px; font-family:Arial" x="167" y="285">Min: 1.2 km</text><text fill="#FFFFFF" style="font-size:3px; font-family:Arial" x="167" y="290">Max: 25.8 km</text><polyline fill="none" points="16.20624563045567,42.086803825353854 13.00978792825481,43.914512571369414 11.285714285739232,45.79676111288427 13.852948030747939,50.22951796835696 13.941039384808391,53.13462161704956 14.25565136334626,53.47559326454939 19.289443020301405,52.930038330188836 19.931251456553582,51.716172891363385 19.16359822882805,50.20223978594004 19.503379165718798,48.51098470600846 20.006758331437595,47.9926937968994 20.547890934569295,47.869940476404736 21.051270100229885,48.11544703676191 21.592402703361586,49.00199582113419 22.271964577084873,48.9747174596414 22.473316243325826,48.67465522099519 22.20904218131909,47.70626925709075 22.3223024935578,47.03794362474582 22.687252388743218,46.492369909072295 23.178047075285576,46.3014187325025 24.373572593787685,46.3696156036749 25.594267070642672,47.951776032336056 26.19832206942374,49.083830881645554 26.487765089725144,51.34792002073664 27.393847587984055,52.50723216141341 27.83430435793707,52.5754267693992 29.004660918202717,52.275370308198035 33.24563038919587,42.95974157478486 33.27079934749054,42.386876636432135 31.483803309267387,41.69125256576808 31.257282684673555,41.37753890271415 30.388953623885754,41.213862000004156 29.60871591704199,40.32727628653811 30.82941039383877,37.626573893619934 33.13237007689895,37.54473381806747 33.35889070149278,37.02641250760644 34.101374970865436,36.9854923429084 34.428571428579744,36.75361124057963 34.31531111628283,32.825228849134874 31.5593101841514,32.238692449755035 31.0181775810197,33.12531652778853 29.860405499872286,33.916454461897956 29.860405499872286,34.61210746476718 28.035656024236232,35.45779978531937 28.035656024236232,36.480809575441526 28.312514565361198,37.3810535595112 26.814961547439452,38.840530806657625 26.651363318553194,39.645284415077185 26.135399673774373,40.60007233850774 25.35516196693061,40.65463150110736 24.512001864379272,40.313636473510996 24.18480540672317,40.3545559096674 23.996038219542243,40.61371213066741 24.12188301095739,41.65033342214883 23.631088324415032,42.16864191251807 22.750174784392584,41.882208450726466 22.19645770220086,40.5864325453731 21.756000932189636,40.47731416438182 20.661151246808004,40.88650776466238 20.698904684279114,41.48665675827942 19.780237706843764,42.00496570239193 19.17618270800449,42.19592126691714 18.874155208526645,41.92312754354498 18.64763458404923,41.97768632006773" stroke="red" stroke-linecap="round" stroke-linejoin="round" stroke-width="0.5"><title>2024-07-07 7.5km</title><desc>1720346389000</desc></polyline><polyline fill="none" points="52.42701387710986,31.356121861117572 52.61443816278188,31.393396424740786 52.27018947477336,31.360263480506546 51.77676635530952,31.414104505151045 51.37131790055719,31.347838621455594 50.86641982480069,31.409962889661983 50.18557241963572,31.347838621455594 49.389975451806094,31.380971572907583 49.08397661802883,31.285714285713766 48.950102128248545,31.47622870131454 48.97687702618714,32.354243452198716 48.91950224486936,32.5240466352152 48.68235314867343,32.58616962490123 46.96493469408597,32.677283220982645 46.84253516055469,32.84708544428213 46.632160962341004,34.50780742648203 46.5288863559399,34.7397248615307 46.60921104979934,35.48102606737302 46.53271134135139,35.969699817997025 46.567136210156605,36.9014814121947 45.72181443183217,37.02571781085862 45.6759146067634,37.11268312931497 45.53821513157163,37.15823633857872 45.630014781694626,38.686318424191995 45.54586510240915,39.92863149323966 45.27429113742255,41.228890272588615 45.13276667680475,41.65954271589362 45.0027171724505,42.61193564568384 44.59344373225758,44.34276568903442 46.34528705566481,45.68847057608218 46.41031180784921,45.80854732058651 46.42178676412732,46.073543382506614 46.3223371431377,46.82711922814633 46.111962944909465,47.3860839135632 46.046938192725065,47.43990985441269 46.08518804694177,47.5061570967373 45.62236481085711,48.595085155444394 45.232216297779814,49.74609685960968 45.13276667680475,49.84546369146847 45.17101653102145,49.9406900768372 45.08304186630994,49.94897062459495 44.968292303645285,50.478923190741625 44.53989393633674,51.61333641592864 44.528418980073184,51.77480216481854 45.49231530650286,52.1184328842246 45.57646498577378,52.22193570890886 45.630014781694626,52.74358709820444 45.637664752532146,54.42857142857247" stroke="red" stroke-linecap="round" stroke-linejoin="round" stroke-width="0.5"><title>2024-06-29 8.6km</title><desc>1719661391000</desc></polyline><polyline fill="none" points="68.42779629485449,41.87751671166916 68.00085264706286,41.91834699473111 64.49740330205532,43.97345969863818 62.71428571426077,45.797183139351546 65.36384776374325,50.261147387631354 65.58987675368553,53.40491177937656 70.70064336096402,52.9421965348738 71.44151616154704,51.64930962299695 70.65041469654534,50.05700501144747 70.76342919154558,49.06350892569753 71.05224401212763,48.410248342799605 71.51685915823327,47.97474001692899 72.13216029771138,47.89308209264709 73.02371909149224,48.91380357743765 73.71436322765658,48.968241899769055 73.92783505155239,48.641611727463896 73.73947755986592,47.41674348882225 73.95294938376173,46.749867400416406 74.48035036044894,46.35518451104872 75.52259514766047,46.246306325672776 76.3011394465575,46.79069661718677 77.60708472208353,48.80492688511731 77.93357104092138,51.25463709693577 78.52375784824835,52.11202807331574 79.15161615377292,52.54752674316114 80.45756142935716,52.32977753528394 80.94729090767214,50.98244866153982 81.67560654215049,49.893690949698794 82.64250833267579,47.26703681933577 83.72242461820133,45.38888839542051 84.73955507320352,42.51719011993555 82.68017983104801,41.36033235244395 82.12766452209326,41.36033235244395 81.14820556540508,40.59816331481852 81.11053406714927,40.32595933241828 82.3285791798844,37.68556008957967 84.53864041547058,37.54945602286898 84.82745523605263,37.0730910073471 85.78179986041505,36.82810281132697 85.85714285710128,32.77214035777433 82.93132315325784,32.30937393492786 82.51693667157087,33.01713388148346 81.2737772265682,33.874608680052916 81.21099139598664,34.56875205805409 80.38221843267092,35.235671693706536 79.41531664208742,35.5351042238035 79.50321680493653,36.555893327255035 79.80458879156504,37.27724759155535 79.52833113714587,37.83527444823994 78.85024416714441,38.189144272881094 78.2349430276663,38.856050963673624 78.1470428648754,39.50934500199219 77.6196418881882,40.53011235645681 76.97922641655896,40.70704479655251 75.92442446318455,40.32595933241828 75.57282381207915,40.42123077143333 75.38446632045088,40.78870586614357 75.5979381443467,41.5100437617657 75.20866599486908,42.10888819763204 74.32966436707648,41.98639744670072 73.71436322765658,40.72065497732547 73.19951941713225,40.502891966170864 72.18238896207185,40.856756730223424 72.10704596538562,41.5100437617657 70.92667235096451,42.12249827613414 70.58762886596378,42.176938580101705 70.32392837764928,41.95917726890184 69.47004108206602,42.36747951884172 69.10588326485595,42.10888819763204 68.49058212537784,42.34025939667481 68.08875280985376,41.93195708714484 66.51910704589682,42.76217084437667" stroke="red" stroke-linecap="round" stroke-linejoin="round" stroke-width="0.5"><title>2024-06-23 7.9km</title><desc>1719138583000</desc></polyline><polyline fill="none" points="93.30956355831586,41.43361883163743 90.14142618648475,43.332000489448546 88.42857142857974,45.0070274854661 91.17171476269141,49.557443460900686 91.33913665631553,50.367015332201845 91.28762222750811,52.58634134622116 91.55807297874708,52.90737379601342 96.79966611019336,52.404887984201196 97.55950393510284,51.13470963247528 96.73527307418408,49.557443460900686 96.73527307418408,48.90140857004735 97.05723825423047,47.924331158807036 97.55950393510284,47.407873940101126 98.1261626521009,47.21245733165415 98.5897925113095,47.44974890165031 99.09205819218187,48.273287949865335 99.86477462435141,48.32912097737426 100.13522537564859,47.98016428810661 99.90341044601519,46.961207113286946 100.05795373243745,46.16557924510562 100.5087049845024,45.70495107235911 101.2943000238156,45.56536655865784 101.80944431194803,45.55140810168814 102.15716670645634,45.7468264066265 103.54805628431495,47.589332040632144 103.96017171477433,48.55245292453037 104.19198664440773,50.72992574892123 104.69425232533831,51.39991240228119 105.35106129269116,52.05593872751342 106.76770808489528,51.79073686682386 109.39494395424845,46.12370400248619 107.86238969716942,41.65695882795262 106.8192225137609,41.04277321069094 106.72907226328971,40.80547369408305 107.55330312426668,39.06061526761914 111.51991414267104,37.3436590400961 111.57142857142026,33.365286601969274 108.67374195088632,32.80691191829101 108.1585976628121,33.644473332489724 106.92225137137575,34.52390886997455 106.92225137137575,35.15207463533443 105.87908418790903,35.76627916668076 104.97758168377914,36.017544088332215 105.0162175053847,36.78529597046145 97.55950393510284,41.62904134266137 97.53374672075734,42.29905986497761 97.35344621987315,42.41072939053993 96.03982828522567,42.969076040695654 95.6792272835155,42.73177891349769 95.29286906751804,42.88532414706424" stroke="red" stroke-linecap="round" stroke-linejoin="round" stroke-width="0.5"><title>2022-07-10 6.8km</title><desc>1657448715000</desc></polyline><polyline fill="none" points="116.57563025207492,43.67032426148944 115.8445378150791,44.066517800078145 114.14285714284051,45.77423897740664 116.81512605038006,50.132272849063156 116.9789915966685,51.34813254639448 116.90336134453537,53.219721375236986 117.0672268907656,53.43829987302888 122.19747899158392,52.960159077862045 122.90336134453537,51.689664749399526 122.09663865546463,50.11861145931471 122.53781512600835,48.36994534477708 123.02941176469903,47.93277626525378 123.47058823530097,47.878130058554234 123.96218487393344,48.110376326862024 124.5672268907656,48.957389688599505 125.17226890759775,49.039358520371024 125.42436974792508,48.62951400296879 125.18487394956173,47.67320664146973 125.26050420169486,47.0857582698809 125.57563025207492,46.511969709492405 126.0672268907656,46.30704479763517 127.23949579830514,46.348029797911295 128.56302521011094,47.98742245598987 129.26890756306238,49.094004388243775 129.4453781512566,51.38911644363543 130.4663865545881,52.63229039865837 131.94117647054372,52.35906606097706 132.38235294120386,51.53939065677696 132.55882352939807,51.5667132280214 133.0882352941553,49.69510788282787 136.15126050420804,42.70032964601705 136.03781512606656,42.41342886736675 134.26050420169486,41.716668003515224 132.48319327726495,40.45975949650165 133.69327731092926,37.60435990334372 135.96218487399165,37.59069759967679 136.12605042022187,37.15350335549738 137.15966386557557,36.921243498058175 137.28571428573923,35.29541642856202 137.1344537815312,32.78150476352312 134.3991596638807,32.27598584126099 133.9327731092344,33.01376975659514 132.6344537815312,33.956489417279954 132.68487394961994,34.530316451739054 131.66386554623023,35.18611662328476 130.8319327731151,35.37739124064683 130.78151260508457,36.046850862388965 131.08403361344244,36.921243498058175 131.07142857147846,37.536048374997335 129.68487394956173,38.80663872350124 129.0672268907074,40.48708368418738 128.7773109243717,40.7193391185574 127.22689075628296,40.30947639294027 126.79831932770321,40.6100424794713 126.8991596638225,41.115538900587126 119.84033613442443,42.11286567544448" stroke="red" stroke-linecap="round" stroke-linejoin="round" stroke-width="0.5"><title>2022-05-28 7.2km</title><desc>1653736202000</desc></polyline><polyline fill="none" points="144.80196873185923,40.90389908190991 144.66796261060517,41.13628705989686 144.1855405740789,41.20890824738308 141.15700223343447,42.92276058252901 139.8571428571595,44.28802222428203 142.1486475308193,49.66183348868799 142.32285548839718,50.48967800803075 142.2692530399072,52.74081675421621 142.55066589458147,53.01676104323997 148.00471503013978,52.36320816013904 148.72834808501648,51.070619475489366 147.85730829671957,49.400408188579604 148.15212176356,47.78827792071388 148.68814624869265,47.20732687720738 149.3447762427968,47.03304123363341 149.82719827943947,47.265422057855176 150.4436264372198,48.18041891689063 151.1404582677642,48.19494264264358 151.3414674497326,47.87542043103895 151.1136570435483,46.902326900861226 151.27446438913466,46.05994358667522 151.6630821407307,45.58065493791946 152.44031764415558,45.348272147457465 153.67317395977443,45.72589404422615 154.8792290511774,47.41065993522352 155.26784680283163,48.13684773319983 155.64306394243613,50.73657833876496 156.48730250634253,51.75322353413503 156.8223178096232,51.971075400768314 158.25618330709403,51.70965313221677 163.0,41.26700517829158 160.0116634957376,39.82910115514824 159.7838530895533,39.48051679758646 158.9396145255887,39.03026109903294 159.00661758624483,38.73977301112609 161.7805442964891,37.79568379788543 162.5979816361214,37.737585853916244 162.89279510296183,37.38899783392844 162.83919265447184,33.17684433826071 159.99826288362965,32.697524671049905 159.408635950007,33.49639014177956 158.0953759616241,34.49859865254257 158.06857473735,35.15221018000739 156.0718835304142,36.256082553140004 156.38009760936256,38.33308897593815 155.30804863921367,39.20455374830635 148.37993216968607,41.65915901849803 148.40673339396017,42.31274703568488 147.46869054512354,42.89371236077568 146.86566299939295,43.082525726407766 146.51724708406255,42.821091787845944 145.56580362305976,43.21324256695516 145.17718587140553,42.95180880003318 144.64116138633108,43.14062211057171" stroke="red" stroke-linecap="round" stroke-linejoin="round" stroke-width="0.5"><title>2022-05-21 7.1km</title><desc>1653128068000</desc></polyline><polyline fill="none" points="178.75843620492378,39.93906321184477 179.20272044697776,39.866102307176334 180.23938367847586,40.274683030394954 180.92600477981614,40.18713008853956 181.6664785166504,38.27554797103221 182.24539434723556,37.589708711835556 182.9185522897751,37.25408438744489 183.30898389645154,36.68498098489363 182.8781628132565,34.62743978625804 183.9148260447546,34.36477342857688 184.85724716429831,33.737291288678534 185.01880507048918,33.47462376176554 184.8841734820162,33.02225110103609 186.24395252595423,32.01535344016156 186.7151630857261,31.285714285710128 188.6942474367679,31.6359414121398 184.65529978153063,40.08498494127707 188.236500035855,41.80685330866254 188.55961584829492,42.259206099042785 188.49230005400022,42.69696588985971 187.56334209325723,45.104627613938646 186.5805314971949,46.768086058917106 185.51694194803713,49.56966901541455 184.00906815670896,52.72140294620476 182.58197331853444,52.998636425472796 181.61262588127283,49.68640078717726 181.06063636840554,48.69417855616484 179.6604678478907,46.928594475321006 178.3814677571063,46.87022779333347 177.89679403841728,47.08910276298411 177.50636243179906,47.68735979136545 177.39865716092754,48.416939111994 177.654457179131,49.409162718075095 177.43904663750436,49.744766647490906 176.73896237730514,49.6718093194213 176.16004654671997,48.854685427199 175.5138149218401,48.56285465680412 175.00221488554962,48.70877009522519 174.43676221382339,49.3653882509534 174.04633060714696,50.474338464962784 174.08672008366557,51.10176810005214 174.4771516902838,51.64164783897286 174.1271095602424,53.96165500021016 168.67453022563132,54.42857142856519 168.48604600172257,53.81574339290091 168.48604600172257,51.174724906653864 165.5914668488549,46.38870201718237 167.50323540560203,44.462587321177125 171.3671619958477,42.3029821212549" stroke="red" stroke-linecap="round" stroke-linejoin="round" stroke-width="0.5"><title>2022-04-09 6.5km</title><desc>1649491818000</desc></polyline><polyline fill="none" points="27.181090804748237,85.04081632662565 31.234792007133365,63.362700934754685 16.371220934204757,61.89795918366872 13.668753468431532,66.29218283412047 13.668753468431532,79.76777201308869 26.640597311779857,84.45492285653017 28.802571285516024,69.51461045118049 32.31577899400145,67.171026985161 29.613311526365578,62.48385594878346 15.019987201318145,62.77680429886095 12.858013227581978,78.88893061992712 28.532324539497495,83.28313565906137 27.99183104559779,72.1511402130127 32.31577899400145,66.58513090549968 29.072818032465875,63.06975262751803 14.749740455299616,62.77680429886095 13.398506720550358,78.88893061992712 27.181090804748237,84.16197608876973 27.99183104559779,70.10050610313192 32.31577899400145,66.87807895592414 27.99183104559779,62.48385594878346 15.019987201318145,62.48385594878346 13.128259972669184,78.88893061992712 15.8307274421677,82.69724193145521 27.99183104559779,83.8690292998217 30.15380501933396,63.362700934754685 13.668753468431532,65.41333848866634 15.019987201318145,80.93956023687497 27.99183104559779,84.45492285653017 32.58602574001998,65.41333848866634 17.452207922935486,62.48385594878346 13.128259972669184,65.12039033020847 14.209246961399913,81.5254542210605 26.370350564830005,84.16197608876973 32.31577899400145,68.04987094551325 29.88355827331543,63.362700934754685 14.479493707418442,63.06975262751803 13.128259972669184,78.30303625110537 27.45133755262941,84.16197608876973 30.42405176628381,63.362700934754685 13.398506720550358,65.12039033020847 13.939000213518739,80.35366616817191 27.99183104559779,84.16197608876973 28.262077792547643,70.68640166986734 32.85627248790115,66.29218283412047 29.613311526365578,63.362700934754685 14.209246961399913,63.94859748566523 13.398506720550358,80.06071910075843 23.667883098125458,83.57608249015175 28.532324539497495,75.95945792016573 25.28936357796192,68.6357668119017" stroke="#49eeff" stroke-linecap="round" stroke-linejoin="round" stroke-width="0.5"><title>2021-04-16 2.4km</title><desc>1618583993000</desc></polyline><polyline fill="none" points="58.73094075487461,82.92496239680622 58.52998337108875,82.97332507235114 57.81546822848031,82.3808813294745 56.464588037051726,82.22370202372258 56.23013775591971,82.25997418435873 56.029180372017436,82.53806048694241 54.72295737697277,82.53806048694241 54.075428029114846,82.93705306698394 53.025983913452365,82.18742985518475 52.73571213678224,82.16324840512243 52.21099007886369,82.93705306698394 52.49009755649604,83.75921658292646 52.30030447174795,84.55719493969809 51.94304690044373,84.89573005787679 51.28435325337341,85.04081632652378 50.88243848568527,84.89573005787679 50.53634521353524,84.33956485774252 49.63203698617872,84.72646258476016 49.08498633012641,84.15820623896434 48.906357544474304,83.52949483242992 47.61129884858383,83.88012264019926 47.3880128665478,83.62621981860138 47.778763335198164,83.09423169986985 47.66712034412194,82.84032768078032 46.6511691257474,83.28768212138675 46.01480407692725,82.57433257917 45.59056071098894,82.47760698237107 45.16631734510884,82.73151155417145 45.490082019008696,83.22722888874705 45.47891771997092,83.80757901635661 44.44063790340442,84.50883272384817 44.90953846578486,84.01311920185981 45.099331550474744,83.51740420522401 45.0658386531868,83.33604469164857 44.518787997134496,82.93705306698394 44.93186706391862,81.44989404905937 45.43426052352879,81.19598752433376 45.95898258138914,81.44989404905937 47.120069688069634,81.59498331804934 47.75643473688979,80.85744488950877 48.45978558040224,80.66399164647737 49.04032913374249,79.96272175759077 48.71656445978442,79.81763106722792 48.45978558040224,80.41008392414369 48.169513803732116,80.57935578201432 47.5666416521417,80.55517409855383 47.142398286261596,80.84535406841314 46.23809005896328,80.86953570973128 45.66871080471901,80.42217477681697 45.25563173793489,79.68463115676423 44.0275588366203,79.56372205509979 43.59215117158601,79.92644909686351 42.899964627227746,81.09926112744142 42.57619995326968,81.08717032388085 42.79948593530571,80.63980997532781 43.21256500208983,80.39799307056819 43.469343881472014,79.20099422369094 43.36886518954998,78.65690099580388 43.62564406893216,78.53599114831013 43.089757711975835,78.2699891749653 43.1120863101678,79.0075390573329 42.91112892632373,79.15263045315805 43.14557920751395,79.06799382093595 43.045100515533704,78.25789816606266 45.40076762624085,78.75362881063484 45.63521790743107,78.62062805077585 45.46775342087494,78.35462621254555 44.76440257736249,78.39089921549021 44.262009117752314,78.2216251341888 43.6591369662201,77.91934956116893 43.514001077914145,77.62916449511249 43.670301265316084,77.02461065075477 44.19502332311822,76.14195809827652 44.18385902402224,75.81549638045544 43.58098687249003,75.23511841354775 43.86009435006417,74.60637333424529 44.0275588366203,72.69594103304553 44.78673117561266,71.35378878093616 44.41830930521246,70.76130371533509 44.328994912386406,69.86652635606879 43.94940874289023,69.43122752429917 43.726122760854196,68.33088373788632 43.79310855548829,67.49655228461779 43.01160761824576,66.68640035191493 42.096135091851465,66.38410384500457 41.98449210083345,65.87624447802955 42.04031359637156,65.59813035887782 42.6208571496536,65.01771678798832 43.357700890454,65.17491232986504 43.681465564412065,64.8363371322339 42.94462182361167,64.66704927524552 42.00682069902541,63.49412153927551 41.86168481071945,62.93788487954589 41.99565639987122,62.04306548459863 41.77237041783519,61.89795918366872 41.069019574380945,62.78068722593889 41.247648360033054,63.482029457736644 41.13600536901504,63.96571203446365 39.55067489639623,64.70332525907725 38.4119163879659,64.46148521757277" stroke="red" stroke-linecap="round" stroke-linejoin="round" stroke-width="0.5"><title>2021-01-17 6.8km</title><desc>1610870272000</desc></polyline><polyline fill="none" points="62.71428571426077,63.93164964878815 63.09463608445367,65.78540277737193 63.869965685356874,66.54591232628445 63.694419360603206,67.40148240111012 63.884594545699656,68.20951772548142 63.592017337912694,68.54223728360375 63.767563662608154,69.92064147834026 63.15315152599942,71.25150623398076 64.01625428925036,72.67742375303351 64.01625428925036,73.16857096394233 63.416471013159025,73.73893408004369 63.12389380525565,74.48357257203315 63.431099873560015,74.95887240898446 63.826079104153905,74.97471571905771 63.986996568448376,74.68953596177744 64.70381072780583,74.76875259837834 65.15730539994547,75.37079809721035 66.23984106909484,75.75103650416713 66.2983565106988,76.03621487469354 67.14683041354874,76.05205810655025 67.36626331938896,76.4956681324984 67.41014990059193,76.19464714179048 68.79989163804566,76.82837506031501 69.20949972904054,76.71747280740237 70.0433447714895,76.93927725696994 70.18963337544119,77.46210113923007 70.54072602489032,77.19276778049243 71.3453133465373,77.27198350873368 71.16976702178363,78.19088385567011 70.42369514174061,78.90382111549843 70.59924146649428,79.85440050689795 70.21889109624317,80.50396071065916 70.37980856053764,81.51790448291285 71.84269459993811,82.61105733735894 72.22304497018922,82.6902710996219 72.96911685023224,82.08824578548956 73.49575582437683,82.18330252439773 75.16344590927474,81.69217559452227 76.80187827337068,81.97734620445408 77.72349647822557,82.59521458145173 78.82066100771772,82.6902710996219 79.44970200466923,83.0071258614189 79.08398049476091,82.5318435463414 82.12678345665336,81.40700461217784 82.09752573590958,81.07430466194637 83.19469026545994,80.37721740803681 83.60429835651303,79.10978033486754 84.10167960985564,79.04640828804986 85.54993678879691,77.9215513960662 85.53530792845413,77.60468925343594 85.85714285710128,77.31951293189195 85.34513274329947,76.97096358850831 85.33050388295669,76.16296069753298 85.00866895425133,75.92531221926038" stroke="#47fffc" stroke-linecap="round" stroke-linejoin="round" stroke-width="0.5"><title>2021-01-17 3.2km</title><desc>1610855403000</desc></polyline><polyline fill="none" points="92.86418129788944,72.75670065257873 90.06999767961679,74.37278397784394 88.42857142857974,76.09749608440325 90.72155619150726,80.03575517050922 91.13504524715245,81.06783687901043 90.94709567638347,82.14065259098425 91.2102250753669,83.7566544640722 92.41310232807882,83.90603208036919 94.63090726273367,83.4578988719586 96.32245339930523,83.40357962189591 97.04919173952658,82.15423249707965 96.83618222601945,81.20363667792117 96.93642199708847,79.61477283094428 97.11184159643017,79.27527025081508 97.62557042308617,79.0308280098252 97.62557042308617,78.70490452260128 97.97640962182777,78.69132436490327 98.38989867735654,78.9900876051106 98.77832779020537,79.66909318631224 99.44241627352312,79.7505736896419 99.69301570119569,79.47897187317722 99.51759610179579,78.29749936122971 99.79325547220651,77.48268636397552 100.2067445278517,77.19750097247015 101.28432206669822,77.10243907821132 101.88576069299597,77.40120486811793 103.33923737332225,79.64193301058549 103.62742671516025,82.00485347546055 103.92814602830913,82.43941029650159 104.67994431121042,83.24062177662563 106.14595096296398,83.02334442779829 107.2861783587141,80.6604368880071 106.84762936038896,79.61477283094428 106.93533916003071,78.37898046479677 107.49918787222123,77.6999701786117 107.46159795805579,77.45552586934355 108.70206512493314,77.30614307787619 110.23072163353208,74.38636445057637 110.59409080364276,73.28634295183292 110.43120117567014,72.90608709469961 109.1280841518892,72.49866924293747 107.02304895973066,71.30357173354423 106.89774924586527,71.15418400539784 107.02304895973066,70.73318158093025 108.06303658446996,68.4651843959291 110.36855131876655,68.23430888119037 110.51891097537009,67.82688080357912 111.30829917243682,67.81329985230695 111.55889860005118,67.4873567242903 111.57142857142026,63.58957592280058 108.8398948101094,63.03274342982331 108.13821641268441,63.84761968388921 106.93533916003071,64.66249236985459 107.03557893109974,65.09708967676852 106.89774924586527,65.24648226660793 105.10596333822468,66.18357850400207 105.43174259416992,68.12566148102633 105.1560832238174,68.51950800484337 104.47946476913057,68.87261107629456 103.95320597110549,69.56523438611475 103.86549617140554,70.09488576631702 103.26405754510779,71.23566823564761 102.80044860392809,71.31715243018698 101.73540103645064,70.96405399615469 101.42215175187448,71.01837687574152 101.14649238146376,71.39863658907416 101.24673215253279,72.36286309419665 100.75806326861493,72.83818418129522 100.04385489987908,72.62089469206694 99.49253615905764,71.3714752067608 99.09157707478153,71.2764103373629 97.9012297934969,71.61592750504497 97.87616985075874,72.18631495270529 97.02413179673022,72.7295394684188 96.4602830845397,72.90608709469961 96.07185397169087,72.7295394684188 95.23234588914784,73.04189284713357 94.9065666332026,72.83818418129522 94.35524789232295,73.04189284713357 94.2174182071467,72.6480558921321 94.48054760618834,72.79744242140441 95.05692628974793,72.60731409059372 95.29499574599322,72.87892593230936 95.68342485884205,72.82460359566903 95.29499574599322,73.01473170456302 95.0193363755825,72.83818418129522 94.46801763476105,73.00115113180073" stroke="red" stroke-linecap="round" stroke-linejoin="round" stroke-width="0.5"><title>2021-01-10 7.9km</title><desc>1610256363000</desc></polyline><polyline fill="none" points="117.40881448041182,62.2979707828199 118.70077667234,65.04089646969805 118.51621064485516,64.84089212020626 119.04354215180501,65.0694685113267 119.20174160390161,64.66945973949623 118.77987639850471,62.89798741627601 119.33357448060997,61.89795918369782 121.57473338500131,62.32654302424635 122.8666955770459,63.46943097561598 123.26219420717098,63.212281476997305 122.99852845375426,62.52654865619843 123.3676605084911,62.812270810623886 125.1605876320973,70.75526336196344 126.5580161253456,72.21241359558189 127.00624790624715,73.7267012388329 128.0081777694868,74.32670038574724 128.03454434475861,75.5552672035119 129.61653886549175,77.86953377930331 129.85383804352023,78.95523438049713 131.51493229030166,80.09807387186447 132.437762427493,80.24092857408687 133.78245777008124,81.58376023216988 134.01975694822613,82.61230903113028 133.51879201666452,84.95510456032935 132.62232845486142,85.04081632653833" stroke="#4dd2ff" stroke-linecap="round" stroke-linejoin="round" stroke-width="0.5"><title>2020-12-06 1.6km</title><desc>1607221641000</desc></polyline><polyline fill="none" points="154.58032309520058,62.68408188284957 156.26513043779414,63.281534183450276 157.45611493848264,65.0738861579739 159.25711589097045,66.01722633390455 160.4771487941034,69.0044567186851 161.75527850235812,70.16789878773852 160.44810039165895,76.48816481462563 158.6180510368431,78.97222431833507 158.09517979261,82.39957425670582 157.1075341090327,83.2485466718208 153.737919423962,82.99699946236797 151.5011924346909,84.6634970131854 149.9325787019916,85.04081632653833 146.59201241936535,84.12896075873869 144.7619630645495,84.28617737235618 143.45478495396674,83.657310576702 141.10186435480136,80.26141416237806 141.10186435480136,77.14848581454135 142.32189725793432,75.63917919821688 144.64576945465524,74.349975647463 145.51722152845468,73.24943300604355 146.3305767972488,70.8911179639399 146.38867360213771,68.1869009695074 148.01538413972594,63.344423851551255 149.99067550699692,62.055183837219374 151.1235632026801,61.89795918366872 156.03274321812205,63.09286512460676 156.90419529180508,63.8160960720852 157.45611493848264,65.19966496634879 159.25711589097045,66.04867097115493 160.73858441621996,69.35034522667411 159.69284192787018,66.30022798743448 158.87948665895965,65.57700117325294" stroke="#47fbff" stroke-linecap="round" stroke-linejoin="round" stroke-width="0.5"><title>2020-11-19 3.0km</title><desc>1605780477000</desc></polyline><polyline fill="none" points="177.54788386786822,62.05454559446662 177.51895338762552,62.36771824618336 181.10633295145817,63.088014485372696 182.14783024427015,63.96489524585195 182.7553703315789,65.40548121085158 184.72264299576636,66.34499121407862 185.70627932797652,69.25745926689706 186.83456806163304,70.22827759728534 185.67734884750098,76.71078290775768 183.76793714403175,79.21607296695583 183.33397993864492,82.50424417189788 182.81323129241355,83.1305596656457 181.56922063720413,83.41240134224063 179.110129807028,83.03661239927169 176.94034378044307,84.7276600743644 175.75419408583548,85.04081632653833 172.36932788440026,84.3205566079414 169.88130657398142,84.44581925377133 168.60836543841287,83.72555854561506 166.35178797063418,80.34344876435352 166.64109277434181,77.05526115046814 167.36435478320345,75.99050933294347 170.57563810248394,73.76704856500146 171.4724829933839,71.66884272082825 171.35676107206382,69.6332601691538 172.60077172727324,64.4346520654799 174.16301766654942,62.68089067138499 176.27494273229968,61.89795918366872 181.25098535325378,63.15064888432971 182.2056912049884,64.02752951800358 182.63964841037523,65.31153009837726 184.40440771193244,66.15708937650197 185.93772317073308,69.41404301582952 187.93392631516326,70.44749433829566" stroke="#47fcff" stroke-linecap="round" stroke-linejoin="round" stroke-width="0.5"><title>2020-06-17 3.0km</title><desc>1592389526000</desc></polyline><polyline fill="none" points="23.233748785452917,92.63564295158722 26.362474958295934,93.51371402535005 27.810959297581576,94.48586206807522 28.419322720146738,95.80296239024028 30.273382674437016,96.83782412164146 31.17144296481274,99.15841417491902 32.648896990926005,100.82045076793293 31.432170145912096,107.24902288845624 29.66501925198827,109.53819872648455 29.114595202961937,113.05033542020828 28.187565225875005,113.89700697461376 24.82708155864384,113.5834251101478 22.654355049715377,115.24540640742634 21.003082902985625,115.65306122449692 18.106114224297926,114.80639309898834 15.6436908475589,114.83775120726204 14.021388387540355,113.99108148971573 11.964540625573136,110.66710290906485 12.138358746422455,108.06434717544471 13.152297783992253,106.27690346559393 15.672660534153692,104.9911937842553 16.338963330257684,104.14450483885594 17.352902367827483,101.29083732605795 17.092175186728127,100.09919038746739 18.395811092224903,94.83081730120466 20.713386034942232,92.85516088685836 21.669385699089617,92.51020408162731 23.46550627972465,92.72972208028659 27.376413995865732,94.07818734782632 28.332413659780286,95.6148054463556 30.56307954224758,97.05733992886962 31.432170145912096,99.50336568997591 33.74974508874584,101.00860545237083" stroke="#47fcff" stroke-linecap="round" stroke-linejoin="round" stroke-width="0.5"><title>2020-06-10 3.0km</title><desc>1591782487000</desc></polyline><polyline fill="none" points="49.42372440127656,92.51020408165641 49.68374685791787,92.9793283517356 53.006256025400944,93.7299261247681 54.046345851849765,94.44924776777043 54.71084768534638,95.85661273813457 56.704353185836226,97.01377605946618 57.542203323566355,99.42191682578414 58.92898975883145,100.86053997452836 57.74444301216863,107.33428490851657 56.01095996820368,109.21071459684754 55.17310983024072,113.4013781680842 54.21969415608328,113.90175319378613 51.09942467708606,113.6828391912859 47.63245858915616,115.65306122449692 44.13660111720674,114.8086814522685 42.287552537047304,114.93377485589008 40.207372884382494,113.80793292063754 38.64723814476747,111.49369307068991 38.184975999756716,109.77364191555534 38.61834676063154,107.39683269601665 40.120698732091114,106.02077928168 42.05642146442551,104.9887363470043 42.80759745009709,103.95669094912591 43.64544758806005,101.36092951285536 43.47209928371012,100.04740573948948 44.021035581012256,97.576719258097 45.32114786398597,94.10522452264559 47.19908782816492,92.94805341606843 48.67254841548856,92.57275401378865 53.121821561595425,93.85502562686452 54.046345851849765,94.5430722416204 54.71084768534638,95.91916218609549 56.44433072931133,96.70102952126763 57.6866602441296,99.60956359497504 58.9867725269869,100.76671687161434 57.77333439618815,107.1466414918832 55.924285816028714,109.58599955739919 54.97087014187127,113.62029231310589 53.61297509074211,113.90175319378613 51.01275052479468,113.62029231310589 48.47030872711912,115.49669472439564 46.15899800194893,115.49669472439564 44.078818349167705,114.8086814522685 42.72092329792213,114.99632154416759 40.66963502927683,114.27703408317757 39.05171752173919,112.30680578065221 38.1560846157372,109.52345208657789 39.39841413043905,106.58371075324249 42.05642146442551,104.9574622802902 43.0676199067384,103.48757859019679 43.67433897219598,101.26710651855683 43.47209928371012,99.92230802919948 44.77221156656742,94.79327073920285 46.910173987504095,92.916778478364 48.73033118364401,92.69785385078285" stroke="#41ffd1" stroke-linecap="round" stroke-linejoin="round" stroke-width="0.5"><title>2020-06-03 5.0km</title><desc>1591179886000</desc></polyline><polyline fill="none" points="75.09796615736559,92.79282443225384 78.57904560724273,93.57787999656284 79.47832446510438,94.1745212758251 80.34859432745725,95.87023411825066 82.32120601576753,96.90649981659953 83.0464309011586,99.1046309878584 84.6999436399201,100.86312791096861 83.30751186003909,107.39462554917554 81.65399912116118,109.21589102435973 80.95778323127888,112.95260144383064 80.20354935037903,113.83182275123545 76.78048789151944,113.58061684510903 74.48877725354396,115.24485326540889 72.86427351029124,115.65306122449692 69.90535597805865,114.83664492264506 67.61364533996675,114.89944623110932 66.13418657379225,114.17723063495941 63.63941296818666,110.40912977946573 63.98752091312781,107.67723620994366 65.29292570671532,106.07577336675604 67.61364533996675,104.88252270180965 68.25184323929716,104.0660861467477 69.09310410625767,101.5853656551044 69.00607712008059,99.92107687372481 70.1664369367063,95.08518269984052 71.26877876243088,93.51507560367463 72.86427351029124,92.60441088565858 73.87958834983874,92.51020408165641 78.81111757049803,93.6092821895727 79.76841441914439,94.36293414092506 80.3195853321813,95.6818219073757 82.08913405239582,96.56107819202589 83.24949386902153,99.38724704520428 84.93201560317539,100.76892289923853" stroke="#47fcff" stroke-linecap="round" stroke-linejoin="round" stroke-width="0.5"><title>2020-05-27 3.0km</title><desc>1590574932000</desc></polyline><polyline fill="none" points="105.12945747608319,110.06025985482847 105.48525799438357,100.41741539438954 104.53645661170594,99.00312265421962 105.07015738962218,96.62453428277513 104.12135600647889,92.7673502828693 100.0296500432305,93.86022079951363 94.45544191938825,101.25313276331872 97.06464572204277,108.19598483241862 98.78434822848067,109.22455085045658 100.0296500432305,114.6245027204277 105.01085730316117,114.36736290669069 105.84105851291679,112.43881190777756 104.59575669816695,105.62456452730112 105.30735773500055,100.3531294100103 103.88415566110052,92.57449063897366 100.14825021615252,93.60307491780259 97.89484693226404,97.71740000863792 95.34494321560487,99.13169481529621 93.98104122770019,101.445990504988 95.5228434749879,103.4388513599406 97.12394580850378,108.32455565046985 98.96224848763086,109.6102627972723 100.0296500432305,115.0744972138782 101.74935254943557,115.65306122449692 105.07015738962218,114.30307794146938 106.01895877229981,111.98881606647046 104.53645661170594,106.52456248895032 105.18875756231137,100.48170137411216 103.7655554881785,92.51020408165641 100.32615047553554,93.34592896065442 98.13204727787524,97.46025525400182 94.39614183292724,101.25313276331872 97.71694667264819,107.93884314002935 99.25874891970307,109.22455085045658 100.50405073491856,114.68878766219132 102.28305332735181,115.1387821228127 105.07015738962218,114.30307794146938 105.78175842668861,111.4745348233264 104.12135600647889,105.1745652014506 104.89225713047199,100.80313120171195 103.82485557463951,92.7673502828693 100.20755030261353,93.9245072582271 98.01344710495323,97.71740000863792 94.15894148708321,101.25313276331872 95.99724416644312,103.18170827743597 98.01344710495323,108.51741184218554 99.19944883347489,109.22455085045658 100.14825021615252,114.43164786708076 102.34235341404565,115.39592171116965 104.65505678439513,114.30307794146938 105.6631582537666,111.98881606647046 104.12135600647889,105.30313646077411 104.83295704377815,100.67455928464187 103.88415566110052,93.02449640881969 100.50405073491856,93.73164786805864 98.30994753702544,97.84597235766705 94.98914269730449,100.03169941779925 94.0996414006222,101.89599173766328 95.87864399352111,103.1174224949209 97.53904641326517,108.06741399556631 99.43664917908609,109.6102627972723 99.7331496111583,113.46737296646461 100.74125108029693,114.945927382214 103.64695531525649,114.8173575316323 105.30735773500055,113.08166271034861 104.47715652524494,105.62456452730112" stroke="#41ffd2" stroke-linecap="round" stroke-linejoin="round" stroke-width="0.5"><title>2020-05-12 4.9km</title><desc>1589275443000</desc></polyline><polyline fill="none" points="118.73259904165752,94.14587580505759 117.1348001016886,92.51020408164186 120.10462204454234,93.16823417386331 120.05251990520628,93.95786808473349 120.83405199536355,93.99546963965986 123.68230227974709,95.16111514404474 123.66493490000721,96.42075843934435 123.21338302560616,98.15040794044035 124.27279319235822,98.1128069867409 124.41173223062651,98.63921984330227 124.91538624436362,98.39481400679506 128.3193926817621,99.50403864964028 128.12835150415776,100.61325855771429 128.7014750369126,101.36526936167502 128.7188424167689,101.96687643803307 130.9766017884831,102.53088180723717 131.54972532129614,103.09488595239236 131.7407664989587,103.71528909829794 132.95648308366071,104.35449079051614 133.47750447725412,105.78328888854594 134.29377132694935,106.68568364012754 133.46013709739782,110.80281993756944 132.5917681082501,111.91199162440898 132.33125741156982,113.81073217013909 131.9839098158991,114.43110973839066 131.20237772568362,114.67550049514102 129.63931354519445,114.44990903550934 128.3193926817621,115.44626983827038 127.53786059154663,115.65306122449692 124.37699747103034,115.25827752632904 123.35232206387445,114.82589469275263 122.06713595992187,113.17155373304558 121.84136002283776,111.34800661244662 122.657626872533,110.0508364407433 124.51593650935683,108.90405741939321 125.01959052303573,107.53167587419739 125.14116218150593,105.80208881113504 125.87059213232715,103.05728571410873 127.88520818715915,101.76007416265202 128.3193926817621,99.57924014900345 128.04151460522553,99.31603480613558 126.68685898219701,99.16563163341198" stroke="#44ffeb" stroke-linecap="round" stroke-linejoin="round" stroke-width="0.5"><title>2020-01-17 4.0km</title><desc>1579254321000</desc></polyline><polyline fill="none" points="160.15703624719754,107.4254428401764 158.90763372846413,107.53815082189976 159.1505731070647,107.0121800309571 158.66469434974715,107.65085877926322 160.9205600087298,109.07849078800064 160.46938687691,112.00888103593024 161.4411443915451,112.49727780284593 161.51055564265698,113.73705214838265 160.85114875761792,115.50278625823557 160.36527000041679,115.61549248697702 160.85114875761792,115.54035500393366 160.2958587494213,115.65306122449692 160.9205600087298,115.54035500393366 160.43468125129584,115.65306122449692 160.85114875761792,115.54035500393366 160.46938687691,115.65306122449692 160.85114875761792,115.54035500393366 160.46938687691,115.57792374680866 160.81644313212018,115.50278625823557 160.22644749830943,114.45086027748766 161.12879376194905,114.30058496343554 160.9205600087298,113.32379436204792 161.4411443915451,112.91053624692722 160.39997562603094,111.40777669212548 160.78173750673886,108.96578314059298 159.219984358293,107.80113601766061 154.91648679343052,106.71162505404209 153.3200280193705,106.67405566968955 152.7647380111739,107.91384391792235 151.41121861571446,107.38787350751227 150.6476948541822,105.80995907951728 152.00121424952522,104.23203985692817 151.9665086241439,102.42869773088023 152.83414926205296,100.77562861345359 148.49594607192557,98.70928481582087 143.9842147541931,97.50704464039882 144.78244414099026,94.31358065636596 141.93658284831326,93.56217451146222 141.3465872145025,92.51020408165641" stroke="#4dd2ff" stroke-linecap="round" stroke-linejoin="round" stroke-width="0.5"><title>2020-01-14 1.8km</title><desc>1578998916000</desc></polyline><polyline fill="none" points="165.57142857142026,95.98183929175138 166.15311618358828,95.56557401698956 166.98409848671872,95.34056529468216 167.2541677352856,95.08180486006313 167.28532957163407,94.74429060019611 168.59412669908488,95.18305899463303 169.48743267497048,95.2280608110159 170.1106694023474,95.67807825557247 170.76506796613103,97.18562717118766 171.26365734799765,97.65813948371215 171.6479866632144,97.69189030805137 171.19094639649848,99.31192123035726 171.30520646314835,100.40318251280405 171.83495768142166,101.03318552739802 171.9388304692693,102.13568464003038 171.75185945112025,102.42818308812275 171.86611951777013,103.3394247143151 171.44024108740268,104.23941118478251 172.06347781483782,105.39813606963435 171.34675557835726,106.70309741287201 171.6064375480637,107.00683683893294 171.86611951777013,107.01808643586992 172.03231597843114,106.82684317680832 172.5828417542507,106.83809278681292 173.05026929982705,107.4118218144431 173.4345986149856,107.43432094872696 173.8500897665508,107.82805526998709 174.20325724536087,107.78305711246503 174.4525519363815,108.14304200689367 174.62913567578653,107.88430294852878 175.61592716077575,108.30053513532039 176.03141831234097,108.23303809987556 177.12208258529427,108.49177657613473 177.66222108225338,108.33428364201973 178.10887407022528,108.48052708615432 178.05693767627236,109.21174223718117 177.45447550649988,109.92045516880171 177.5895101307542,110.46042475150898 177.41292639134917,111.06788828381104 177.48563734284835,111.90033444353321 178.6801744036493,112.7890220322297 179.23070017952705,112.40654951722536 180.0201333675068,112.45154633266793 181.13157219794812,112.12531912479608 182.19107463449473,112.30530663473473 183.08438061038032,112.84526791077224 183.46870992559707,112.87901542805776 183.74916645290796,112.59778589269263 183.66606822260655,112.8677662564296 184.31007950752974,112.84526791077224 184.51782508334145,112.98025793589477 184.43472685304005,113.41897470592812 185.1514490894624,112.50779233363573 186.48102077451767,112.00157759051945 186.42908438056475,111.68659869392286 187.33277763531078,110.97789383662166 187.51974865345983,110.23543765397335 187.92485252628103,110.12294398275844 188.18453449598746,109.74046488998283 188.71428571426077,109.49297791530262" stroke="#45ffef" stroke-linecap="round" stroke-linejoin="round" stroke-width="0.5"><title>2020-01-12 3.8km</title><desc>1578801197000</desc></polyline><polyline fill="none" points="30.31748003535904,135.4096884241153 22.78527062991634,134.6005198090861 22.095297249266878,134.16481300120358 21.4628216503188,134.53827600640943 19.967879325617105,134.1336910694372 15.39680567884352,134.07144719921052 12.8669032829348,132.6087136552378 11.946938775479794,132.67095773719484 12.234427683986723,135.22295734044746 11.889440993661992,137.30811650693067 11.889440993661992,136.96577763586538 11.285714285681024,137.15250796289183 14.045607808278874,134.56939790883916 14.735581188928336,134.5071541017387 28.56379769288469,136.43670793558704 29.512511091306806,136.09436837091926 29.5412599821575,135.31632289246772 31.208695652196184,135.47193210068508 32.502395740826614,136.56119498240878 33.76734693872277,136.00100298778852 34.428571428521536,133.35564204398543 34.169831410748884,132.2663710436027 32.96237799455412,132.07963859511074" stroke="#4dd2ff" stroke-linecap="round" stroke-linejoin="round" stroke-width="0.5"><title>2020-01-07 2.0km</title><desc>1578390268000</desc></polyline><polyline fill="none" points="60.14285714284051,138.84705712276627 58.133315158076584,137.86562758046784 56.94083969458006,138.1289382338582 49.03516902937554,135.73519724374637 47.1139585605124,137.41081777203362 43.426117775263265,139.20611597737297 41.9907306432724,139.61304887049482 40.31243184290361,139.49336277783732 38.943293347838335,134.75375838574837 38.50163576880004,134.32288186138612 38.17039258440491,132.98237349733245 37.772900763200596,132.71905871029594 37.88331515796017,131.95305085441214 37.0,130.3252782174677 37.552071973797865,129.77470623151748 37.94956379488576,129.91833379524178 38.03789531067014,130.49284342094325" stroke="#4dd2ff" stroke-linecap="round" stroke-linejoin="round" stroke-width="0.5"><title>2020-01-03 1.6km</title><desc>1578051310000</desc></polyline><polyline fill="none" points="81.57747353228478,146.26530612244915 81.5922181069036,146.2333830169091 81.64212282098742,146.23092739091862 81.6648067819333,146.19900422069713 81.7079063077399,146.21373799903085 81.68975913897884,146.249344577187 81.75554262572405,146.23952208033097 81.78503177496168,146.12410731635282 81.74646904134715,146.1106012820237 67.12325361654803,123.68800625763106 67.05633593175298,123.6744822835617 67.03478616884968,123.65235212074185 67.03478616884968,123.38432895053393 66.9576607016279,123.30072451983415 66.97013688015431,123.27736438411011 66.95085551335069,123.23802092435471 66.96446588991239,123.12982593594006 66.95085551335069,123.12244897959226 66.95425810748566,123.14826831267146 66.89754820512462,123.23802092435471 66.8918772148827,123.29703607950432 66.84877768908336,123.33023201336891 66.81588594571076,123.38924684529593 66.819288539853,123.45072040858122 66.86579065979458,123.53432409445941 66.83743570860679,123.53432409445941 66.81134915351868,123.57243740172635 66.78639679647313,123.5650606393092 66.80454396523419,123.57735524154032 66.78979939061537,123.59087929362522" stroke="red" stroke-linecap="round" stroke-linejoin="round" stroke-width="0.5"><title>2020-01-02 25.8km</title><desc>1577967091000</desc></polyline><polyline fill="none" points="92.5264065247029,123.12244897960045 92.16094963101204,123.28069738937484 92.3254052331904,123.91369011235656 92.92840910772793,123.65653699544782 93.7141414291691,124.60602422487864 96.5829780442873,125.57528903684579 96.65606942295562,126.38630389183527 95.9434284804156,128.72043078001298 96.21752115059644,128.4435015131312 97.38698321033735,128.46328218434064 100.45682111696806,129.88748675127863 101.6080103321001,130.105072906852 101.35219050652813,131.09409870415402 101.91864869161509,131.96443844643363 101.95519438106567,132.6171914350125 104.80575815157499,133.60620814547292 105.29912495799363,134.57544105091074 106.6147697751876,135.36664903900237 106.99849951360375,136.71169736457523 107.83905036887154,137.6809192624496 107.0350452028215,141.75556966323347 105.86558314308058,143.23904381137982 105.68285469640978,144.94008426432265 105.31739780271892,145.4939091054548 104.23929996637162,145.4939091054548 103.27083919814322,144.78184838945162 102.59474394493736,144.62361242299085 101.80901162349619,144.99942269379972 101.13291637029033,145.98839462309843 99.74418017442804,146.2653061224555 98.11789699760266,145.8499387683114 97.1128905400401,146.1268504078471 96.50988666550256,145.5730268483603 95.852064257022,145.6917034197977 94.92014917812776,144.36647878224903 94.8836034887936,142.11160419265798 95.57797158672474,141.22151699991082 97.62453019118402,139.81715131561214 99.10463061043993,136.43477619135228 99.8903629318811,133.54686724371277 101.40700904058758,132.28092493856093 101.91864869161509,132.2018033498607 101.64455602143425,131.58861026124214" stroke="#46fff5" stroke-linecap="round" stroke-linejoin="round" stroke-width="0.5"><title>2019-12-27 3.5km</title><desc>1577439449000</desc></polyline><polyline fill="none" points="118.66037313133711,123.12244897960045 118.66037313133711,123.81921272017644 117.77319793595234,124.34649214867386 118.53860398684628,124.49714321775537 118.93870260438416,124.94909590166935 119.30401003774023,124.79844509421673 119.33880122192204,125.3633851724444 119.98243812838336,125.3633851724444 120.39993233792484,125.77767378374119 121.89595325564733,125.89066147236736 124.97497305140132,127.17118518181087 124.43570969736902,127.84910694796417 124.20956700050738,128.67767559742788 124.03561107983114,129.43091753526824 124.3139405528782,129.9581855947181 124.88799509109231,130.3536359383288 126.03610416752053,130.1841572932026 127.70608100586105,130.8809021285706 127.51472949318122,132.31204783226713 127.8800369265955,132.63217145219096 128.01920166308992,133.29124825354666 130.24583744758274,133.89383129728958 130.90686994610587,134.3269369983609 131.28957297158195,135.19314623861283 132.31591290346114,135.7580637554638 132.83778066554805,137.132691258681 133.6553734926274,138.1118735463533 132.97694540204247,141.91558518361126 132.0549790225341,142.93240957372473 131.585298036749,145.11668557631492 131.28957297158195,145.45562331363908 128.80200330604566,145.24849474879738 127.53212508524302,146.05817820175434 126.34922482469119,146.0016887402162 125.53163199755363,146.2653061224555 124.43570969736902,145.94519926648354 123.49634772579884,146.09583783593553 122.85271081933752,145.64392186599434 122.36563424149062,145.7569009320141 121.58283259853488,144.72125765835517 121.14794279681519,143.76093021461566 121.46106345398584,142.0285658674984 123.8094683830277,140.2208690414118 124.88799509109231,137.54696113755926 125.54902758967364,136.4736241834762 125.61860995792085,136.75608170575288 125.75777469441528,136.60543773205427 125.94912620715331,135.47560515032092 126.3666204168112,134.81653387965343" stroke="#46fff7" stroke-linecap="round" stroke-linejoin="round" stroke-width="0.5"><title>2019-12-24 3.5km</title><desc>1577181063000</desc></polyline><polyline fill="none" points="140.60494884802029,123.41283186560031 140.71224622172303,123.15148727764608 141.27555743406992,123.93552053094027 143.87751874839887,125.00993398285937 146.42583137576003,125.59069681333494 148.27671107358765,127.18779026361881 151.62975400441792,129.046218277741 152.1930652166484,130.44003364106175 151.8979974386748,131.891919497255 152.9709711766336,132.44363474554848 152.70272774226032,134.18588844535407 153.5074580454966,134.9989375839068 153.48063370212913,135.81198507544468 156.43131148116663,136.74118019198067 157.665231279796,137.61229866021313 158.46996158303227,138.8899356604088 160.3208412808599,140.08045738685178 160.99144986690953,142.14208422004594 162.11807229171973,143.24548578078975 161.55476107937284,146.2653061224555 162.2521940090228,143.1003015381866 161.04509855387732,141.99689957831288 160.15989522018936,139.6739381698717 158.36266420932952,138.62860115032527 158.01394774438813,137.3800005868252 156.484960168018,136.21850820363034 156.45813582465053,132.99534923542524 154.98279693513177,132.35652186203515 152.67590339866,132.18229603825603 151.62975400441792,131.19501494173892 150.3153611754533,131.45635429187678 148.9473196597537,130.3819580975105 146.96231824473944,130.8175244689046 144.8968437993899,129.85927782795625 145.9698175372323,124.25494104679092 144.22623521322384,123.55802322979434 141.16826006025076,123.1224489795859" stroke="#48f9ff" stroke-linecap="round" stroke-linejoin="round" stroke-width="0.5"><title>2019-12-18 2.9km</title><desc>1576665843000</desc></polyline><polyline fill="none" points="165.57142857147846,128.77358682782506 166.74556551594287,128.00427165770088 168.72305931721348,128.3053081810067 169.8971962617943,129.14151971740648 173.9139805455925,129.44255550010712 174.43925233650953,130.27876497930265 176.6639328629244,131.14842123293784 179.8464619492879,133.2556584473641 179.6919702460291,136.63390758947935 182.41102422273252,138.10561236736248 182.1020408164477,139.77799847372808 182.75090596987866,141.11590300308308 186.98397863807622,141.38348344436963 188.31260728591587,140.48039883442107 188.7142857144354,137.3028648875188 187.8491321762558,137.00183422322152 186.58230020990595,138.74111980036832 182.56551592599135,138.3397467865143 182.00934579444584,139.67765547792078 182.56551592599135,140.91521757052396 187.01487697882112,141.31658834853442 188.12721724191215,140.61418925825274 188.59069235168863,139.711103145557 188.55979401106015,137.1690735053271 187.63284379174002,137.10217779970844 186.6440968910465,138.74111980036832 185.34636658406816,138.54043333698064" stroke="#4dd2ff" stroke-linecap="round" stroke-linejoin="round" stroke-width="0.5"><title>2019-12-13 1.9km</title><desc>1576234111000</desc></polyline><polyline fill="none" points="23.299718152731657,155.40535632931278 31.946958543965593,163.93052058195462 19.89529280178249,176.0668406354962 19.48676175973378,176.8775510204141 29.24611443222966,164.27447084497544 29.087241249275394,165.2817517546937 27.77086344687268,166.9523574100167 27.407724742777646,169.6547903395549 27.04458603868261,170.12157203175593 25.955169926397502,170.49008344105096 23.91251471580472,170.21984178002458 22.21030204044655,171.5710479353147 21.234366773162037,171.81672120431904 18.69239584438037,171.2762397779734 16.717829140950926,171.3253744886024 15.514932183548808,170.58835308265407 13.767327170236968,167.78765715652844 13.926200353191234,165.84681046937476 14.561693085357547,164.64298859753762 16.649740634020418,163.43916245913715 17.60297973221168,162.11249197716825 18.079599281423725,160.44186251758947 17.920726098236628,159.4099990403338 19.23710390063934,154.84028024337022 21.415936125209555,153.7346938775445 23.980603222968057,154.2506346295122" stroke="#44ffea" stroke-linecap="round" stroke-linejoin="round" stroke-width="0.5"><title>2019-12-10 4.0km</title><desc>1575971978000</desc></polyline><polyline fill="none" points="50.469474575598724,154.55654847581172 53.202660821261816,155.1482828661101 54.62999141635373,156.16737917653518 55.1766286654165,157.41659089099267 57.05949030152988,158.43568211459205 58.183133535902016,161.13133175327675 59.64083286712412,162.6106448819046 58.36534595233388,168.8237074413919 56.2395344277611,171.78227880853228 55.81437212286983,174.70795822230866 54.842572568915784,175.52977489455952 53.99224795901682,175.59552016414818 51.957542642834596,174.44497657331522 50.16578721476253,174.31348569178954 48.37403178703971,176.31871750197024 45.82305795745924,176.8775510204141 43.302452864241786,176.28584492075606 41.57143490854651,176.68031573941698 40.538897882332094,175.69413805066142 39.59746706439182,175.89137375957216 37.86644910858013,173.65603071363876 37.50202427583281,172.0123891076655 37.74497416440863,170.17150345243863 38.89898613479454,170.46736057847738 39.41525464784354,169.842773086566 41.35885375610087,169.25105782886385 41.93585974117741,168.42922980402363 43.332821600255556,163.23524231262854 44.48683357075788,160.73684743908234 45.48900186084211,155.50989794757334 48.58661293948535,153.7346938775445" stroke="#49edff" stroke-linecap="round" stroke-linejoin="round" stroke-width="0.5"><title>2019-12-03 2.4km</title><desc>1575366158000</desc></polyline><polyline fill="none" points="76.02625363285188,154.0801187256002 79.94246716413181,155.65022820714512 80.58066492469516,157.06332188477973 82.58228517416865,158.19379351483076 83.36552788049448,160.54893328881008 84.61291441263165,161.83640429700608 83.59759979345836,168.0224922351481 81.85706044617109,170.40897975620464 81.1898536963854,174.42829750929377 79.73940424027387,175.18191544571891 77.09958623046987,174.8679081311857 74.63382215506863,176.72054800458136 72.54517493839376,176.8775510204141 69.99238389579114,176.02973406080855 67.38157487486023,176.0925353737839 66.16319733194541,175.2447168813378 64.21959506068379,172.5128460333217 63.958514158730395,170.62878715764964 64.3936489954358,168.5249117508065 65.55400856025517,167.36306573846377 67.75869173347019,166.16981524627772 68.68697938532569,164.88235708946013 70.74661761289462,155.77583672027686 71.96499515592586,154.51974995288765 73.85057944885921,153.7346938775445 76.08427161118016,154.17432545466" stroke="#49f0ff" stroke-linecap="round" stroke-linejoin="round" stroke-width="0.5"><title>2019-12-02 2.5km</title><desc>1575284482000</desc></polyline><polyline fill="none" points="101.01040733617265,153.7663972574519 104.61272914300207,154.74920089697116 105.54991855623666,155.4466731105349 106.13566193939187,156.87331736271153 108.1857637806097,157.98292634802056 109.15224036306608,160.64597645081813 110.44087580603082,162.1677121015673 109.15224036306608,168.5399227552407 107.95146642730106,169.5226932670921 107.19000002916437,171.13950447613024 106.545682307682,174.7535314973793 105.60849289444741,175.16565549309598 102.65048880921677,174.81693521427223 100.07321792293806,176.68734073644737 97.37879836012144,176.8775510204141 95.68014254886657,176.18011290894356 93.01501015515532,176.08500762598123 91.34564151300583,175.0705499900214 89.5591241940856,172.12226915961946 89.64698570151813,168.88864802778699 90.70132379140705,167.49374527280452 93.10287166270427,166.28905295740697 94.06934824492782,165.1160598899296 94.88938898139168,162.64325340892537 94.83081464306451,160.6142735685571 96.3830346086761,155.2881567958393 98.60885946499184,153.8298040102818 100.57109979866073,153.7346938775445" stroke="#49f0ff" stroke-linecap="round" stroke-linejoin="round" stroke-width="0.5"><title>2019-11-28 2.5km</title><desc>1574935151000</desc></polyline><polyline fill="none" points="126.49859269405715,153.7346938775736 131.11728935304563,155.4641619391041 131.9306447393028,157.06784435655572 133.9349847988924,158.16840729801334 134.63214655884076,160.33808036416303 136.17171211179812,162.16185514381505 134.98072743869852,168.04190448715235 133.00543578574434,170.9032901058381 132.4825644659577,174.51929993974045 131.55301545292605,175.14816814524238 128.2124486869434,174.86517756531248 125.53999527427368,176.72033467961592 124.20376856799703,176.8775510204141 121.44416993518826,176.06002542757778 118.1036031692056,175.87136545716203 116.15735992311966,173.41877839129302 115.25685931672342,171.50071989151184 115.8378274498973,168.3563433882373 119.17839421564713,166.12382226527552 120.31128207559232,164.64594986304292 120.83415339537896,162.413409685425 120.63081454881467,161.18707992034615 122.02513806836214,155.55849636273342 124.5813978544902,153.89191853106604 126.12096340744756,153.8290286764386" stroke="#49f0ff" stroke-linecap="round" stroke-linejoin="round" stroke-width="0.5"><title>2019-11-26 2.5km</title><desc>1574762192000</desc></polyline><polyline fill="none" points="152.55992224963848,153.95450972180697 156.82424457580782,155.4932175145368 157.57847845670767,156.96911578264553 159.69613512197975,158.22519546249532 160.59541397972498,160.7687456823478 161.87180977815297,161.9934126951557 160.62442297523376,168.49351054796716 158.7968562641181,170.66018820580211 158.30370334198233,174.1456904458464 157.4624424749054,175.08771327522118 153.9523540296359,174.8051066410262 151.89271535503212,176.3751411701669 150.2101936211111,176.8775510204141 147.13524010707624,176.02973406083765 144.29235855618026,175.9669327387237 142.92893577180803,174.93070961229387 141.24641403765418,172.38724236254347 140.98533307900652,171.31960969461943 141.33344102394767,168.80752247269265 142.46479184518103,167.4572695849347 145.62677234539296,165.10216728880187 146.3810062261764,162.966863497335 146.75812316662632,158.85323393938597 148.55668088246603,154.83377198548988 150.2972206074046,153.7346938775736 152.29884129099082,153.86030294501688" stroke="#49f0ff" stroke-linecap="round" stroke-linejoin="round" stroke-width="0.5"><title>2019-11-21 2.5km</title><desc>1574331730000</desc></polyline><polyline fill="none" points="178.04704345413484,153.8609883787285 182.13046550529543,154.87134307218366 182.94714991550427,155.62910755732446 183.3846594209317,156.95519224059535 185.3097012451617,157.90239311908954 186.3597240584204,160.6808371709485 187.6430852743797,161.8174682763638 186.33055675798096,168.5109025288839 184.58051873603836,170.72097620519344 183.9680054282071,174.32021510080085 182.9763172158273,175.0779458238976 179.4762411719421,174.88851326648728 177.5220320476219,176.53025936722406 176.00533242861275,176.8775510204141 172.70942748733796,176.02510737837292 170.34687615768053,176.08825140903355 169.12184954236727,175.393666570395 166.96346931532025,172.45745481576887 166.64262901141774,171.41556847837637 166.87596741423476,169.3002158406598 167.7801537255291,167.72158779000165 170.49271265941206,166.20609949040227 171.2802297694143,165.29048942637746 172.18441608070862,162.4489287226461 172.00941227853764,161.15443382461672 172.9427658902714,156.3237238462316 174.0219560037367,154.93449016282102 176.70534763729665,153.7346938775736 181.86795980203897,154.71347530547064 182.8888153147418,155.53438706856105 183.3554921207251,156.7026049924607 185.3097012451617,157.96553977116127 186.09721835504752,160.1440936756553 187.52641607285477,161.72274913059664 187.40974687144626,162.41735572202015" stroke="#47fcff" stroke-linecap="round" stroke-linejoin="round" stroke-width="0.5"><title>2019-11-20 3.0km</title><desc>1574243958000</desc></polyline><polyline fill="none" points="23.736145720235072,184.9915181976976 27.252157172188163,185.88165007560747 28.017740310984664,186.46483891413664 28.726613587583415,187.93815451461705 30.711458761943504,189.07383179842145 31.562106693862006,191.52933985862182 32.95149831601884,193.15610612308956 31.618816556059755,199.2947905747278 29.94587562326342,201.1363785942085 29.407131933025084,204.81953065894777 28.9250981049845,205.40269347134745 27.90432058670558,205.70962094547576 25.267311997828074,205.4333862287458 22.88549778831657,207.121484467556 21.4393963040784,207.4897959183727 18.40541868028231,206.59970936525497 16.250443919328973,206.6610947047884 14.605857917689718,205.77100641361903 12.762787398416549,203.19280910491943 12.847852191654965,199.7858814946958 13.8686297100503,198.34330030009733 16.56234816100914,196.716553921171 17.384641161886975,195.36604275577702 17.78161019680556,191.86697110562818 19.90823002671823,186.34206238313345 21.609525890555233,185.1449893444369 23.93463023775257,185.05290666304063 27.33722196542658,185.97373257708387 29.180292484583333,188.1530126122525 27.875965655548498,186.34206238313345 25.522506377194077,184.8687412404106 23.79285558243282,184.34693877553218" stroke="#48fbff" stroke-linecap="round" stroke-linejoin="round" stroke-width="0.5"><title>2019-11-14 3.0km</title><desc>1573726346000</desc></polyline><polyline fill="none" points="49.739714554394595,184.34693877553218 53.156951054465026,185.29544060869375 54.12078699027188,185.99100731147337 54.67572283220943,187.3189043062448 56.80784475104883,188.58356435992755 57.508816340821795,190.95479209758923 59.144416716881096,192.5672196110536 57.71326638769824,198.98525448155124 55.990044562960975,200.97703924635425 55.28907297330443,204.92896627786104 53.91633694327902,205.68773217964917 50.79117193899583,205.4980408277188 47.841249832184985,207.45818082909682 43.95669893885497,206.6045725539443 42.23347711400129,206.7626482862397 40.1013551952783,205.78257782480796 37.998440425959416,201.98873596882913 38.31971907126717,199.58595242991578 39.07910496019758,198.4161714531947 42.145855665323325,196.5824544330535 42.905241554253735,195.38104945566738 43.6062131440267,193.10469412701786 43.40176309691742,191.65034979372285 44.131941836327314,190.57539652410196 45.65071361407172,185.73807409303845 47.724421233753674,184.5366393068398 49.856543152593076,184.44178905145964 52.864879558677785,185.20059051801218 54.0039583920734,185.99100731147337 54.79255143040791,187.44537047631457 56.63260185357649,188.39386558518163 57.42119489214383,190.8599432350893 58.96917381940875,192.50398727157153 57.684059238177724,199.11171727607143 56.10687316127587,200.85057699144818 55.113830075832084,205.15027313525206 54.38365133642219,205.65611695998814 51.37531493033748,205.43481035868172 47.344728289404884,207.4897959183727 43.664627443184145,206.6361877049785 42.02902706700843,206.8574936981313 39.54641935334075,204.9605815500836 38.02764757559635,202.02035145362606 38.78703346452676,198.9220230705978 39.80928369960748,197.81547189719277 41.8829913190566,196.7721496539598 43.19731304992456,194.7171137094556 43.63542029366363,192.9149973144522 43.40176309691742,191.58711732167285 44.131941836327314,190.32246595877223 45.21260637056548,186.1174738657719 46.965035344823264,184.78957322056522 49.739714554394595,184.4734058054746" stroke="#41ffd1" stroke-linecap="round" stroke-linejoin="round" stroke-width="0.5"><title>2019-11-12 5.0km</title><desc>1573552434000</desc></polyline><polyline fill="none" points="75.36270820139907,189.2088047064899 78.43328659946565,190.49867593328236 79.21238858113065,191.8381524561264 80.65601872350089,192.60710883658612 81.54969452612568,194.78994336008327 82.5808589134831,195.75733148943982 81.618438818492,200.39579563273583 80.15189391199965,202.50416768551804 79.62485433614347,205.50547495565843 78.86866711871698,206.17518456402468 77.83750273124315,206.42322482788586 77.26463362714276,205.97675222385442 76.18763971142471,205.97675222385442 74.67526527645532,207.19214850585558 73.66701565310359,207.4897959183727 70.9401587175671,206.8696968507429 69.26738093351014,206.8696968507429 68.07581319694873,206.3984208095644 66.8842454602709,205.13341349709663 65.99056965787895,203.37231711641653 66.42595017701387,200.81747108025593 69.49652857508045,198.75869780493667 71.28388018009719,194.64111417491222 72.63585126574617,190.37465006462298 73.46078277565539,189.65529914182844 74.60652098397259,189.5808834429772 74.35445857816376,189.25841522804694 75.06481626734603,189.33283099686378 75.04190150310751,188.63828319308232 74.33154381392524,187.34840496772085 74.53777669148985,186.13293835319928 72.17755598248914,185.01668970740866 70.73392584000248,185.11591195646906 68.35079036687966,184.34693877553218" stroke="#48faff" stroke-linecap="round" stroke-linejoin="round" stroke-width="0.5"><title>2019-11-11 2.9km</title><desc>1573466455000</desc></polyline><polyline fill="none" points="100.01442619750742,184.34693877550308 104.89048101799563,185.62748015925172 106.07342922897078,187.59513390788925 108.03539211524185,188.7507358979201 108.95866876770742,191.15562742052134 110.40128853695933,192.65477379976073 109.13178314000834,199.18224632163765 107.45834420749452,201.1186067525996 106.88129629974719,204.7102200470108 106.24654360115528,205.70962017291458 102.46687980543356,205.459770358284 99.6393450575415,207.42733373583178 97.64852977578994,207.33364044487826 95.74427168024704,206.6465556905314 93.26296567707323,206.70901798616978 91.67608393076807,205.70962017291458 89.48330188135151,201.93062628468033 89.82953062595334,199.99426949501503 90.57969290600158,198.6513072673115 93.23411328170914,197.02725434259628 94.15738993417472,195.90290643202025 95.0229617956793,193.248184470227 94.93640460947063,191.65534345866763 95.8308288664557,190.34358762507327 96.81181030953303,186.18966785966768 99.00459235918242,184.84666269423906 101.39934117626399,184.659266292525 104.48654748254921,185.44008409645176 105.49638132122345,186.22090048817336 106.15998641506303,187.65759895945666 108.09309690597001,188.7507358979201 109.160635535256,191.3430210025981 110.51669811853208,192.74847027566284 109.21834032610059,199.15101463059545 107.57375378906727,200.96244897521683 106.79473911353853,205.05376410117606 105.7849052749807,205.77208260408952 102.55343699164223,205.49100159300724 100.10098338371608,207.30240934339236 98.54295403277501,207.4897959183727 95.97509084339254,206.77148027266958 93.0898513046559,206.58409338598722 91.67608393076807,205.67838895402383 89.82953062595334,203.14865271985764 89.54100667219609,201.21230139193358 90.00264499825425,199.40086809539935 90.66625009221025,198.43268511400674 94.15738993417472,196.12152986609726 94.90755221410654,193.65420182753587 94.93640460947063,191.65534345866763 95.71541928488296,190.3748199531692 96.7252531235572,186.34583097978611 99.12000194052234,184.8154299663438" stroke="#41ffd1" stroke-linecap="round" stroke-linejoin="round" stroke-width="0.5"><title>2019-11-06 5.0km</title><desc>1573034903000</desc></polyline><polyline fill="none" points="126.32178571424447,184.3790175145259 132.16535714280326,185.3184730015637 132.97535714274272,187.04080276575405 135.28964285715483,188.29340192640666 135.4921428571688,190.45412695998675 137.28571428568102,192.08249232260277 134.65321428573225,196.62309415571508 133.90107142855413,199.06560509835253 131.93392857140861,201.13233436411247 131.44214285712224,204.60817497238168 130.8924999999581,205.45364549587248 127.39214285707567,205.391018106282 124.84642857138533,207.1132680187875 123.16857142862864,207.4264036306413 120.21785714279395,206.51830973260803 117.41178571421187,206.48699611597112 114.34535714273807,203.04248445833218 114.17178571422119,200.59999595102272 115.12642857141327,198.53326414414914 117.93249999999534,196.87360873265425 118.80035714281257,195.68366320087807 119.58142857148778,193.08456027062493 119.37892857135739,191.8319749731745 120.44928571418859,189.5773123045219 121.2303571428638,186.07003592318506 124.00749999994878,184.66085437475704 129.01214285718743,185.5063638543361 130.1403571428964,186.50844702488394 130.66107142844703,187.63578781898832 132.48357142857276,188.57523623807356 133.29357142862864,190.89253362169256 134.91357142862398,192.77141428604955 133.58285714290105,199.09691925172228 131.9628571427893,200.8818222512491 131.1817857142305,205.1091947411478 130.2560714285355,205.73546863681986 127.10285714280326,205.45364549587248 124.35464285709895,207.3324629708368 122.6189285714645,207.45771717934986 117.12249999993946,206.4243688758288 115.30000000004657,204.514233701193 114.14285714284051,202.0091256176238 114.51892857137136,199.28480412450153 117.8457142857369,196.90492304463987 119.03178571432363,195.30789024810656 119.69714285712689,193.02193109190557 119.46571428561583,191.58145747878007 120.39142857142724,189.76520130876452 121.2303571428638,186.16398119664518 122.06928571418393,185.4437335791299" stroke="#41ffd1" stroke-linecap="round" stroke-linejoin="round" stroke-width="0.5"><title>2019-11-04 5.0km</title><desc>1572862173000</desc></polyline><polyline fill="none" points="151.7206427763449,184.34693877553218 156.24774866807275,185.4851407284732 157.1823769811308,186.30717362870928 157.76651967677753,187.6666861861304 159.89864051609766,188.96296166279353 160.51199034659658,191.14448976129643 162.05996849026997,192.72530042013386 160.57040461618453,199.30141139982152 159.25608355086297,200.75573027666542 158.0877981594531,205.4031951209472 157.15316984639503,205.8141930354468 153.8819707505172,205.65611696013366 151.01967154140584,207.4897959183727 144.44806621491443,206.8258785631042 142.98770947568119,205.90903865304426 141.23528138862457,203.47466128508677 140.7971743667731,201.7674275112222 141.03083144500852,199.93372454951168 142.22832397127058,198.47940293786814 145.47031593241263,196.32952734429273 146.43415138020646,193.38923919195076 146.58018705411814,190.44893126009265 147.57322963699698,188.89972880194546 148.18657946726307,186.40202347931336 149.67614334146492,185.16897381670424 151.63302137202118,184.63148954170174" stroke="#49f0ff" stroke-linecap="round" stroke-linejoin="round" stroke-width="0.5"><title>2019-10-29 2.5km</title><desc>1572345074000</desc></polyline><polyline fill="none" points="178.1345451400848,184.34693877550308 182.0429625409888,185.48358797011315 183.0054832440801,186.43079337099334 183.38465806667227,187.5358637406316 185.30969947297126,188.51463801713544 186.30138747021556,191.16678954128292 187.70141758397222,192.5560053368099 186.41805664624553,199.1231474270171 184.63885171012953,201.23850388952997 184.20134229958057,204.67988279880956 183.61799641884863,205.5639023593685 179.62207713595126,205.50075816444587 176.76368232024834,207.4897959183727 170.05520469194744,206.6057802575815 168.742676460417,205.72176280687563 167.43014822877012,203.89057810712256 166.5842967017088,202.02781337639317 167.05097340617795,199.65988063425175 168.27599975571502,198.14439693835448 170.3468776323134,197.07092613712302 171.3385656295577,195.93430711727706 172.21358445065562,193.2190385896247 172.03858068643603,191.54566701495787 173.81778562266845,186.0834849626699 175.50948867679108,184.91526374284877 178.04704325797502,184.5679541285208" stroke="#49f0ff" stroke-linecap="round" stroke-linejoin="round" stroke-width="0.5"><title>2019-10-23 2.5km</title><desc>1571825161000</desc></polyline><polyline fill="none" points="25.456178535940126,215.18171694874763 27.6881187800318,215.78573527088156 29.009662345633842,217.82031719511724 31.15349968522787,219.09192611437174 31.887690554955043,221.412602907134 33.44417519890703,223.22462969113258 32.09326399851125,229.61434872887912 30.33120591111947,231.77602369250963 29.45017686742358,235.8768190421688 28.158000936731696,236.29007536629797 25.338707996881567,235.972185920662 23.018664848408662,237.7841526811244 21.462180204689503,238.10204081633128 18.143637473345734,237.14837572100805 16.20537357730791,237.24374232371338 14.73699183773715,236.5125978413853 12.651889767730609,233.6833751258091 12.270110515528359,231.4899202636734 13.415448272251524,228.88319155562203 16.910196812124923,226.46718528989004 17.64438768196851,224.68696164837456 17.703122951555997,222.20735241650254 18.78972543880809,219.7277291942446 19.435813404154032,216.42154313411447 21.932062361156568,214.95918367349077 25.10376691853162,215.14992648776388" stroke="#49efff" stroke-linecap="round" stroke-linejoin="round" stroke-width="0.5"><title>2019-10-22 2.5km</title><desc>1571739811000</desc></polyline><polyline fill="none" points="52.383983377949335,215.78460148518207 53.938332645222545,216.48303072861745 54.700843606493436,218.00687249240582 56.695103043690324,219.08625720697455 57.66290541749913,221.68946824368322 59.04129061696585,223.05456054248498 57.78021479630843,229.62599196031806 56.020574116380885,231.72121027729008 55.316717844456434,235.62590863529476 54.407570159761235,236.26081565429922 50.74165207659826,236.19732499372913 48.74739263940137,237.78458875315846 47.603626197436824,238.10204081633128 44.23098156100605,237.24491971891257 41.3862291284604,237.1814292007184 40.06649861857295,236.22907032520743 38.394839972723275,233.65769104028004 38.10156652587466,230.54661942232633 39.21600562322419,228.8323460467218 41.972776021808386,227.14981196369627 42.88192370638717,226.03870101438952 44.055017492966726,219.84817423071945 45.37474800297059,216.45128396898508 46.401205066242255,215.4671332798025 47.89689964405261,214.95918367346167 52.94120292656589,216.07032267359318" stroke="#49f0ff" stroke-linecap="round" stroke-linejoin="round" stroke-width="0.5"><title>2019-10-17 2.5km</title><desc>1571307242000</desc></polyline><polyline fill="none" points="66.05667465098668,215.2909249956865 66.97601971414406,215.2909249956865 67.22838894720189,214.95918367347622 68.2558922531316,215.27141081157606 68.4001032434171,215.75926499113848 70.72550546226557,216.32517473383632 75.25012528337538,218.99859435952385 75.66473188053351,219.97428835221217 75.6827582543483,220.9890063604107 76.18749672046397,221.34025401226245 75.9711802349193,222.60864450241206 76.49394507484976,223.1355126449489 76.54802419617772,223.77946119934495 76.99868354084902,223.89654258952942 77.23302640020847,223.79897476788028 78.96355828398373,224.48194877810602 79.54040224512573,224.9892997805582 79.84685059962794,225.76983792090323 80.89238027937245,226.25767311171512 81.59540885721799,227.87727961855126 82.51475392037537,228.85294149562833 81.70356709999032,232.9311699407408 80.62198467249982,234.16048029829108 80.11724620638415,236.6971347607032 79.54040224512573,237.02884935018665 77.46736925945152,236.8727484176925 75.50249451643322,238.10204081633128 73.37538240931462,237.53617675711575 71.66287689935416,237.516664182127 70.6894527147524,236.79469791759038 69.75208127766382,235.3702723243914 69.51773841853719,234.68732587972772 69.64392303489149,233.5165565238858 70.40103073406499,232.30675618538226 72.11353624402545,231.25305469606246 72.69038020528387,230.2383752981259 72.83459119556937,228.32608452028944 74.006305491901,224.67708389199106 75.48446814261843,223.91605614959553 77.21500002639368,223.99411037583195" stroke="#46fff8" stroke-linecap="round" stroke-linejoin="round" stroke-width="0.5"><title>2019-10-15 3.4km</title><desc>1571132883000</desc></polyline><polyline fill="none" points="96.10356581292581,214.95918367349077 98.49038675485644,216.21795289358124 98.97999105066992,218.20547267171787 100.0204001792008,219.13297747256001 99.75519785226788,220.3254795038374 100.42840375890955,221.18672807360417 100.4896042959299,222.00380780376145 103.75363293441478,222.99755047401413 104.22283705114387,224.057539089903 105.61004922247957,224.78627912834054 106.22205459221732,226.42041713252547 107.32366425753571,227.8337186226272 106.36485584510956,232.18399620783748 105.22244582162239,233.5751886489452 104.79404206282925,236.07048619366833 104.40643866208848,236.6446225659456 102.08081825717818,236.6225404177094 99.22479319863487,238.10204081633128 96.79717189876828,237.3733325607027 95.1039570425637,237.46166092675412 94.18594898795709,236.97585459731636 93.71674487111159,236.33547234581783 92.6763357425807,234.5468113561219 92.81913699558936,232.4931506314315 93.87994630308822,231.34486119428766 95.34875919029582,230.5719716414169 96.00156491808593,229.66658424810157 96.49116921389941,227.96621530182892 96.34836796089076,226.9504059580504 97.75598031131085,222.86505163824768 99.2859937355388,222.00380780376145 100.87720769667067,222.15839020939893" stroke="#48fbff" stroke-linecap="round" stroke-linejoin="round" stroke-width="0.5"><title>2019-10-09 3.0km</title><desc>1570615998000</desc></polyline><polyline fill="none" points="126.8358247979777,238.10204081633128 126.12748432403896,237.33419663124369 126.28489331831224,236.07578096276848 126.69809192803223,235.54255234907032 127.81963101192378,235.22261471356614 127.79995488771237,234.81735987216234 126.50133068533614,234.86001830297755 125.77331408695318,234.4974214421818 124.51404213323258,234.9666643528326 122.32999233831652,234.86001830297755 122.25128784123808,232.79107722992194 121.93646985280793,232.21518380811904 122.07420272263698,230.29553086677333 122.7038386996137,228.0559198196861 122.64481032674666,226.81879397211014 123.01865668804385,225.85895134171005 122.64481032674666,224.08856665811618 122.93995219096541,223.74728644889547 122.78254319669213,222.78743372199824 123.3137985522626,222.1048698631639 122.76286707248073,218.60670504253358 123.27444630360696,218.1587662762613 125.51752447139006,217.8388095939008 129.3346925813239,220.73973735870095 129.03955071722157,219.54524118147674 129.2756642085733,217.71082682273118 128.94117009581532,217.24155618200894 128.0754206276033,216.66563209195738 127.40643240208738,216.66563209195738 126.00942757842131,217.28421718048048 125.53720059560146,217.9028009583999 126.50133068533614,220.18515045559616 127.13096666219644,220.63308611302637 127.52448914782144,222.4034917477402 128.09509675193112,222.76610362555948 129.19695971137844,222.38216162327444 129.47242545126937,221.12368152066483 128.98052234435454,219.56657151321997 129.25598808424547,217.6894963554514 128.94117009581532,217.11357314902125 129.1182552143,216.23902092236676 128.84278947440907,215.12982896415633 128.4886192374397,214.95918367346167 127.58351752068847,215.3218047968985 126.81614867376629,216.62297100300202 125.55687671992928,217.88147050517728 126.50133068533614,220.31313214215334 127.05226216511801,220.611755859165 127.58351752068847,222.5528025754611 129.15760746295564,222.21152057131985 129.47242545126937,221.44363460334716 128.92149397160392,219.2679467271373 129.19695971137844,217.7534877527214 128.9018178471597,217.24155618200894 129.0985790900886,216.43099602582515 128.9018178471597,215.06583699185285 127.44578465062659,215.34313543725875 126.69809192803223,216.7082931745972 125.51752447139006,217.9028009583999 126.54068293375894,220.33446241775528 127.11129053798504,220.73973735870095 127.50481302349363,222.51014234678587 129.1182552143,222.23285070827114 129.4921015755972,221.50762517782277 129.0592268415494,219.60923217204981 129.21663583582267,217.49752207956044 128.01639225473627,216.686962634034 126.95388154371176,216.7296237136179 126.22586494544521,217.19889517725096" stroke="#42ffd7" stroke-linecap="round" stroke-linejoin="round" stroke-width="0.5"><title>2019-10-07 4.7km</title><desc>1570440244000</desc></polyline><polyline fill="none" points="140.96113074175082,219.42643833952025 139.85714285704307,219.91333422344178 140.143361938186,220.97565117076738 141.57445734459907,219.91333422344178 143.20999495172873,220.44449292769423 143.53710247320123,221.8166507789283 151.26501766755246,224.38390558894025 158.2160524984356,228.54460602189647 158.91115598147735,233.4577371176565 160.34225138812326,233.6347861502436 161.037354871165,231.90855589613784 160.87380111031234,230.13805826805765 162.99999999976717,230.58068315545097 151.91923271049745,224.02980211772956" stroke="#4dd2ff" stroke-linecap="round" stroke-linejoin="round" stroke-width="0.5"><title>2019-09-29 1.2km</title><desc>1569751752000</desc></polyline><polyline fill="none" points="169.41215112869395,214.95918367347622 169.89104442158714,215.40354623727035 169.34373780124588,216.12563375756145 169.6173911113874,216.82920425309567 170.52386770158773,217.16247381262656 170.93434766691644,217.01435406199016 171.1566909814137,217.27356356933888 171.5500676148804,217.16247381262656 171.7039976019296,217.60683255003823 173.31171079952037,218.40297335814103 175.05625065224012,218.81030025560176 178.20326372003183,220.90246910156566 178.68215701292502,221.97631903432193 178.69926034478704,222.86501901921292 180.443800197565,223.62411447904014 181.2647601282224,224.6238953074935 181.6752400935511,226.06801627553068 182.53040668804897,227.19738725177012 183.64212326088455,227.77132796915248 184.3262565364712,229.40057202534808 184.94197648449335,230.01153587261797 184.2578432089067,233.93648096216202 183.21453996363562,234.99176253619953 182.92378332151566,236.86163674677664 182.51330335612874,237.2874477764999 181.5042067746981,237.3244747890567 180.23856021487154,236.58393351972336 179.19525696954224,237.02825853838294 178.68215701292502,237.86136586977227 177.382303789258,238.10204081633128 176.09955389756942,237.805825465417 175.07335398421856,237.97244664245227 174.37211737665348,237.47258278586378 173.75639742868952,237.50960977170325 173.3288141314988,235.4916312370624 173.44853745464934,234.3622968576965 174.7141840144759,233.58471947073122 176.59555052238284,228.95623376584263 176.76658384123584,227.62321435882768 177.057340483414,227.84538474211877 176.68106718180934,227.84538474211877 177.2112704703468,226.1050449111499 178.4940203621518,225.3829855502263 179.1610503058182,223.86480281321565 179.02422365068924,222.86501901921292 175.9969339062227,221.79117281567596 174.73128734639613,221.88374594175548 174.44053070427617,221.56899717650958" stroke="#45ffec" stroke-linecap="round" stroke-linejoin="round" stroke-width="0.5"><title>2019-08-22 3.9km</title><desc>1566467457000</desc></polyline><polyline fill="none" points="16.891316047753207,250.44799329870148 17.43366393953329,252.14761725523567 17.72682496206835,252.3699969794252 17.814773268881254,251.97289016992727 18.034644035855308,252.2588071456703 18.313147007254884,253.32305037080368 18.89946905238321,254.16491073401994 19.090023717086297,253.7836913496576 18.826178796763998,252.92594529743656 19.309894484002143,252.17938580110786 20.54117077885894,252.54472374643956 21.303389437496662,253.24362941399158 21.43531189771602,252.8941768603254 21.743130971386563,252.73533460528415 22.03629199397983,252.8782926400454 22.43205937440507,252.35411272094643 22.901117010507733,252.17938580110786 23.194278033101,251.86170013359515 22.959749215107877,251.79816294452758 23.780600078229327,251.67108851083321 24.410896276822314,250.68625913800497 25.23174714000197,251.19455872474646 25.539566213730723,252.71945037342084 25.36366960022133,253.33893455867656 24.99721832195064,253.68838639941532 25.43695985589875,254.70497038730537 25.305037395679392,255.08618816059607 24.982560270815156,255.16560844612832 25.173114935518242,255.19737655221252 25.173114935518242,256.0551136673457 25.59819841827266,256.49986491698655 26.477681485994253,256.6904723175976 27.020029377774335,257.5958551950025 27.37182260485133,257.6752745663107 27.547719218360726,258.4853505007777 28.03143490559887,258.99363190331496 28.163357365701813,259.5495633305545 28.691047206462827,260.2484465422167 28.55912474624347,260.3278649472777 29.130788740236312,260.94732751372794 29.204078995913733,261.5826719075267 30.274116728338413,262.2338979898923 30.772490466712043,262.29743213768234 31.622657432220876,263.20279173234303 31.38812861405313,265.18821627924626 31.25620615389198,265.41058270278154 31.065651489247102,265.172332954593 30.75783241551835,265.20409960273537 28.339253979269415,266.03003082991927 26.814816661993973,267.20538910590403 26.448365383665077,266.64947719730844 26.081914105452597,267.18950592815236 24.63076704373816,267.6818838995823 23.86854838504223,267.6818838995823 22.520007681217976,268.7142857142899 22.153556403005496,268.2219100738148 21.391337744309567,268.0313127532427 20.90762205707142,266.91949172988825 20.40924831869779,266.9671413185861 19.647029659943655,266.554177870712 19.324552535137627,267.18950592815236 19.251262279518414,266.91949172988825 18.84083684789948,266.9830245124904 19.075365665950812,266.4747617333778 18.752888541144785,266.07768061291426 18.60630802984815,266.17298014779226 18.914127103576902,266.1094471291435 19.251262279518414,265.18821627924626 20.04279704048531,265.10879964448395 21.2740733352839,263.93343006783107 22.945091163914185,264.5687657608214 23.223594135430176,264.3781652473117 23.223594135430176,263.93343006783107 22.76919455040479,263.3139759848418 22.85714285710128,262.6309861099289 22.212188607547432,261.4079523838009 22.13889835187001,259.9784237487329 21.86039538041223,260.18491179739067 21.5379182556062,261.233232720042 20.980912312632427,261.0267456642323 20.40924831869779,261.3761851825984 18.89946905238321,259.07305076540797 18.884811001305934,258.0882548305526 18.386437262874097,257.8023455001385 18.181224547093734,256.4522130407422 17.550928348558955,255.8803897138714 16.686103331972845,255.5627094397496 15.586749497335404,254.37140428884595 16.158413491386455,253.97430112512666 16.466232565057,254.33963606234465 16.847341894346755,254.11725834741083 17.946695729042403,254.19667898594344 17.19913512148196,254.14902660629014 17.550928348558955,253.64073390865815 17.301741479430348,253.7836913496576 17.287083428294864,252.81475574724027 16.891316047753207,252.43353400181513 16.524864769540727,251.0992526425107 15.70401390636107,249.59023412072565 16.187729593599215,249.71730976746767 16.466232565057,249.46315839987074 16.04114908230258,249.17723775707418 16.173071542405523,248.71658704373112 15.821278315386735,247.84293646500737 15.821278315386735,247.04870562735596 15.147007963445503,246.1432789421524 14.736582531884778,246.19093307199364 14.091628282156307,245.5714285714348" stroke="red" stroke-linecap="round" stroke-linejoin="round" stroke-width="0.5"><title>2019-07-21 5.8km</title><desc>1563683200000</desc></polyline><polyline fill="none" points="43.35688532702625,253.06633734804927 44.573612084030174,247.7666035563161 45.297854201402515,246.88853489627945 47.58645929186605,245.7595868628414 53.235547806485556,246.82581563820713 54.133608032017946,247.67252485634526 54.62609267164953,248.92690584328375 56.65397059987299,249.89904861157993 57.436152086709626,252.00012392149074 59.000515059917234,254.16390725394012 57.75481861829758,259.96530202621943 55.95869816734921,262.28583819954656 55.43724384298548,266.0802016725065 54.886819833889604,266.80144056054996 50.628276184317656,266.80144056054996 49.26670100400224,268.2752728185733 47.38367149909027,268.7142857142899 44.54464239941444,267.8049013656273 41.47385582223069,267.7421851332765 39.33009915507864,265.9234104512143 38.14234208280686,263.63425216267933 38.60585703793913,260.3729646856664 39.24319010099862,259.49492155821645 42.40088573237881,257.64475343280355 42.83543100266252,256.82942260001437 43.73349122796208,251.68653123814147 45.12403609324247,247.26485025405418 46.34076285012998,246.19862255861517 47.905125823454,245.57142857142026 52.33748758106958,246.48085955673014" stroke="#47fcff" stroke-linecap="round" stroke-linejoin="round" stroke-width="0.5"><title>2019-07-16 3.0km</title><desc>1563273542000</desc></polyline><polyline fill="none" points="69.9456961080432,255.3946409469354 71.22797420597635,250.91016339109046 72.01706842018757,249.94919682428008 74.03912234387826,249.14838944014627 78.30516293901019,250.16274516648264 79.21755312406458,250.9635503492318 79.53812264860608,251.87112745534978 81.2642662419239,252.91216903415625 81.85608690266963,254.72731142892735 83.18768338894006,256.38228641898604 82.05336045613512,261.8276356141141 80.4751720278291,263.45588619061164 80.15460250340402,266.5522117304499 79.78471459040884,267.0326737102296 78.79834682273213,267.2995967620809 76.3570865978254,267.0059813944681 73.86650798446499,268.7142857142899 68.68807720427867,268.12705699616345 67.0112519991817,267.2462121672579 65.45772276516072,264.4168175862869 65.72897390124854,261.6674794316932 68.73739559261594,259.7989855010237 69.37853464158252,258.7846562625782 70.1429696616251,256.40897950323415 69.9456961080432,255.26117513989448 71.42524775955826,250.5364544680342 73.00343618786428,249.41532542783534 74.31037347996607,249.22847025666852 78.13254857959691,250.16274516648264 82.6205219225958,258.277490597975 81.9054052910069,261.560708604753 80.49983122199774,262.94872694520745 80.10528411495034,265.53790105250664 79.04493876476772,266.60559642579756 78.28050374484155,266.60559642579756 76.85027048166376,265.6713631429884 75.66662916052155,265.4845162027341 74.63094300439116,265.96497957245447 74.03912234387826,267.1394429542124 71.52388453634921,267.72667324356735 70.19228804996237,267.2995967620809 68.34284848556854,267.4063659288513 67.77568701910786,266.819135129801 67.03591119335033,266.92590443545487 66.04954342579003,265.83151758802705 65.3837451825384,264.3100475548126 65.90158826066181,261.50732317974325 69.27989786490798,258.9448136961437 69.9456961080432,257.50339429226005 69.87171852542087,255.1010161077138 70.68547193380073,251.39064573604264 73.7432120135054,248.32088665058836 74.33503267425112,246.77265064080711 74.38435106247198,245.81167329815798 73.94048556697089,245.57142857142026" stroke="red" stroke-linecap="round" stroke-linejoin="round" stroke-width="0.5"><title>2019-07-11 5.0km</title><desc>1562839476000</desc></polyline><polyline fill="none" points="94.9677885856945,252.87651772832032 96.21856945741456,247.52366267776233 99.5927690184908,245.57142857142026 105.2940027595032,247.08283638683497 106.1666405769065,248.65721394709544 108.1446196299512,249.91671189526096 109.33722464716993,252.78205615095794 110.44256588269491,253.82113237475278 109.30813671986107,259.83513088867767 107.47559730312787,262.35405845881905 106.77748704922851,266.4787708824442 105.67214581358712,267.0140360422374 102.5888255253667,266.57322948789806 99.82547243649606,268.5883415217977 98.31290021946188,268.7142857142899 95.75316262152046,267.83267560211243 93.04798538726754,267.83267560211243 91.15727011614945,266.4787708824442 89.55743411742151,263.7394624099834 89.58652204449754,261.6613548299356 90.22645644424483,260.1814842938038 93.4843042959692,257.91443882265594 94.32785418629646,256.7494247521099 94.99687651300337,254.48236140760127 94.88052480411716,252.81354334572097 96.3349211665336,252.30974795651855 96.77124007523526,252.53015851101372" stroke="#49f2ff" stroke-linecap="round" stroke-linejoin="round" stroke-width="0.5"><title>2019-07-08 2.6km</title><desc>1562581618000</desc></polyline><polyline fill="none" points="120.69065744115505,252.68514214619063 121.97577165055554,247.6265132750559 124.77965719834901,245.60304533233284 130.2413925882429,246.70963052430307 131.32205680990592,247.56328004368697 131.8185782090295,248.76470987586072 133.6878352407366,249.80805415607756 136.14123509521596,254.26595166145125 134.9145351680927,260.20974427764304 133.42497097072192,261.72729539786815 132.60717101919,265.8689185210678 131.99382105562836,266.7541458546475 128.0800641453825,266.8173763099185 124.92569290404208,268.7142857142899 121.36242168699391,267.9239077960665 119.05505753832404,267.9555229402031 116.89372909523081,266.31153241198626 115.28733633342199,263.30807221253053 115.57940774480812,260.5891325516277 117.06897194206249,259.13480904660537 119.11347182048485,257.9966394500516 120.31096460658591,256.0048355249455 120.8074860057095,251.9263515479979 122.1218073561322,247.3419636617473 125.13014289189596,245.57142857142026 129.10231408453546,246.36184690875234" stroke="#48faff" stroke-linecap="round" stroke-linejoin="round" stroke-width="0.5"><title>2019-06-20 2.9km</title><desc>1561025358000</desc></polyline><polyline fill="none" points="146.43999190512113,252.4986712958198 147.80712448596023,247.55515025282511 148.7088502306724,246.5475467190845 150.5995655019069,245.57142857142026 155.92265618860256,246.67349728834233 156.99890949681867,247.42919993869145 157.60975596914068,248.78316390595865 159.58773502206896,249.85373708448606 160.34402113058604,252.2467734919046 161.88568127481267,253.97856794987456 160.5767245485913,260.401890862704 158.7441851318581,262.6374368983961 158.1333386596525,266.3843122565304 157.23161291482393,267.0140360422374 153.50835822685622,266.9510637046769 151.58855502831284,268.4938833535707 149.84327939338982,268.7142857142899 147.25445386837237,267.9271339137049 144.60745248850435,267.9901061101991 142.92035270808265,266.7306604513724 141.05872536392417,263.70797600541846 140.97146158234682,261.4409488986712 142.07680281775538,259.70918412753963 145.50917823333293,257.3476756103046 146.55634361424018,254.2619518416177 146.32364019623492,253.09692799590994 147.31262972275726,251.58554106313386" stroke="#49f1ff" stroke-linecap="round" stroke-linejoin="round" stroke-width="0.5"><title>2019-06-19 2.5km</title><desc>1560939322000</desc></polyline></svg>