<?xml version="1.0" encoding="utf-8" ?>
<svg baseProfile="full" height="200mm" version="1.1" viewBox="0,0,200,200" width="200mm" xmlns="http://www.w3.org/2000/svg" xmlns:ev="http://www.w3.org/2001/xml-events" xmlns:xlink="http://www.w3.org/1999/xlink"><defs /><rect fill="#1a1a1a" height="200" width="200" x="0" y="0" /><text alignment-baseline="middle" fill="#e1ed5e" style="dominant-baseline: central; font-size:9.0px; font-family:Arial;" text-anchor="middle" x="100.0" y="100.0">2019</text><line stroke="#e1ed5e" stroke-width="0.3" x1="100.0" x2="100.0" y1="15.0" y2="10.0" /><path d="M 100.0 14.0 a86.0,86.0 0 0,1 42.46469731375804,11.215312516191453" fill="none" id="id1" stroke="none" /><text fill="#e1ed5e" style="font-size:6.75px; font-family:Arial;" text-anchor="middle"><textPath startOffset="22.20632615414155" xlink:href="#id1">January</textPath></text><line stroke="#e1ed5e" stroke-width="0.3" x1="143.23703022742887" x2="145.7803849466894" y1="26.81831364943548" y2="22.513508569990506" /><path d="M 143.74570117128098 25.957352633546492 a86.0,86.0 0 0,1 28.547481713284135,27.462654790039103" fill="none" id="id2" stroke="none" /><text fill="#e1ed5e" style="font-size:6.75px; font-family:Arial;" text-anchor="middle"><textPath startOffset="19.985693538727396" xlink:href="#id2">February</textPath></text><line stroke="#e1ed5e" stroke-width="0.3" x1="172.23445277983987" x2="176.4835382374775" y1="55.19839476539836" y2="52.563006222186495" /><path d="M 173.08426987136738 54.67131705675599 a86.0,86.0 0 0,1 12.851231095245387,41.99856678651699" fill="none" id="id3" stroke="none" /><text fill="#e1ed5e" style="font-size:6.75px; font-family:Arial;" text-anchor="middle"><textPath startOffset="22.20632615414155" xlink:href="#id3">March</textPath></text><line stroke="#e1ed5e" stroke-width="0.3" x1="184.98032266829074" x2="189.97916517819016" y1="98.17113171792111" y2="98.06355123074" /><path d="M 185.9800911702706 98.14961562048488 a86.0,86.0 0 0,1 -9.607161424134198,41.387399972396054" fill="none" id="id4" stroke="none" /><text fill="#e1ed5e" style="font-size:6.75px; font-family:Arial;" text-anchor="middle"><textPath startOffset="21.466115282336823" xlink:href="#id4">April</textPath></text><line stroke="#e1ed5e" stroke-width="0.3" x1="174.80103733775053" x2="179.2010983576182" y1="140.37084112569926" y2="142.7455964860345" /><path d="M 175.68104954172406 140.8457921977663 a86.0,86.0 0 0,1 -30.038265399797805,32.042727171017184" fill="none" id="id5" stroke="none" /><text fill="#e1ed5e" style="font-size:6.75px; font-family:Arial;" text-anchor="middle"><textPath startOffset="22.206326154141568" xlink:href="#id5">May</textPath></text><line stroke="#e1ed5e" stroke-width="0.3" x1="143.8653032363475" x2="146.44561519142675" y1="172.8068346515853" y2="177.08958963109032" /><path d="M 144.38136562736335 173.6633856474863 a86.0,86.0 0 0,1 -40.68145358897372,12.25698825130547" fill="none" id="id6" stroke="none" /><text fill="#e1ed5e" style="font-size:6.75px; font-family:Arial;" text-anchor="middle"><textPath startOffset="21.466115282336833" xlink:href="#id6">June</textPath></text><path d="M 104.83641907484287 120.43548508189849 l 6.328800245191413 26.74129371246156 a48.48000185516135,48.48000185516135 0 0,0 -0.8137249433971925,0.18520114785623631 l -5.8675551524013585 -26.84627159389548" fill="#ffef16" stroke="none" /><path d="M 104.48393922423573 120.51570834832081 l 6.755941236219547 30.91097204697251 a52.64065319926198,52.64065319926198 0 0,0 -0.8868910751349437,0.18585664787493056 l -6.222858699655225 -31.02268467557398" fill="#d1ff1d" stroke="none" /><line stroke="#e1ed5e" stroke-width="0.3" x1="102.19456741930631" x2="102.32365962044197" y1="184.97166512339345" y2="189.96999836594603" /><path d="M 102.22038585953345 185.97133177190398 a86.0,86.0 0 0,1 -42.740103519485714,-10.115201625700543" fill="none" id="id7" stroke="none" /><text fill="#e1ed5e" style="font-size:6.75px; font-family:Arial;" text-anchor="middle"><textPath startOffset="22.20632615414155" xlink:href="#id7">July</textPath></text><path d="M 98.01472825383883 120.90594882070398 l -2.6291633000643535 27.686463326092262 a48.81101852082115,48.81101852082115 0 0,0 -0.8357548184079978,-0.08662940412326493 l 3.105350715077945 -27.637104553513236" fill="#fff417" stroke="none" /><path d="M 96.93821686468263 120.77559828337769 l -7.936462598428017 53.85252692591554 a75.43419968074028,75.43419968074028 0 0,0 -1.2829709896835368,-0.2003736829575289 l 8.86226945172007 -53.70793493561091" fill="#40ffc4" stroke="none" /><path d="M 95.16358092515715 120.4354850818985 l -7.463054555290703 31.533896808765135 a53.40499701035464,53.40499701035464 0 0,0 -0.8927451799420789,-0.2194150448474472 l 8.004753019975992 -31.400760505603657" fill="#c6ff1e" stroke="none" /><path d="M 93.42475214034765 119.94407469862007 l -19.725743578957054 59.832224095860205 a84.0,84.0 0 0,0 -1.3693210682510968,-0.46454805240750785 l 20.752734380145377 -59.483813056554574" fill="#4dd2ff" stroke="none" /><line stroke="#e1ed5e" stroke-width="0.3" x1="58.666819895761336" x2="56.23545636021788" y1="174.27360380694188" y2="178.64263932499728" /><path d="M 58.180547188652646 175.14741091055294 a86.0,86.0 0 0,1 -31.652253787137756,-30.449443065178592" fill="none" id="id8" stroke="none" /><text fill="#e1ed5e" style="font-size:6.75px; font-family:Arial;" text-anchor="middle"><textPath startOffset="22.20632615414155" xlink:href="#id8">August</textPath></text><path d="M 83.95833913139862 113.55231037782056 l -32.08159758006714 27.103164153807082 a62.997742920752096,62.997742920752096 0 0,0 -0.692687182765729,-0.8343863343165925 l 32.5433807627264 -26.54691656237673" fill="#46ff2d" stroke="none" /><line stroke="#e1ed5e" stroke-width="0.3" x1="26.63291911575756" x2="22.317208475507996" y1="142.92168965132927" y2="145.44649492493687" /><path d="M 25.769776987707644 143.4266507060508 a86.0,86.0 0 0,1 -11.730757126820373,-40.83630448921669" fill="none" id="id9" stroke="none" /><text fill="#e1ed5e" style="font-size:6.75px; font-family:Arial;" text-anchor="middle"><textPath startOffset="21.46611528233685" xlink:href="#id9">September</textPath></text><path d="M 79.0235259727143 100.99374915477108 l -13.175320528683352 0.6241737110911064 a34.19009718899608,34.19009718899608 0 0,0 -0.02278992563124276,-0.5881067157841987 l 13.184112587165796 -0.39728974829291086" fill="#ff0000" stroke="none" /><line stroke="#e1ed5e" stroke-width="0.3" x1="15.007084014347285" x2="10.007500721073583" y1="101.09737516637583" y2="101.16192664675087" /><path d="M 14.007167355692545 101.11028546245083 a86.0,86.0 0 0,1 10.666146001902534,-42.60595125391555" fill="none" id="id10" stroke="none" /><text fill="#e1ed5e" style="font-size:6.75px; font-family:Arial;" text-anchor="middle"><textPath startOffset="22.20632615414155" xlink:href="#id10">October</textPath></text><path d="M 79.08570108090925 98.10471618934814 l -50.97777704759217 -4.619679383712352 a72.18667004525994,72.18667004525994 0 0,0 0.12279596864024996,-1.2365386462974062 l 50.89070395326969 5.496493560714189" fill="#3bff99" stroke="none" /><path d="M 79.16333360222342 97.38593545837743 l -31.83019118554205 -3.993257488638931 a53.07970037700991,53.07970037700991 0 0,0 0.12153735061609718,-0.9055944311326778 l 31.756737835868115 4.540570261836268" fill="#caff1d" stroke="none" /><path d="M 79.54389044137918 95.25157060432595 l -36.03071581375123 -8.363726720709307 a57.988706475220376,57.988706475220376 0 0,0 0.23407334592390425,-0.970385135826705 l 35.88140966756651 8.98269708819541" fill="#86ff25" stroke="none" /><path d="M 79.71946130924805 94.55025226153421 l -26.05065247402649 -7.000281726768085 a47.9748111870431,47.9748111870431 0 0,0 0.22117125726127268,-0.7956706884313131 l 25.926294446198856 7.44766371861834" fill="#ffe815" stroke="none" /><path d="M 80.2630227832202 92.82701384747504 l -25.12444570029691 -9.130947415031692 a47.732227225639875,47.732227225639875 0 0,0 0.2872921191389794,-0.7698000466372559 l 24.963548992656303 9.562070598698288" fill="#ffe415" stroke="none" /><path d="M 80.38941819471856 92.48833698450439 l -25.160996768047333 -9.637701253954894 a47.94366426123537,47.94366426123537 0 0,0 0.30183150750676013,-0.768128264268384 l 24.991371710658882 10.069378523119042" fill="#ffe715" stroke="none" /><path d="M 81.26839172434947 90.50648371742162 l -23.97583648583888 -12.151385546676632 a47.87930255604979,47.87930255604979 0 0,0 0.37890897293753883,-0.731931531411544 l 23.763118079741226 12.562289800348513" fill="#ffe615" stroke="none" /><line stroke="#e1ed5e" stroke-width="0.3" x1="26.266209847984257" x2="21.92892807433627" y1="57.711370442889674" y2="55.22380399835377" /><path d="M 25.39875349325466 57.213857153982495 a86.0,86.0 0 0,1 29.58750427330802,-30.492523968695096" fill="none" id="id11" stroke="none" /><text fill="#e1ed5e" style="font-size:6.75px; font-family:Arial;" text-anchor="middle"><textPath startOffset="21.46611528233685" xlink:href="#id11">November</textPath></text><path d="M 82.34701348167596 88.62581576622439 l -45.01212573723536 -29.002243351726865 a74.54644323218369,74.54644323218369 0 0,0 0.7042983409221447,-1.0726946923562006 l 44.50623076095529 29.77275610806073" fill="#3effb9" stroke="none" /><path d="M 82.7489923806493 88.02491185347247 l -44.10231360491417 -30.614391027932598 a74.68663710195823,74.68663710195823 0 0,0 0.7421980301174348,-1.0497864786588034 l 43.56880295499286 31.369004006923188" fill="#3fffbb" stroke="none" /><path d="M 83.84228863543731 86.58626213691792 l -24.460727335870498 -20.30669919895386 a52.79133866568999,52.79133866568999 0 0,0 0.586459952881537,-0.6941836052204143 l 24.107556769501834 20.724741753803393" fill="#ceff1d" stroke="none" /><path d="M 84.07557802195018 86.31012108654704 l -40.682806543212365 -34.974123155220184 a74.64960427355408,74.64960427355408 0 0,0 0.846057771323812,-0.9671902884971683 l 40.07475690831071 35.66922899992029" fill="#3fffba" stroke="none" /><path d="M 84.5562425177563 85.77008943001954 l -23.600673239601235 -21.74570987513757 a53.091551463525185,53.091551463525185 0 0,0 0.6250460213843186,-0.6667555155392623 l 23.222859896246458 22.148734807554884" fill="#caff1d" stroke="none" /><path d="M 86.10567301691215 84.25364557470407 l -21.440568755076924 -24.2984633302719 a53.4054518369016,53.4054518369016 0 0,0 0.6945409563204232,-0.6022990732008344 l 21.01913400010973 24.663927396892415" fill="#c6ff1e" stroke="none" /><path d="M 86.37877921826538 84.01681056812374 l -17.437936019574998 -20.461736812573136 a47.88427581337838,47.88427581337838 0 0,0 0.6319412447547135,-0.5292326188247898 l 17.083137237861173 20.758870588791737" fill="#ffe615" stroke="none" /><path d="M 87.80319425747017 82.90503203632743 l -15.621459048760004 -21.89494098878587 a47.89643886678125,47.89643886678125 0 0,0 0.6752687653947105,-0.47306892374288784 l 15.242259143781634 22.1605947552927" fill="#ffe615" stroke="none" /><path d="M 88.39885842347998 82.49532879139004 l -14.86139647796239 -22.423987961153788 a47.90160481006966,47.90160481006966 0 0,0 0.691226941681005,-0.44959323059759626 l 14.4732025104971 22.67648011591092" fill="#ffe715" stroke="none" /><line stroke="#e1ed5e" stroke-width="0.3" x1="56.762969772571076" x2="54.21961505331055" y1="26.818313649435495" y2="22.513508569990535" /><path d="M 56.25429882871897 25.957352633546506 a86.0,86.0 0 0,1 42.265352541879196,-11.944610805530505" fill="none" id="id12" stroke="none" /><text fill="#e1ed5e" style="font-size:6.75px; font-family:Arial;" text-anchor="middle"><textPath startOffset="22.20632615414155" xlink:href="#id12">December</textPath></text><path d="M 89.63071344664047 81.73862282372117 l -13.31431332329212 -23.44787138330343 a47.964302543895585,47.964302543895585 0 0,0 0.7214651313370036,-0.40149456447531967 l 12.908724102883074 23.67358134533893" fill="#ffe815" stroke="none" /><path d="M 89.94658935756843 81.56283822128135 l -12.37043372907488 -22.686399277599563 a46.83989827433737,46.83989827433737 0 0,0 0.7111968373753693,-0.3798967202196924 l 11.978091845171207 22.895974724321007" fill="#ffd614" stroke="none" /><path d="M 92.23578459929587 80.48803036053334 l -15.952041015266587 -40.08849882618929 a64.14574545294272,64.14574545294272 0 0,0 1.0294379100612896,-0.39940591582627344 l 15.25961994020562 40.357147445906115" fill="#37ff2e" stroke="none" /><path d="M 93.25333710446033 80.11325718540243 l -6.724274177582137 -19.82074890281278 a41.930311757918275,41.930311757918275 0 0,0 0.6854950616773535,-0.2259969442156249 l 6.382096293662374 19.93355957128764" fill="#ff870c" stroke="none" /><path d="M 94.98787191387505 79.60689891045804 l -7.439492917607241 -30.2694441396432 a52.170263126802574,52.170263126802574 0 0,0 0.8739172768067177,-0.2068279842853667 l 6.91735195383799 30.393018036069435" fill="#d7ff1c" stroke="none" /><path d="M 97.11714578562143 79.19881850522333 l -5.127002686931318 -36.99379347146596 a58.34738159444754,58.34738159444754 0 0,0 0.9960322348448166,-0.12931357039940836 l 4.489455723578644 37.07656536502951" fill="#81ff25" stroke="none" /><path d="M 98.19473922651362 79.07773832637324 l -3.2789483808933304 -38.001720885385765 a59.14291930011818,59.14291930011818 0 0,0 1.015032778357826,-0.07878607908713073 l 2.6243254131731706 38.05253222666136" fill="#77ff27" stroke="none" /></svg>